<?xml version="1.0" encoding="UTF-8"?>
<!DOCTYPE svg PUBLIC "-//W3C//DTD SVG 1.1//EN" "http://www.w3.org/Graphics/SVG/1.1/DTD/svg11.dtd">
<svg version="1.2" width="19.36mm" height="18.39mm" viewBox="37253 67906 1936 1839" preserveAspectRatio="xMidYMid" fill-rule="evenodd" stroke-width="28.222" stroke-linejoin="round" xmlns="http://www.w3.org/2000/svg" xmlns:ooo="http://xml.openoffice.org/svg/export" xmlns:xlink="http://www.w3.org/1999/xlink" xmlns:presentation="http://sun.com/xmlns/staroffice/presentation" xmlns:smil="http://www.w3.org/2001/SMIL20/" xmlns:anim="urn:oasis:names:tc:opendocument:xmlns:animation:1.0" xmlns:svg="urn:oasis:names:tc:opendocument:xmlns:svg-compatible:1.0" xml:space="preserve">
 <defs class="EmbeddedBulletChars">
  <g id="bullet-char-template-57356" transform="scale(0.00048828125,-0.00048828125)">
   <path d="M 580,1141 L 1163,571 580,0 -4,571 580,1141 Z"/>
  </g>
  <g id="bullet-char-template-57354" transform="scale(0.00048828125,-0.00048828125)">
   <path d="M 8,1128 L 1137,1128 1137,0 8,0 8,1128 Z"/>
  </g>
  <g id="bullet-char-template-10146" transform="scale(0.00048828125,-0.00048828125)">
   <path d="M 174,0 L 602,739 174,1481 1456,739 174,0 Z M 1358,739 L 309,1346 659,739 1358,739 Z"/>
  </g>
  <g id="bullet-char-template-10132" transform="scale(0.00048828125,-0.00048828125)">
   <path d="M 2015,739 L 1276,0 717,0 1260,543 174,543 174,936 1260,936 717,1481 1274,1481 2015,739 Z"/>
  </g>
  <g id="bullet-char-template-10007" transform="scale(0.00048828125,-0.00048828125)">
   <path d="M 0,-2 C -7,14 -16,27 -25,37 L 356,567 C 262,823 215,952 215,954 215,979 228,992 255,992 264,992 276,990 289,987 310,991 331,999 354,1012 L 381,999 492,748 772,1049 836,1024 860,1049 C 881,1039 901,1025 922,1006 886,937 835,863 770,784 769,783 710,716 594,584 L 774,223 C 774,196 753,168 711,139 L 727,119 C 717,90 699,76 672,76 641,76 570,178 457,381 L 164,-76 C 142,-110 111,-127 72,-127 30,-127 9,-110 8,-76 1,-67 -2,-52 -2,-32 -2,-23 -1,-13 0,-2 Z"/>
  </g>
  <g id="bullet-char-template-10004" transform="scale(0.00048828125,-0.00048828125)">
   <path d="M 285,-33 C 182,-33 111,30 74,156 52,228 41,333 41,471 41,549 55,616 82,672 116,743 169,778 240,778 293,778 328,747 346,684 L 369,508 C 377,444 397,411 428,410 L 1163,1116 C 1174,1127 1196,1133 1229,1133 1271,1133 1292,1118 1292,1087 L 1292,965 C 1292,929 1282,901 1262,881 L 442,47 C 390,-6 338,-33 285,-33 Z"/>
  </g>
  <g id="bullet-char-template-9679" transform="scale(0.00048828125,-0.00048828125)">
   <path d="M 813,0 C 632,0 489,54 383,161 276,268 223,411 223,592 223,773 276,916 383,1023 489,1130 632,1184 813,1184 992,1184 1136,1130 1245,1023 1353,916 1407,772 1407,592 1407,412 1353,268 1245,161 1136,54 992,0 813,0 Z"/>
  </g>
  <g id="bullet-char-template-8226" transform="scale(0.00048828125,-0.00048828125)">
   <path d="M 346,457 C 273,457 209,483 155,535 101,586 74,649 74,723 74,796 101,859 155,911 209,963 273,989 346,989 419,989 480,963 531,910 582,859 608,796 608,723 608,648 583,586 532,535 482,483 420,457 346,457 Z"/>
  </g>
  <g id="bullet-char-template-8211" transform="scale(0.00048828125,-0.00048828125)">
   <path d="M -4,459 L 1135,459 1135,606 -4,606 -4,459 Z"/>
  </g>
  <g id="bullet-char-template-61548" transform="scale(0.00048828125,-0.00048828125)">
   <path d="M 173,740 C 173,903 231,1043 346,1159 462,1274 601,1332 765,1332 928,1332 1067,1274 1183,1159 1299,1043 1357,903 1357,740 1357,577 1299,437 1183,322 1067,206 928,148 765,148 601,148 462,206 346,322 231,437 173,577 173,740 Z"/>
  </g>
 </defs>
 <g class="Page">
  <g class="com.sun.star.drawing.ClosedBezierShape">
   <g id="id3">
    <rect class="BoundingBox" stroke="none" fill="none" x="37253" y="67906" width="1936" height="1839"/>
    <path fill="rgb(106,84,156)" stroke="none" d="M 39123,69100 L 39123,68390 C 39123,68283 39036,68196 38929,68196 L 38872,68196 C 38874,68177 38867,68157 38853,68143 L 38757,68047 C 38734,68024 38697,68022 38672,68042 L 38541,68143 C 38528,68137 38515,68132 38502,68127 L 38481,67963 C 38478,67931 38450,67906 38418,67906 L 38281,67906 C 38249,67906 38221,67931 38217,67963 L 38197,68127 C 38183,68132 38170,68137 38158,68143 L 38027,68042 C 38002,68022 37965,68024 37942,68047 L 37845,68143 C 37831,68157 37825,68177 37827,68196 L 37639,68196 37639,68132 C 37639,68025 37553,67939 37446,67939 37339,67939 37253,68025 37253,68132 L 37253,69551 C 37253,69657 37339,69744 37446,69744 L 38929,69744 C 39036,69744 39123,69657 39123,69551 L 39123,69518 C 39158,69518 39187,69490 39187,69454 L 39187,69164 C 39187,69128 39158,69100 39123,69100 Z M 39123,69325 L 37769,69325 37769,69164 37834,69164 37834,69228 C 37834,69246 37848,69261 37866,69261 37884,69261 37898,69246 37898,69228 L 37898,69164 37995,69164 37995,69228 C 37995,69246 38009,69261 38027,69261 38045,69261 38059,69246 38059,69228 L 38059,69164 38156,69164 38156,69228 C 38156,69246 38170,69261 38188,69261 38206,69261 38220,69246 38220,69228 L 38220,69164 38317,69164 38317,69228 C 38317,69246 38332,69261 38349,69261 38367,69261 38382,69246 38382,69228 L 38382,69164 38478,69164 38478,69228 C 38478,69246 38493,69261 38510,69261 38528,69261 38543,69246 38543,69228 L 38543,69164 38639,69164 38639,69228 C 38639,69246 38654,69261 38672,69261 38689,69261 38704,69246 38704,69228 L 38704,69164 38800,69164 38800,69228 C 38800,69246 38815,69261 38833,69261 38850,69261 38865,69246 38865,69228 L 38865,69164 38962,69164 38962,69228 C 38962,69246 38976,69261 38994,69261 39012,69261 39026,69246 39026,69228 L 39026,69164 39123,69164 39123,69325 Z M 38711,68093 L 38807,68189 38723,68298 C 38691,68251 38650,68210 38602,68177 L 38711,68093 Z M 38628,68906 C 38664,68878 38696,68842 38722,68804 L 38799,68906 38628,68906 Z M 38195,68906 C 38186,68902 38177,68898 38169,68894 38100,68857 38044,68800 38007,68731 37996,68710 37987,68687 37980,68664 37957,68590 37957,68511 37980,68437 37987,68414 37996,68391 38007,68370 38044,68301 38100,68245 38168,68209 38190,68197 38212,68188 38236,68181 38310,68158 38389,68158 38463,68181 38486,68188 38509,68197 38530,68209 38599,68245 38655,68301 38691,68370 38702,68391 38712,68414 38719,68437 38742,68511 38742,68590 38719,68664 38712,68688 38703,68710 38691,68731 38655,68800 38599,68857 38531,68893 38522,68898 38513,68902 38504,68906 L 38195,68906 Z M 37897,68906 L 37976,68803 C 38002,68842 38034,68877 38071,68906 L 37897,68906 Z M 37907,68636 L 37769,68619 37769,68483 37907,68465 C 37895,68522 37895,68580 37907,68636 Z M 38792,68465 L 38929,68482 38929,68619 38792,68636 C 38803,68580 38803,68522 38792,68465 Z M 38418,67971 L 38435,68108 C 38378,68097 38320,68097 38264,68108 L 38281,67971 38418,67971 Z M 37987,68093 L 38097,68177 C 38049,68210 38008,68251 37976,68298 L 37891,68189 37987,68093 Z M 37446,68003 C 37517,68003 37575,68061 37575,68132 L 37575,69278 C 37502,69212 37390,69212 37317,69278 L 37317,68132 C 37317,68061 37375,68003 37446,68003 Z M 39058,69551 C 39058,69622 39000,69680 38929,69680 L 37446,69680 C 37375,69680 37317,69622 37317,69551 L 37317,69422 C 37317,69351 37375,69293 37446,69293 37517,69293 37575,69351 37575,69422 37575,69440 37589,69454 37607,69454 37625,69454 37639,69440 37639,69422 L 37639,68261 37865,68261 37942,68359 C 37936,68372 37930,68385 37925,68398 L 37762,68419 C 37729,68422 37705,68450 37705,68482 L 37705,68619 C 37705,68652 37729,68679 37762,68683 L 37926,68703 C 37930,68717 37936,68730 37942,68742 L 37841,68874 C 37833,68883 37828,68894 37827,68906 L 37737,68906 C 37719,68906 37705,68921 37705,68938 37705,68956 37719,68971 37737,68971 L 38962,68971 C 38979,68971 38994,68956 38994,68938 38994,68921 38979,68906 38962,68906 L 38872,68906 C 38870,68895 38866,68883 38858,68874 L 38757,68743 C 38763,68730 38768,68717 38773,68703 L 38937,68683 C 38969,68679 38994,68652 38994,68619 L 38994,68482 C 38994,68450 38969,68423 38937,68419 L 38773,68398 C 38768,68385 38763,68372 38757,68359 L 38833,68261 38929,68261 C 39000,68261 39058,68319 39058,68390 L 39058,69100 37769,69100 C 37734,69100 37705,69128 37705,69164 L 37705,69454 C 37705,69490 37734,69518 37769,69518 L 39058,69518 39058,69551 Z M 37769,69454 L 37769,69390 39123,69390 39123,69454 37769,69454 Z"/>
   </g>
  </g>
  <g class="com.sun.star.drawing.ClosedBezierShape">
   <g id="id4">
    <rect class="BoundingBox" stroke="none" fill="none" x="38155" y="68357" width="389" height="389"/>
    <path fill="rgb(106,84,156)" stroke="none" d="M 38348,68357 C 38242,68357 38155,68444 38155,68552 38155,68659 38242,68745 38348,68745 38456,68745 38543,68659 38543,68552 38543,68444 38456,68358 38348,68357 Z M 38348,68681 C 38277,68681 38219,68623 38219,68552 38219,68480 38277,68422 38348,68422 38421,68422 38478,68480 38478,68552 38478,68623 38421,68681 38348,68681 Z"/>
   </g>
  </g>
 </g>
</svg>