<?xml version="1.0" encoding="UTF-8"?>
<!DOCTYPE svg PUBLIC "-//W3C//DTD SVG 1.1//EN" "http://www.w3.org/Graphics/SVG/1.1/DTD/svg11.dtd">
<svg version="1.2" width="22.36mm" height="25.06mm" viewBox="37252 59694 2236 2506" preserveAspectRatio="xMidYMid" fill-rule="evenodd" stroke-width="28.222" stroke-linejoin="round" xmlns="http://www.w3.org/2000/svg" xmlns:ooo="http://xml.openoffice.org/svg/export" xmlns:xlink="http://www.w3.org/1999/xlink" xmlns:presentation="http://sun.com/xmlns/staroffice/presentation" xmlns:smil="http://www.w3.org/2001/SMIL20/" xmlns:anim="urn:oasis:names:tc:opendocument:xmlns:animation:1.0" xmlns:svg="urn:oasis:names:tc:opendocument:xmlns:svg-compatible:1.0" xml:space="preserve">
 <defs class="EmbeddedBulletChars">
  <g id="bullet-char-template-57356" transform="scale(0.00048828125,-0.00048828125)">
   <path d="M 580,1141 L 1163,571 580,0 -4,571 580,1141 Z"/>
  </g>
  <g id="bullet-char-template-57354" transform="scale(0.00048828125,-0.00048828125)">
   <path d="M 8,1128 L 1137,1128 1137,0 8,0 8,1128 Z"/>
  </g>
  <g id="bullet-char-template-10146" transform="scale(0.00048828125,-0.00048828125)">
   <path d="M 174,0 L 602,739 174,1481 1456,739 174,0 Z M 1358,739 L 309,1346 659,739 1358,739 Z"/>
  </g>
  <g id="bullet-char-template-10132" transform="scale(0.00048828125,-0.00048828125)">
   <path d="M 2015,739 L 1276,0 717,0 1260,543 174,543 174,936 1260,936 717,1481 1274,1481 2015,739 Z"/>
  </g>
  <g id="bullet-char-template-10007" transform="scale(0.00048828125,-0.00048828125)">
   <path d="M 0,-2 C -7,14 -16,27 -25,37 L 356,567 C 262,823 215,952 215,954 215,979 228,992 255,992 264,992 276,990 289,987 310,991 331,999 354,1012 L 381,999 492,748 772,1049 836,1024 860,1049 C 881,1039 901,1025 922,1006 886,937 835,863 770,784 769,783 710,716 594,584 L 774,223 C 774,196 753,168 711,139 L 727,119 C 717,90 699,76 672,76 641,76 570,178 457,381 L 164,-76 C 142,-110 111,-127 72,-127 30,-127 9,-110 8,-76 1,-67 -2,-52 -2,-32 -2,-23 -1,-13 0,-2 Z"/>
  </g>
  <g id="bullet-char-template-10004" transform="scale(0.00048828125,-0.00048828125)">
   <path d="M 285,-33 C 182,-33 111,30 74,156 52,228 41,333 41,471 41,549 55,616 82,672 116,743 169,778 240,778 293,778 328,747 346,684 L 369,508 C 377,444 397,411 428,410 L 1163,1116 C 1174,1127 1196,1133 1229,1133 1271,1133 1292,1118 1292,1087 L 1292,965 C 1292,929 1282,901 1262,881 L 442,47 C 390,-6 338,-33 285,-33 Z"/>
  </g>
  <g id="bullet-char-template-9679" transform="scale(0.00048828125,-0.00048828125)">
   <path d="M 813,0 C 632,0 489,54 383,161 276,268 223,411 223,592 223,773 276,916 383,1023 489,1130 632,1184 813,1184 992,1184 1136,1130 1245,1023 1353,916 1407,772 1407,592 1407,412 1353,268 1245,161 1136,54 992,0 813,0 Z"/>
  </g>
  <g id="bullet-char-template-8226" transform="scale(0.00048828125,-0.00048828125)">
   <path d="M 346,457 C 273,457 209,483 155,535 101,586 74,649 74,723 74,796 101,859 155,911 209,963 273,989 346,989 419,989 480,963 531,910 582,859 608,796 608,723 608,648 583,586 532,535 482,483 420,457 346,457 Z"/>
  </g>
  <g id="bullet-char-template-8211" transform="scale(0.00048828125,-0.00048828125)">
   <path d="M -4,459 L 1135,459 1135,606 -4,606 -4,459 Z"/>
  </g>
  <g id="bullet-char-template-61548" transform="scale(0.00048828125,-0.00048828125)">
   <path d="M 173,740 C 173,903 231,1043 346,1159 462,1274 601,1332 765,1332 928,1332 1067,1274 1183,1159 1299,1043 1357,903 1357,740 1357,577 1299,437 1183,322 1067,206 928,148 765,148 601,148 462,206 346,322 231,437 173,577 173,740 Z"/>
  </g>
 </defs>
 <g class="Page">
  <g class="com.sun.star.drawing.ClosedBezierShape">
   <g id="id3">
    <rect class="BoundingBox" stroke="none" fill="none" x="37421" y="60775" width="333" height="333"/>
    <path fill="rgb(106,84,156)" stroke="none" d="M 37722,61003 C 37705,61003 37692,61016 37692,61034 L 37692,61047 37481,61047 37481,60836 37674,60836 C 37714,60836 37714,60776 37674,60776 L 37449,60776 C 37433,60776 37422,60790 37422,60806 L 37422,61078 C 37421,61094 37434,61107 37449,61107 L 37722,61107 C 37738,61107 37752,61095 37752,61078 L 37752,61034 C 37752,61016 37738,61003 37722,61003 Z"/>
   </g>
  </g>
  <g class="com.sun.star.drawing.ClosedBezierShape">
   <g id="id4">
    <rect class="BoundingBox" stroke="none" fill="none" x="37544" y="60845" width="233" height="162"/>
    <path fill="rgb(106,84,156)" stroke="none" d="M 37726,60852 L 37628,60934 37596,60902 C 37585,60891 37565,60890 37554,60902 37542,60914 37542,60933 37554,60945 L 37605,60997 C 37616,61008 37633,61008 37645,60998 L 37764,60898 C 37777,60887 37779,60869 37768,60856 37757,60843 37739,60842 37726,60852 Z"/>
   </g>
  </g>
  <g class="com.sun.star.drawing.ClosedBezierShape">
   <g id="id5">
    <rect class="BoundingBox" stroke="none" fill="none" x="37847" y="60851" width="439" height="62"/>
    <path fill="rgb(106,84,156)" stroke="none" d="M 38255,60851 L 37878,60851 C 37838,60851 37838,60912 37878,60912 L 38255,60912 C 38295,60912 38295,60851 38255,60851 Z"/>
   </g>
  </g>
  <g class="com.sun.star.drawing.ClosedBezierShape">
   <g id="id6">
    <rect class="BoundingBox" stroke="none" fill="none" x="37422" y="61255" width="331" height="332"/>
    <path fill="rgb(106,84,156)" stroke="none" d="M 37722,61255 L 37452,61255 C 37435,61255 37422,61269 37422,61285 L 37422,61556 C 37422,61572 37435,61586 37452,61586 L 37722,61586 C 37738,61586 37752,61572 37752,61556 L 37752,61285 C 37752,61269 37738,61255 37722,61255 Z M 37692,61531 L 37481,61531 37481,61315 37692,61315 37692,61531 Z"/>
   </g>
  </g>
  <g class="com.sun.star.drawing.ClosedBezierShape">
   <g id="id7">
    <rect class="BoundingBox" stroke="none" fill="none" x="37421" y="60302" width="333" height="332"/>
    <path fill="rgb(106,84,156)" stroke="none" d="M 37422,60331 L 37422,60603 C 37422,60619 37433,60633 37449,60633 L 37722,60633 C 37738,60633 37752,60619 37752,60603 L 37752,60558 C 37752,60518 37692,60518 37692,60558 L 37692,60573 37481,60573 37481,60362 37674,60362 C 37714,60362 37714,60302 37674,60302 L 37449,60302 C 37434,60302 37421,60315 37422,60331 Z"/>
   </g>
  </g>
  <g class="com.sun.star.drawing.ClosedBezierShape">
   <g id="id8">
    <rect class="BoundingBox" stroke="none" fill="none" x="37545" y="60369" width="232" height="163"/>
    <path fill="rgb(106,84,156)" stroke="none" d="M 37726,60377 L 37628,60458 37596,60427 C 37585,60415 37565,60415 37554,60427 37542,60439 37542,60458 37554,60469 L 37605,60521 C 37616,60532 37633,60533 37645,60523 L 37764,60423 C 37777,60412 37779,60393 37768,60380 37757,60368 37739,60366 37726,60377 Z"/>
   </g>
  </g>
  <g class="com.sun.star.drawing.ClosedBezierShape">
   <g id="id9">
    <rect class="BoundingBox" stroke="none" fill="none" x="37847" y="60377" width="439" height="62"/>
    <path fill="rgb(106,84,156)" stroke="none" d="M 37848,60408 C 37848,60425 37862,60438 37878,60438 L 38255,60438 C 38295,60438 38295,60377 38255,60377 L 37878,60377 C 37862,60377 37848,60392 37848,60408 Z"/>
   </g>
  </g>
  <g class="com.sun.star.drawing.ClosedBezierShape">
   <g id="id10">
    <rect class="BoundingBox" stroke="none" fill="none" x="37848" y="60497" width="632" height="63"/>
    <path fill="rgb(106,84,156)" stroke="none" d="M 37848,60528 C 37848,60545 37862,60558 37878,60558 L 38449,60558 C 38489,60558 38489,60497 38449,60497 L 37878,60497 C 37862,60497 37848,60511 37848,60528 Z"/>
   </g>
  </g>
  <g class="com.sun.star.drawing.ClosedBezierShape">
   <g id="id11">
    <rect class="BoundingBox" stroke="none" fill="none" x="37377" y="60058" width="72" height="62"/>
    <path fill="rgb(106,84,156)" stroke="none" d="M 37448,60088 C 37448,60071 37434,60058 37417,60058 L 37407,60058 C 37367,60058 37367,60119 37407,60119 L 37417,60119 C 37434,60119 37448,60105 37448,60088 Z"/>
   </g>
  </g>
  <g class="com.sun.star.drawing.ClosedBezierShape">
   <g id="id12">
    <rect class="BoundingBox" stroke="none" fill="none" x="37486" y="60058" width="521" height="62"/>
    <path fill="rgb(106,84,156)" stroke="none" d="M 37516,60119 L 37976,60119 C 38016,60119 38016,60058 37976,60058 L 37516,60058 C 37476,60058 37476,60119 37516,60119 Z"/>
   </g>
  </g>
  <g class="com.sun.star.drawing.ClosedBezierShape">
   <g id="id13">
    <rect class="BoundingBox" stroke="none" fill="none" x="37252" y="59694" width="2236" height="2506"/>
    <path fill="rgb(106,84,156)" stroke="none" d="M 39450,61983 L 39152,61686 C 39141,61674 39122,61674 39110,61686 L 39091,61705 39080,61694 C 39222,61502 39203,61234 39033,61065 39002,61034 38967,61008 38928,60986 L 38928,59991 C 38928,59968 38919,59947 38902,59932 L 38652,59714 C 38637,59701 38617,59694 38598,59694 L 37678,59694 C 37648,59694 37619,59702 37593,59718 37546,59747 37516,59799 37516,59855 L 37516,59913 37415,59913 C 37325,59914 37252,59986 37252,60076 L 37252,61652 C 37252,61742 37325,61815 37415,61815 L 38437,61815 C 38513,61864 38602,61890 38693,61890 38797,61890 38898,61856 38981,61793 L 38992,61804 38972,61823 C 38961,61834 38961,61853 38972,61865 L 39271,62162 C 39320,62211 39400,62211 39450,62162 39499,62113 39499,62033 39450,61983 Z M 38644,59790 L 38819,59938 38644,59938 38644,59790 Z M 37415,61755 C 37358,61755 37312,61709 37312,61652 L 37312,60076 C 37312,60049 37323,60023 37342,60003 37361,59984 37387,59973 37415,59973 L 38325,59973 38325,60190 C 38325,60205 38337,60218 38352,60218 L 38604,60218 38604,60546 C 38604,60562 38616,60576 38633,60577 38650,60577 38664,60564 38664,60547 L 38664,60210 C 38664,60187 38654,60166 38637,60152 L 38388,59934 C 38373,59921 38353,59913 38333,59913 L 37576,59913 37576,59858 C 37576,59835 37583,59812 37597,59794 37617,59768 37647,59754 37678,59754 L 38584,59754 38584,59970 C 38584,59986 38596,59998 38612,59998 L 38868,59998 38868,60958 C 38803,60932 38733,60921 38664,60925 L 38664,60756 C 38664,60717 38604,60717 38604,60756 L 38604,60933 C 38557,60942 38512,60958 38470,60980 38464,60974 38456,60971 38448,60971 L 37878,60971 C 37838,60971 37838,61031 37878,61031 L 38392,61031 C 38298,61105 38236,61212 38218,61330 L 37878,61330 C 37838,61330 37838,61391 37878,61391 L 38212,61391 C 38212,61396 38212,61401 38212,61406 38212,61423 38213,61439 38215,61456 L 37878,61456 C 37838,61456 37838,61516 37878,61516 L 38224,61516 C 38245,61604 38289,61684 38353,61748 38355,61750 38358,61753 38361,61755 L 37415,61755 Z M 38384,60158 L 38384,60009 38555,60158 38384,60158 Z M 38991,61706 C 38912,61785 38805,61830 38693,61830 38522,61829 38369,61726 38304,61569 38239,61411 38275,61229 38395,61108 38459,61044 38542,61002 38632,60989 38652,60986 38672,60985 38692,60984 38863,60984 39017,61087 39083,61245 39149,61403 39113,61585 38991,61706 Z M 39026,61753 C 39029,61751 39031,61749 39033,61747 39035,61744 39038,61742 39040,61740 L 39047,61747 39034,61761 39026,61753 Z M 39036,61844 L 39131,61749 39157,61775 39062,61870 39036,61844 Z M 39407,62120 C 39381,62146 39339,62146 39313,62120 L 39105,61912 39200,61818 39407,62025 C 39420,62038 39427,62055 39427,62073 39427,62090 39420,62107 39407,62120 Z"/>
   </g>
  </g>
  <g class="com.sun.star.drawing.ClosedBezierShape">
   <g id="id14">
    <rect class="BoundingBox" stroke="none" fill="none" x="38308" y="61019" width="774" height="775"/>
    <path fill="rgb(106,84,156)" stroke="none" d="M 38968,61133 C 38816,60982 38572,60982 38421,61133 38311,61243 38278,61410 38338,61554 38397,61698 38538,61792 38694,61792 38850,61792 38992,61698 39051,61554 39111,61410 39078,61243 38968,61133 Z M 38924,61637 C 38850,61711 38745,61745 38642,61728 38539,61711 38450,61646 38403,61553 38356,61459 38357,61349 38405,61255 38453,61162 38543,61098 38647,61083 38662,61081 38678,61080 38694,61080 38825,61080 38945,61159 38996,61281 39047,61403 39019,61544 38924,61637 Z"/>
   </g>
  </g>
  <g class="com.sun.star.drawing.ClosedBezierShape">
   <g id="id15">
    <rect class="BoundingBox" stroke="none" fill="none" x="38395" y="61219" width="599" height="392"/>
    <path fill="rgb(106,84,156)" stroke="none" d="M 38987,61396 C 38981,61389 38856,61219 38694,61219 38532,61219 38406,61389 38400,61396 38393,61407 38393,61421 38400,61432 38406,61439 38532,61609 38694,61609 38856,61609 38981,61439 38987,61432 38994,61421 38994,61407 38987,61396 Z M 38529,61478 C 38505,61458 38484,61437 38464,61414 38484,61391 38505,61370 38529,61350 38513,61391 38513,61437 38529,61478 Z M 38694,61531 C 38647,61531 38604,61503 38586,61459 38568,61415 38578,61365 38611,61331 38645,61297 38695,61287 38739,61306 38783,61324 38811,61367 38811,61414 38811,61479 38759,61531 38694,61531 Z M 38859,61478 C 38875,61437 38875,61391 38859,61350 38883,61370 38904,61391 38924,61414 38904,61437 38883,61458 38859,61478 Z"/>
   </g>
  </g>
 </g>
</svg>