<?xml version="1.0" encoding="UTF-8"?>
<!DOCTYPE svg PUBLIC "-//W3C//DTD SVG 1.1//EN" "http://www.w3.org/Graphics/SVG/1.1/DTD/svg11.dtd">
<svg version="1.2" width="65.87mm" height="49.89mm" viewBox="49170 66325 6587 4989" preserveAspectRatio="xMidYMid" fill-rule="evenodd" stroke-width="28.222" stroke-linejoin="round" xmlns="http://www.w3.org/2000/svg" xmlns:ooo="http://xml.openoffice.org/svg/export" xmlns:xlink="http://www.w3.org/1999/xlink" xmlns:presentation="http://sun.com/xmlns/staroffice/presentation" xmlns:smil="http://www.w3.org/2001/SMIL20/" xmlns:anim="urn:oasis:names:tc:opendocument:xmlns:animation:1.0" xmlns:svg="urn:oasis:names:tc:opendocument:xmlns:svg-compatible:1.0" xml:space="preserve">
 <defs class="EmbeddedBulletChars">
  <g id="bullet-char-template-57356" transform="scale(0.00048828125,-0.00048828125)">
   <path d="M 580,1141 L 1163,571 580,0 -4,571 580,1141 Z"/>
  </g>
  <g id="bullet-char-template-57354" transform="scale(0.00048828125,-0.00048828125)">
   <path d="M 8,1128 L 1137,1128 1137,0 8,0 8,1128 Z"/>
  </g>
  <g id="bullet-char-template-10146" transform="scale(0.00048828125,-0.00048828125)">
   <path d="M 174,0 L 602,739 174,1481 1456,739 174,0 Z M 1358,739 L 309,1346 659,739 1358,739 Z"/>
  </g>
  <g id="bullet-char-template-10132" transform="scale(0.00048828125,-0.00048828125)">
   <path d="M 2015,739 L 1276,0 717,0 1260,543 174,543 174,936 1260,936 717,1481 1274,1481 2015,739 Z"/>
  </g>
  <g id="bullet-char-template-10007" transform="scale(0.00048828125,-0.00048828125)">
   <path d="M 0,-2 C -7,14 -16,27 -25,37 L 356,567 C 262,823 215,952 215,954 215,979 228,992 255,992 264,992 276,990 289,987 310,991 331,999 354,1012 L 381,999 492,748 772,1049 836,1024 860,1049 C 881,1039 901,1025 922,1006 886,937 835,863 770,784 769,783 710,716 594,584 L 774,223 C 774,196 753,168 711,139 L 727,119 C 717,90 699,76 672,76 641,76 570,178 457,381 L 164,-76 C 142,-110 111,-127 72,-127 30,-127 9,-110 8,-76 1,-67 -2,-52 -2,-32 -2,-23 -1,-13 0,-2 Z"/>
  </g>
  <g id="bullet-char-template-10004" transform="scale(0.00048828125,-0.00048828125)">
   <path d="M 285,-33 C 182,-33 111,30 74,156 52,228 41,333 41,471 41,549 55,616 82,672 116,743 169,778 240,778 293,778 328,747 346,684 L 369,508 C 377,444 397,411 428,410 L 1163,1116 C 1174,1127 1196,1133 1229,1133 1271,1133 1292,1118 1292,1087 L 1292,965 C 1292,929 1282,901 1262,881 L 442,47 C 390,-6 338,-33 285,-33 Z"/>
  </g>
  <g id="bullet-char-template-9679" transform="scale(0.00048828125,-0.00048828125)">
   <path d="M 813,0 C 632,0 489,54 383,161 276,268 223,411 223,592 223,773 276,916 383,1023 489,1130 632,1184 813,1184 992,1184 1136,1130 1245,1023 1353,916 1407,772 1407,592 1407,412 1353,268 1245,161 1136,54 992,0 813,0 Z"/>
  </g>
  <g id="bullet-char-template-8226" transform="scale(0.00048828125,-0.00048828125)">
   <path d="M 346,457 C 273,457 209,483 155,535 101,586 74,649 74,723 74,796 101,859 155,911 209,963 273,989 346,989 419,989 480,963 531,910 582,859 608,796 608,723 608,648 583,586 532,535 482,483 420,457 346,457 Z"/>
  </g>
  <g id="bullet-char-template-8211" transform="scale(0.00048828125,-0.00048828125)">
   <path d="M -4,459 L 1135,459 1135,606 -4,606 -4,459 Z"/>
  </g>
  <g id="bullet-char-template-61548" transform="scale(0.00048828125,-0.00048828125)">
   <path d="M 173,740 C 173,903 231,1043 346,1159 462,1274 601,1332 765,1332 928,1332 1067,1274 1183,1159 1299,1043 1357,903 1357,740 1357,577 1299,437 1183,322 1067,206 928,148 765,148 601,148 462,206 346,322 231,437 173,577 173,740 Z"/>
  </g>
 </defs>
 <g class="Page">
  <g class="com.sun.star.drawing.ClosedBezierShape">
   <g id="id3">
    <rect class="BoundingBox" stroke="none" fill="none" x="50767" y="66325" width="4990" height="4989"/>
    <path fill="rgb(106,84,156)" stroke="none" d="M 53262,66325 C 53303,66325 53344,66326 53385,66328 53425,66330 53466,66333 53507,66337 53547,66341 53588,66346 53628,66352 53668,66358 53709,66365 53749,66373 53789,66381 53829,66389 53868,66399 53908,66409 53947,66420 53986,66432 54025,66444 54064,66457 54102,66470 54141,66484 54179,66499 54217,66514 54254,66530 54292,66547 54328,66564 54365,66582 54402,66600 54438,66619 54474,66638 54509,66658 54544,66679 54579,66700 54614,66722 54648,66745 54682,66768 54715,66791 54748,66815 54781,66840 54813,66865 54844,66891 54876,66917 54907,66943 54937,66971 54967,66998 54997,67026 55026,67055 55054,67084 55083,67113 55110,67144 55137,67174 55164,67205 55190,67236 55216,67268 55241,67300 55265,67334 55290,67367 55313,67400 55336,67434 55358,67468 55380,67502 55401,67537 55422,67572 55442,67608 55462,67644 55481,67680 55499,67716 55517,67753 55534,67790 55551,67827 55566,67865 55582,67903 55597,67941 55610,67979 55624,68018 55637,68057 55649,68096 55661,68135 55671,68174 55681,68214 55691,68253 55700,68293 55708,68333 55716,68373 55723,68413 55729,68454 55735,68494 55740,68534 55744,68575 55748,68616 55751,68656 55753,68697 55755,68738 55756,68779 55756,68820 55756,68860 55755,68901 55753,68942 55751,68983 55748,69023 55744,69064 55740,69105 55735,69145 55729,69185 55723,69226 55716,69266 55708,69306 55700,69346 55691,69386 55681,69425 55671,69465 55661,69504 55649,69543 55637,69583 55624,69621 55610,69660 55597,69698 55582,69736 55566,69774 55551,69812 55534,69849 55517,69886 55499,69923 55481,69959 55462,69995 55442,70031 55422,70067 55401,70102 55380,70137 55358,70171 55336,70205 55313,70239 55290,70272 55265,70305 55241,70338 55216,70370 55190,70402 55164,70433 55137,70464 55110,70494 55083,70525 55054,70554 55026,70583 54997,70612 54967,70640 54937,70667 54907,70695 54876,70721 54844,70747 54813,70773 54781,70798 54748,70823 54715,70847 54682,70870 54648,70893 54614,70916 54579,70938 54544,70959 54509,70980 54474,71000 54438,71019 54402,71038 54365,71057 54328,71074 54292,71091 54254,71108 54217,71124 54179,71139 54141,71154 54102,71168 54064,71181 54025,71194 53986,71206 53947,71218 53908,71229 53868,71239 53829,71249 53789,71258 53749,71265 53709,71273 53668,71280 53628,71286 53588,71292 53547,71297 53507,71301 53466,71305 53425,71308 53385,71310 53344,71312 53303,71313 53262,71313 53221,71313 53181,71312 53140,71310 53099,71308 53058,71305 53018,71301 52977,71297 52937,71292 52896,71286 52856,71280 52816,71273 52776,71265 52736,71258 52696,71249 52656,71239 52617,71229 52577,71218 52538,71206 52499,71194 52460,71181 52422,71168 52384,71154 52345,71139 52307,71124 52269,71108 52232,71091 52195,71074 52158,71057 52122,71038 52086,71019 52050,71000 52014,70980 51979,70959 51944,70938 51910,70916 51876,70893 51842,70870 51808,70847 51776,70823 51743,70798 51711,70773 51679,70747 51648,70721 51617,70695 51586,70667 51556,70640 51527,70612 51498,70583 51469,70554 51441,70525 51413,70494 51386,70464 51359,70433 51333,70402 51307,70370 51282,70338 51258,70305 51234,70272 51210,70239 51188,70205 51165,70171 51143,70137 51122,70102 51101,70067 51081,70031 51062,69995 51043,69959 51024,69923 51007,69886 50989,69849 50973,69812 50957,69774 50942,69736 50927,69698 50913,69660 50899,69621 50887,69583 50875,69543 50863,69504 50852,69465 50842,69425 50832,69386 50823,69346 50815,69306 50807,69266 50800,69226 50794,69185 50788,69145 50783,69105 50779,69064 50775,69023 50772,68983 50770,68942 50768,68901 50767,68860 50767,68820 50767,68779 50768,68738 50770,68697 50772,68656 50775,68616 50779,68575 50783,68534 50788,68494 50794,68454 50800,68413 50807,68373 50815,68333 50823,68293 50832,68253 50842,68214 50852,68174 50863,68135 50875,68096 50887,68057 50899,68018 50913,67979 50927,67941 50942,67903 50957,67865 50973,67827 50989,67790 51007,67753 51024,67716 51043,67680 51062,67644 51081,67608 51101,67572 51122,67537 51143,67502 51165,67468 51188,67434 51210,67400 51234,67367 51258,67334 51282,67300 51307,67268 51333,67236 51359,67205 51386,67174 51413,67144 51441,67113 51469,67084 51498,67055 51527,67026 51556,66998 51586,66971 51617,66943 51648,66917 51679,66891 51711,66865 51743,66840 51776,66815 51808,66791 51842,66768 51876,66745 51910,66722 51944,66700 51979,66679 52014,66658 52050,66638 52086,66619 52122,66600 52158,66582 52195,66564 52232,66547 52269,66530 52307,66514 52345,66499 52384,66484 52422,66470 52460,66457 52499,66444 52538,66432 52577,66420 52617,66409 52656,66399 52696,66389 52736,66381 52776,66373 52816,66365 52856,66358 52896,66352 52937,66346 52977,66341 53018,66337 53058,66333 53099,66330 53140,66328 53181,66326 53221,66325 53262,66325 Z"/>
   </g>
  </g>
  <g class="com.sun.star.drawing.PolyPolygonShape">
   <g id="id4">
    <rect class="BoundingBox" stroke="none" fill="none" x="49170" y="68513" width="547" height="633"/>
    <path fill="rgb(255,255,255)" stroke="none" d="M 49716,68829 L 49170,68513 49170,69145 49716,68829 Z"/>
   </g>
  </g>
 </g>
</svg>