<?xml version="1.0" encoding="UTF-8"?>
<!DOCTYPE svg PUBLIC "-//W3C//DTD SVG 1.1//EN" "http://www.w3.org/Graphics/SVG/1.1/DTD/svg11.dtd">
<svg version="1.2" width="49.15mm" height="128.23mm" viewBox="27807 50536 4915 12823" preserveAspectRatio="xMidYMid" fill-rule="evenodd" stroke-width="28.222" stroke-linejoin="round" xmlns="http://www.w3.org/2000/svg" xmlns:ooo="http://xml.openoffice.org/svg/export" xmlns:xlink="http://www.w3.org/1999/xlink" xmlns:presentation="http://sun.com/xmlns/staroffice/presentation" xmlns:smil="http://www.w3.org/2001/SMIL20/" xmlns:anim="urn:oasis:names:tc:opendocument:xmlns:animation:1.0" xmlns:svg="urn:oasis:names:tc:opendocument:xmlns:svg-compatible:1.0" xml:space="preserve">
 <defs class="EmbeddedBulletChars">
  <g id="bullet-char-template-57356" transform="scale(0.00048828125,-0.00048828125)">
   <path d="M 580,1141 L 1163,571 580,0 -4,571 580,1141 Z"/>
  </g>
  <g id="bullet-char-template-57354" transform="scale(0.00048828125,-0.00048828125)">
   <path d="M 8,1128 L 1137,1128 1137,0 8,0 8,1128 Z"/>
  </g>
  <g id="bullet-char-template-10146" transform="scale(0.00048828125,-0.00048828125)">
   <path d="M 174,0 L 602,739 174,1481 1456,739 174,0 Z M 1358,739 L 309,1346 659,739 1358,739 Z"/>
  </g>
  <g id="bullet-char-template-10132" transform="scale(0.00048828125,-0.00048828125)">
   <path d="M 2015,739 L 1276,0 717,0 1260,543 174,543 174,936 1260,936 717,1481 1274,1481 2015,739 Z"/>
  </g>
  <g id="bullet-char-template-10007" transform="scale(0.00048828125,-0.00048828125)">
   <path d="M 0,-2 C -7,14 -16,27 -25,37 L 356,567 C 262,823 215,952 215,954 215,979 228,992 255,992 264,992 276,990 289,987 310,991 331,999 354,1012 L 381,999 492,748 772,1049 836,1024 860,1049 C 881,1039 901,1025 922,1006 886,937 835,863 770,784 769,783 710,716 594,584 L 774,223 C 774,196 753,168 711,139 L 727,119 C 717,90 699,76 672,76 641,76 570,178 457,381 L 164,-76 C 142,-110 111,-127 72,-127 30,-127 9,-110 8,-76 1,-67 -2,-52 -2,-32 -2,-23 -1,-13 0,-2 Z"/>
  </g>
  <g id="bullet-char-template-10004" transform="scale(0.00048828125,-0.00048828125)">
   <path d="M 285,-33 C 182,-33 111,30 74,156 52,228 41,333 41,471 41,549 55,616 82,672 116,743 169,778 240,778 293,778 328,747 346,684 L 369,508 C 377,444 397,411 428,410 L 1163,1116 C 1174,1127 1196,1133 1229,1133 1271,1133 1292,1118 1292,1087 L 1292,965 C 1292,929 1282,901 1262,881 L 442,47 C 390,-6 338,-33 285,-33 Z"/>
  </g>
  <g id="bullet-char-template-9679" transform="scale(0.00048828125,-0.00048828125)">
   <path d="M 813,0 C 632,0 489,54 383,161 276,268 223,411 223,592 223,773 276,916 383,1023 489,1130 632,1184 813,1184 992,1184 1136,1130 1245,1023 1353,916 1407,772 1407,592 1407,412 1353,268 1245,161 1136,54 992,0 813,0 Z"/>
  </g>
  <g id="bullet-char-template-8226" transform="scale(0.00048828125,-0.00048828125)">
   <path d="M 346,457 C 273,457 209,483 155,535 101,586 74,649 74,723 74,796 101,859 155,911 209,963 273,989 346,989 419,989 480,963 531,910 582,859 608,796 608,723 608,648 583,586 532,535 482,483 420,457 346,457 Z"/>
  </g>
  <g id="bullet-char-template-8211" transform="scale(0.00048828125,-0.00048828125)">
   <path d="M -4,459 L 1135,459 1135,606 -4,606 -4,459 Z"/>
  </g>
  <g id="bullet-char-template-61548" transform="scale(0.00048828125,-0.00048828125)">
   <path d="M 173,740 C 173,903 231,1043 346,1159 462,1274 601,1332 765,1332 928,1332 1067,1274 1183,1159 1299,1043 1357,903 1357,740 1357,577 1299,437 1183,322 1067,206 928,148 765,148 601,148 462,206 346,322 231,437 173,577 173,740 Z"/>
  </g>
 </defs>
 <g class="Page">
  <g class="com.sun.star.drawing.ClosedBezierShape">
   <g id="id3">
    <rect class="BoundingBox" stroke="none" fill="none" x="27807" y="50536" width="4915" height="12823"/>
    <path fill="rgb(106,84,156)" stroke="none" d="M 31880,54853 C 31178,55588 30826,56265 30825,56943 30824,57660 31216,58378 32001,59162 32012,59173 32022,59184 32032,59195 L 32043,59205 C 32471,59653 32713,60247 32721,60868 L 32721,60931 C 32713,61572 32455,62184 32001,62636 31980,62657 31959,62679 31938,62700 31490,63117 30903,63353 30290,63358 L 30232,63358 C 29588,63350 29005,63094 28572,62683 28571,62681 28569,62680 28568,62680 28555,62665 28540,62651 28526,62636 28413,62523 28311,62401 28223,62269 28212,62253 28201,62236 28191,62220 28180,62203 28170,62187 28160,62170 28149,62153 28139,62136 28130,62119 28120,62101 28110,62085 28101,62067 28091,62050 28082,62032 28073,62015 28011,61893 27959,61766 27918,61633 27906,61595 27895,61558 27885,61520 27880,61501 27875,61482 27871,61462 27867,61443 27862,61424 27858,61405 27856,61392 27853,61378 27851,61365 27848,61353 27846,61341 27844,61329 27842,61315 27840,61302 27837,61288 27833,61262 27829,61237 27826,61211 27826,61207 27825,61203 27825,61199 27823,61184 27821,61170 27820,61155 27820,61153 27819,61151 27819,61150 27818,61136 27816,61123 27816,61110 27814,61094 27813,61078 27812,61062 27811,61052 27811,61041 27810,61031 27810,61028 27810,61025 27810,61022 L 27810,61021 C 27809,61002 27808,60984 27808,60966 27807,60954 27807,60943 27807,60931 L 27807,60870 C 27807,60847 27808,60825 27808,60803 27810,60765 27812,60726 27816,60689 27816,60681 27817,60673 27818,60665 27819,60650 27821,60636 27822,60622 27827,60582 27832,60542 27839,60503 27845,60464 27852,60425 27860,60386 27872,60329 27887,60272 27904,60215 27916,60173 27929,60133 27943,60092 27949,60077 27954,60061 27960,60046 27971,60017 27982,59988 27994,59959 28006,59931 28018,59903 28031,59876 28037,59861 28044,59847 28051,59833 28170,59586 28329,59359 28526,59162 29310,58378 29702,57660 29701,56943 29700,56236 29317,55529 28552,54757 28543,54748 28535,54739 28526,54730 28071,54277 27812,53662 27807,53019 L 27807,52961 C 27822,51783 28664,50810 29773,50585 29832,50573 29892,50563 29954,50555 29974,50553 29994,50550 30014,50548 30037,50546 30060,50544 30082,50543 L 30133,50540 C 30136,50539 30139,50539 30142,50539 30180,50537 30217,50536 30256,50536 L 30295,50536 C 30317,50537 30339,50537 30361,50538 31663,50590 32704,51651 32721,52961 L 32721,53019 C 32715,53662 32456,54277 32001,54730 31960,54771 31920,54812 31882,54852 31881,54852 31881,54853 31880,54853 Z"/>
   </g>
  </g>
  <g class="com.sun.star.drawing.ClosedBezierShape">
   <g id="id4">
    <rect class="BoundingBox" stroke="none" fill="none" x="28512" y="59154" width="3502" height="3502"/>
    <path fill="rgb(249,249,249)" stroke="none" d="M 30263,59154 C 30320,59154 30377,59157 30434,59163 30491,59168 30548,59177 30604,59188 30660,59199 30716,59213 30771,59230 30826,59246 30879,59266 30932,59288 30985,59309 31037,59334 31088,59361 31138,59388 31187,59417 31235,59449 31283,59481 31329,59515 31373,59552 31417,59588 31460,59626 31500,59667 31541,59707 31579,59750 31615,59794 31652,59838 31686,59884 31718,59932 31750,59980 31779,60029 31806,60079 31833,60130 31858,60182 31879,60235 31901,60288 31921,60341 31937,60396 31954,60451 31968,60507 31979,60563 31990,60619 31999,60676 32004,60733 32010,60790 32013,60847 32013,60904 32013,60962 32010,61019 32004,61076 31999,61133 31990,61189 31979,61247 31968,61303 31954,61358 31937,61413 31921,61468 31901,61522 31879,61575 31858,61628 31833,61680 31806,61730 31779,61781 31750,61830 31718,61877 31686,61925 31652,61971 31615,62015 31579,62060 31541,62102 31500,62143 31460,62183 31417,62222 31373,62258 31329,62294 31283,62328 31235,62360 31187,62392 31138,62422 31088,62449 31037,62476 30985,62500 30932,62522 30879,62544 30826,62563 30771,62580 30716,62596 30660,62610 30604,62622 30548,62633 30491,62641 30434,62647 30377,62652 30320,62655 30263,62655 30205,62655 30148,62652 30091,62647 30034,62641 29978,62633 29921,62622 29865,62610 29810,62596 29755,62580 29699,62563 29645,62544 29592,62522 29539,62500 29487,62476 29437,62449 29386,62422 29337,62392 29290,62360 29242,62328 29196,62294 29152,62258 29107,62222 29065,62183 29024,62143 28984,62102 28945,62060 28909,62015 28873,61971 28839,61925 28807,61877 28775,61830 28745,61781 28718,61730 28691,61680 28667,61628 28645,61575 28623,61522 28604,61468 28587,61413 28571,61358 28557,61303 28545,61247 28534,61189 28526,61133 28520,61076 28515,61019 28512,60962 28512,60904 28512,60847 28515,60790 28520,60733 28526,60676 28534,60619 28545,60563 28557,60507 28571,60451 28587,60396 28604,60341 28623,60288 28645,60235 28667,60182 28691,60130 28718,60079 28745,60029 28775,59980 28807,59932 28839,59884 28873,59838 28909,59794 28945,59750 28984,59707 29024,59667 29065,59626 29107,59588 29152,59552 29196,59515 29242,59481 29290,59449 29337,59417 29386,59388 29437,59361 29487,59334 29539,59309 29592,59288 29645,59266 29699,59246 29755,59230 29810,59213 29865,59199 29921,59188 29978,59177 30034,59168 30091,59163 30148,59157 30205,59154 30263,59154 Z"/>
   </g>
  </g>
  <g class="com.sun.star.drawing.PolyPolygonShape">
   <g id="id5">
    <rect class="BoundingBox" stroke="none" fill="none" x="29947" y="56593" width="632" height="549"/>
    <path fill="rgb(255,255,255)" stroke="none" d="M 30262,57141 L 30578,56594 29947,56594 30262,57141 Z"/>
   </g>
  </g>
  <g class="com.sun.star.drawing.ClosedBezierShape">
   <g id="id6">
    <rect class="BoundingBox" stroke="none" fill="none" x="30239" y="59868" width="73" height="72"/>
    <path fill="rgb(106,84,156)" stroke="none" d="M 30311,59904 C 30311,59923 30295,59939 30274,59939 30255,59939 30239,59923 30239,59904 30239,59883 30255,59868 30274,59868 30295,59868 30311,59883 30311,59904 Z"/>
   </g>
  </g>
  <g class="com.sun.star.drawing.ClosedBezierShape">
   <g id="id7">
    <rect class="BoundingBox" stroke="none" fill="none" x="29781" y="60406" width="990" height="69"/>
    <path fill="rgb(106,84,156)" stroke="none" d="M 29815,60474 L 30735,60474 C 30754,60474 30769,60458 30769,60439 30769,60421 30754,60406 30735,60406 L 29815,60406 C 29796,60406 29781,60421 29781,60439 29781,60458 29796,60474 29815,60474 Z"/>
   </g>
  </g>
  <g class="com.sun.star.drawing.ClosedBezierShape">
   <g id="id8">
    <rect class="BoundingBox" stroke="none" fill="none" x="29781" y="60617" width="990" height="71"/>
    <path fill="rgb(106,84,156)" stroke="none" d="M 29815,60687 L 30735,60687 C 30754,60687 30769,60672 30769,60652 30769,60633 30754,60618 30735,60618 L 29815,60618 C 29796,60618 29781,60633 29781,60652 29781,60672 29796,60687 29815,60687 Z"/>
   </g>
  </g>
  <g class="com.sun.star.drawing.ClosedBezierShape">
   <g id="id9">
    <rect class="BoundingBox" stroke="none" fill="none" x="29781" y="60831" width="577" height="70"/>
    <path fill="rgb(106,84,156)" stroke="none" d="M 29815,60900 L 30323,60900 C 30342,60900 30357,60885 30357,60865 30357,60846 30342,60831 30323,60831 L 29815,60831 C 29796,60831 29781,60846 29781,60865 29781,60885 29796,60900 29815,60900 Z"/>
   </g>
  </g>
  <g class="com.sun.star.drawing.ClosedBezierShape">
   <g id="id10">
    <rect class="BoundingBox" stroke="none" fill="none" x="29780" y="61044" width="408" height="69"/>
    <path fill="rgb(106,84,156)" stroke="none" d="M 30187,61079 C 30187,61059 30171,61044 30152,61044 L 29815,61044 C 29796,61044 29781,61059 29781,61079 29781,61097 29796,61112 29815,61112 L 30152,61112 C 30171,61112 30187,61097 30187,61079 Z"/>
   </g>
  </g>
  <g class="com.sun.star.drawing.ClosedBezierShape">
   <g id="id11">
    <rect class="BoundingBox" stroke="none" fill="none" x="30639" y="61144" width="301" height="557"/>
    <path fill="rgb(106,84,156)" stroke="none" d="M 30690,61566 C 30674,61556 30653,61561 30643,61577 30634,61593 30639,61614 30655,61624 30693,61647 30720,61654 30755,61656 L 30755,61666 C 30755,61685 30770,61700 30788,61700 30807,61700 30822,61685 30822,61666 L 30822,61652 C 30883,61638 30927,61590 30936,61534 30946,61470 30909,61415 30843,61393 30836,61390 30829,61388 30822,61386 L 30822,61262 C 30839,61269 30850,61278 30851,61278 30865,61290 30886,61289 30898,61275 30911,61261 30909,61240 30895,61227 30893,61226 30866,61202 30822,61192 L 30822,61178 C 30822,61159 30807,61144 30788,61144 30770,61144 30755,61159 30755,61178 L 30755,61190 C 30692,61200 30653,61243 30643,61295 30630,61371 30682,61409 30755,61435 L 30755,61588 C 30730,61586 30715,61581 30690,61566 Z M 30869,61523 C 30865,61552 30845,61571 30822,61581 L 30822,61457 C 30871,61473 30871,61509 30869,61523 Z M 30710,61307 C 30713,61289 30726,61266 30754,61259 L 30755,61259 30755,61362 C 30724,61348 30704,61338 30710,61307 Z"/>
   </g>
  </g>
  <g class="com.sun.star.drawing.ClosedBezierShape">
   <g id="id12">
    <rect class="BoundingBox" stroke="none" fill="none" x="29379" y="59733" width="2029" height="2308"/>
    <path fill="rgb(106,84,156)" stroke="none" d="M 31318,61271 C 31306,61230 31290,61190 31269,61153 31295,61105 31288,61046 31249,61007 L 31203,60962 C 31194,60952 31183,60944 31171,60938 L 31171,60094 C 31171,60005 31098,59932 31009,59932 L 30447,59932 30447,59905 C 30447,59810 30370,59733 30275,59733 30181,59733 30104,59810 30104,59905 L 30104,59932 29542,59932 C 29453,59932 29379,60005 29379,60094 L 29379,61879 C 29379,61968 29453,62040 29542,62040 L 31009,62040 C 31088,62040 31155,61982 31168,61907 31181,61901 31193,61893 31203,61882 L 31249,61837 C 31288,61798 31295,61739 31269,61692 31290,61655 31306,61615 31318,61574 31368,61567 31407,61523 31407,61471 L 31407,61374 C 31407,61322 31368,61278 31318,61271 Z M 30111,60000 C 30144,60000 30171,59973 30171,59940 L 30171,59905 C 30171,59848 30218,59801 30275,59801 30333,59801 30380,59848 30380,59905 L 30380,59940 C 30380,59973 30407,60000 30440,60000 L 30614,60000 30614,60136 C 30614,60143 30608,60148 30602,60148 L 29949,60148 C 29943,60148 29937,60143 29937,60136 L 29937,60000 30111,60000 Z M 29448,61879 L 29448,60094 C 29448,60042 29490,60000 29542,60000 L 29582,60000 29582,61728 C 29582,61784 29627,61829 29683,61829 L 30180,61829 C 30199,61829 30214,61814 30214,61796 30214,61777 30199,61762 30180,61762 L 29683,61762 C 29665,61762 29649,61747 29649,61728 L 29649,60000 29870,60000 29870,60136 C 29870,60180 29905,60216 29949,60216 L 30602,60216 C 30645,60216 30681,60180 30681,60136 L 30681,60000 30901,60000 30901,60742 C 30901,60761 30917,60776 30935,60776 30954,60776 30969,60761 30969,60742 L 30969,60000 31009,60000 C 31061,60000 31103,60042 31103,60094 L 31103,60927 C 31088,60929 31073,60934 31059,60942 31022,60921 30982,60905 30941,60893 30934,60842 30890,60804 30838,60804 L 30741,60804 C 30688,60804 30645,60842 30638,60893 30597,60905 30557,60921 30520,60942 30473,60915 30414,60923 30375,60962 L 30330,61007 C 30291,61046 30283,61105 30310,61153 30289,61190 30273,61230 30261,61271 30210,61278 30171,61322 30171,61374 L 30171,61471 C 30171,61523 30210,61567 30261,61574 30273,61615 30289,61655 30310,61692 30283,61739 30291,61798 30330,61837 L 30375,61882 C 30414,61921 30473,61928 30520,61902 30557,61923 30597,61939 30638,61951 30639,61959 30641,61966 30643,61973 L 29542,61973 C 29490,61973 29448,61931 29448,61879 Z M 31009,61973 L 30935,61973 C 30938,61966 30940,61959 30941,61951 30982,61939 31022,61923 31059,61902 31070,61908 31083,61913 31096,61915 31081,61949 31048,61973 31009,61973 Z M 31340,61471 C 31340,61491 31323,61508 31303,61508 31281,61508 31262,61523 31256,61544 31245,61587 31227,61629 31205,61668 31195,61684 31196,61705 31207,61721 31222,61742 31220,61770 31201,61789 L 31156,61834 C 31137,61853 31109,61855 31087,61840 31072,61829 31051,61828 31035,61838 30996,61861 30954,61878 30911,61889 30890,61895 30875,61914 30875,61936 30875,61956 30858,61973 30838,61973 L 30741,61973 C 30721,61973 30704,61956 30704,61936 30704,61914 30689,61895 30668,61889 30624,61878 30583,61861 30544,61838 30528,61828 30507,61829 30491,61840 30470,61855 30441,61853 30423,61834 L 30377,61789 C 30359,61770 30357,61742 30372,61721 30383,61705 30384,61684 30374,61668 30351,61629 30334,61587 30323,61544 30317,61523 30298,61508 30276,61508 30256,61508 30239,61491 30239,61471 L 30239,61374 C 30239,61354 30256,61337 30276,61337 30298,61337 30317,61322 30323,61301 30334,61258 30351,61216 30374,61177 30384,61161 30383,61140 30372,61124 30357,61102 30359,61073 30377,61055 L 30423,61010 C 30441,60991 30470,60989 30491,61004 30507,61015 30528,61016 30544,61006 30583,60983 30624,60966 30668,60955 30689,60949 30704,60930 30704,60908 30704,60888 30721,60871 30741,60871 L 30838,60871 C 30858,60871 30875,60888 30875,60908 30875,60930 30890,60949 30911,60955 30954,60966 30996,60983 31035,61006 31051,61016 31072,61015 31087,61004 31100,60995 31114,60992 31128,60995 31129,60995 31130,60995 31131,60996 31140,60998 31149,61003 31156,61010 L 31201,61055 C 31220,61073 31222,61102 31207,61124 31196,61140 31195,61161 31205,61177 31227,61216 31245,61258 31256,61301 31262,61322 31281,61337 31303,61337 31323,61337 31340,61354 31340,61374 L 31340,61471 Z"/>
   </g>
  </g>
  <g class="com.sun.star.drawing.ClosedBezierShape">
   <g id="id13">
    <rect class="BoundingBox" stroke="none" fill="none" x="30391" y="61017" width="805" height="811"/>
    <path fill="rgb(106,84,156)" stroke="none" d="M 30788,61017 C 30600,61017 30438,61145 30395,61328 30390,61346 30402,61365 30420,61369 30438,61373 30456,61362 30460,61344 30497,61192 30632,61085 30788,61085 30975,61085 31126,61237 31126,61422 31126,61608 30975,61760 30788,61760 30627,61760 30488,61645 30457,61487 30454,61469 30436,61457 30418,61461 30400,61464 30388,61482 30391,61500 30428,61690 30595,61827 30788,61827 31012,61827 31194,61646 31194,61422 31194,61199 31012,61017 30788,61017 Z"/>
   </g>
  </g>
 </g>
</svg>