<?xml version="1.0" encoding="UTF-8"?>
<!DOCTYPE svg PUBLIC "-//W3C//DTD SVG 1.1//EN" "http://www.w3.org/Graphics/SVG/1.1/DTD/svg11.dtd">
<svg version="1.2" width="207.29mm" height="49.15mm" viewBox="38328 46838 20729 4915" preserveAspectRatio="xMidYMid" fill-rule="evenodd" stroke-width="28.222" stroke-linejoin="round" xmlns="http://www.w3.org/2000/svg" xmlns:ooo="http://xml.openoffice.org/svg/export" xmlns:xlink="http://www.w3.org/1999/xlink" xmlns:presentation="http://sun.com/xmlns/staroffice/presentation" xmlns:smil="http://www.w3.org/2001/SMIL20/" xmlns:anim="urn:oasis:names:tc:opendocument:xmlns:animation:1.0" xmlns:svg="urn:oasis:names:tc:opendocument:xmlns:svg-compatible:1.0" xml:space="preserve">
 <defs class="EmbeddedBulletChars">
  <g id="bullet-char-template-57356" transform="scale(0.00048828125,-0.00048828125)">
   <path d="M 580,1141 L 1163,571 580,0 -4,571 580,1141 Z"/>
  </g>
  <g id="bullet-char-template-57354" transform="scale(0.00048828125,-0.00048828125)">
   <path d="M 8,1128 L 1137,1128 1137,0 8,0 8,1128 Z"/>
  </g>
  <g id="bullet-char-template-10146" transform="scale(0.00048828125,-0.00048828125)">
   <path d="M 174,0 L 602,739 174,1481 1456,739 174,0 Z M 1358,739 L 309,1346 659,739 1358,739 Z"/>
  </g>
  <g id="bullet-char-template-10132" transform="scale(0.00048828125,-0.00048828125)">
   <path d="M 2015,739 L 1276,0 717,0 1260,543 174,543 174,936 1260,936 717,1481 1274,1481 2015,739 Z"/>
  </g>
  <g id="bullet-char-template-10007" transform="scale(0.00048828125,-0.00048828125)">
   <path d="M 0,-2 C -7,14 -16,27 -25,37 L 356,567 C 262,823 215,952 215,954 215,979 228,992 255,992 264,992 276,990 289,987 310,991 331,999 354,1012 L 381,999 492,748 772,1049 836,1024 860,1049 C 881,1039 901,1025 922,1006 886,937 835,863 770,784 769,783 710,716 594,584 L 774,223 C 774,196 753,168 711,139 L 727,119 C 717,90 699,76 672,76 641,76 570,178 457,381 L 164,-76 C 142,-110 111,-127 72,-127 30,-127 9,-110 8,-76 1,-67 -2,-52 -2,-32 -2,-23 -1,-13 0,-2 Z"/>
  </g>
  <g id="bullet-char-template-10004" transform="scale(0.00048828125,-0.00048828125)">
   <path d="M 285,-33 C 182,-33 111,30 74,156 52,228 41,333 41,471 41,549 55,616 82,672 116,743 169,778 240,778 293,778 328,747 346,684 L 369,508 C 377,444 397,411 428,410 L 1163,1116 C 1174,1127 1196,1133 1229,1133 1271,1133 1292,1118 1292,1087 L 1292,965 C 1292,929 1282,901 1262,881 L 442,47 C 390,-6 338,-33 285,-33 Z"/>
  </g>
  <g id="bullet-char-template-9679" transform="scale(0.00048828125,-0.00048828125)">
   <path d="M 813,0 C 632,0 489,54 383,161 276,268 223,411 223,592 223,773 276,916 383,1023 489,1130 632,1184 813,1184 992,1184 1136,1130 1245,1023 1353,916 1407,772 1407,592 1407,412 1353,268 1245,161 1136,54 992,0 813,0 Z"/>
  </g>
  <g id="bullet-char-template-8226" transform="scale(0.00048828125,-0.00048828125)">
   <path d="M 346,457 C 273,457 209,483 155,535 101,586 74,649 74,723 74,796 101,859 155,911 209,963 273,989 346,989 419,989 480,963 531,910 582,859 608,796 608,723 608,648 583,586 532,535 482,483 420,457 346,457 Z"/>
  </g>
  <g id="bullet-char-template-8211" transform="scale(0.00048828125,-0.00048828125)">
   <path d="M -4,459 L 1135,459 1135,606 -4,606 -4,459 Z"/>
  </g>
  <g id="bullet-char-template-61548" transform="scale(0.00048828125,-0.00048828125)">
   <path d="M 173,740 C 173,903 231,1043 346,1159 462,1274 601,1332 765,1332 928,1332 1067,1274 1183,1159 1299,1043 1357,903 1357,740 1357,577 1299,437 1183,322 1067,206 928,148 765,148 601,148 462,206 346,322 231,437 173,577 173,740 Z"/>
  </g>
 </defs>
 <g class="Page">
  <g class="com.sun.star.drawing.ClosedBezierShape">
   <g id="id3">
    <rect class="BoundingBox" stroke="none" fill="none" x="38328" y="46838" width="20729" height="4915"/>
    <path fill="rgb(106,84,156)" stroke="none" d="M 59055,49264 L 59055,49322 C 59049,49965 58790,50580 58335,51033 58294,51074 58255,51115 58217,51155 58216,51155 58216,51156 58215,51156 57778,51534 57217,51747 56635,51752 L 56564,51752 C 55936,51745 55335,51497 54886,51060 54876,51051 54867,51042 54858,51033 54076,50250 53360,49858 52645,49858 L 52643,49858 C 51927,49858 51211,50250 50428,51033 49975,51486 49363,51745 48722,51752 L 48659,51752 C 48018,51745 47406,51486 46953,51033 46169,50249 45452,49857 44735,49858 44020,49859 43304,50251 42522,51033 42068,51488 41454,51746 40811,51752 L 40753,51752 C 39397,51735 38311,50621 38328,49264 38345,47932 39421,46855 40753,46838 L 40811,46838 C 41454,46844 42069,47102 42523,47558 43304,48341 44020,48732 44735,48733 45452,48735 46169,48343 46953,47558 47406,47104 48018,46846 48659,46838 L 48722,46838 C 49363,46846 49975,47104 50428,47558 51211,48342 51927,48733 52643,48733 L 52645,48733 C 53360,48733 54076,48341 54858,47558 55151,47264 55510,47053 55900,46938 L 55904,46937 C 55935,46928 55966,46920 55998,46912 56001,46911 56003,46910 56006,46910 56039,46901 56073,46894 56107,46887 56167,46874 56227,46864 56288,46857 56308,46855 56328,46852 56348,46850 56371,46848 56394,46846 56416,46845 L 56467,46842 C 56470,46841 56473,46841 56476,46841 56506,46839 56535,46839 56564,46838 L 56629,46838 C 56651,46839 56673,46839 56695,46840 57998,46892 59038,47954 59055,49264 Z"/>
   </g>
  </g>
  <g class="com.sun.star.drawing.ClosedBezierShape">
   <g id="id4">
    <rect class="BoundingBox" stroke="none" fill="none" x="39035" y="47545" width="3502" height="3501"/>
    <path fill="rgb(249,249,249)" stroke="none" d="M 40785,47545 C 40842,47545 40900,47547 40957,47553 41014,47559 41070,47567 41126,47578 41183,47589 41238,47603 41293,47620 41348,47637 41402,47656 41455,47678 41508,47700 41559,47724 41610,47751 41660,47778 41710,47808 41757,47839 41805,47871 41851,47905 41895,47942 41939,47978 41982,48017 42022,48057 42063,48098 42102,48140 42139,48184 42175,48229 42209,48275 42241,48322 42273,48370 42302,48419 42329,48470 42356,48520 42381,48572 42403,48625 42425,48678 42444,48732 42461,48787 42477,48841 42491,48897 42502,48953 42514,49009 42522,49066 42528,49123 42533,49180 42536,49237 42536,49294 42536,49352 42533,49409 42528,49466 42522,49523 42514,49580 42502,49636 42491,49692 42477,49748 42461,49802 42444,49857 42425,49911 42403,49964 42381,50017 42356,50069 42329,50119 42302,50170 42273,50219 42241,50267 42209,50314 42175,50360 42139,50405 42102,50449 42063,50491 42022,50532 41982,50573 41939,50612 41895,50648 41851,50685 41805,50719 41757,50751 41710,50782 41660,50812 41610,50839 41559,50866 41508,50890 41455,50912 41402,50934 41348,50953 41293,50970 41238,50987 41183,51001 41126,51012 41070,51023 41014,51031 40957,51037 40900,51043 40842,51045 40785,51045 40728,51045 40671,51043 40614,51037 40556,51031 40500,51023 40444,51012 40387,51001 40332,50987 40277,50970 40222,50953 40168,50934 40115,50912 40062,50890 40011,50866 39960,50839 39910,50812 39860,50782 39813,50751 39765,50719 39719,50685 39675,50648 39631,50612 39588,50573 39548,50532 39507,50491 39469,50449 39432,50405 39396,50360 39362,50314 39330,50267 39298,50219 39269,50170 39242,50119 39215,50069 39190,50017 39168,49964 39146,49911 39127,49857 39110,49802 39094,49748 39080,49692 39069,49636 39058,49580 39049,49523 39044,49466 39038,49409 39035,49352 39035,49294 39035,49237 39038,49180 39044,49123 39049,49066 39058,49009 39069,48953 39080,48897 39094,48841 39110,48787 39127,48732 39146,48678 39168,48625 39190,48572 39215,48520 39242,48470 39269,48419 39298,48370 39330,48322 39362,48275 39396,48229 39432,48184 39469,48140 39507,48098 39548,48057 39588,48017 39631,47978 39675,47942 39719,47905 39765,47871 39813,47839 39860,47808 39910,47778 39960,47751 40011,47724 40062,47700 40115,47678 40168,47656 40222,47637 40277,47620 40332,47603 40387,47589 40444,47578 40500,47567 40556,47559 40614,47553 40671,47547 40728,47545 40785,47545 Z"/>
   </g>
  </g>
  <g class="com.sun.star.drawing.ClosedBezierShape">
   <g id="id5">
    <rect class="BoundingBox" stroke="none" fill="none" x="46940" y="47550" width="3502" height="3502"/>
    <path fill="rgb(249,249,249)" stroke="none" d="M 48690,47550 C 48748,47550 48805,47553 48862,47559 48919,47564 48975,47573 49032,47584 49089,47595 49144,47609 49199,47626 49254,47642 49308,47662 49361,47683 49414,47705 49466,47730 49516,47757 49567,47784 49616,47813 49663,47845 49711,47877 49757,47911 49801,47947 49846,47984 49888,48022 49929,48063 49969,48103 50008,48146 50044,48190 50080,48234 50114,48280 50146,48328 50178,48376 50208,48425 50235,48475 50262,48526 50286,48578 50308,48631 50330,48683 50349,48737 50366,48792 50382,48847 50396,48903 50408,48959 50419,49015 50427,49072 50433,49129 50438,49186 50441,49243 50441,49300 50441,49357 50438,49415 50433,49472 50427,49529 50419,49585 50408,49642 50396,49698 50382,49753 50366,49808 50349,49863 50330,49917 50308,49970 50286,50023 50262,50075 50235,50125 50208,50176 50178,50225 50146,50272 50114,50320 50080,50366 50044,50410 50008,50455 49969,50497 49929,50539 49888,50579 49846,50618 49801,50654 49757,50690 49711,50724 49663,50756 49616,50788 49567,50817 49516,50844 49466,50871 49414,50896 49361,50918 49308,50940 49254,50959 49199,50976 49144,50992 49089,51006 49032,51017 48975,51029 48919,51037 48862,51043 48805,51048 48748,51051 48690,51051 48633,51051 48576,51048 48519,51043 48462,51037 48405,51029 48349,51017 48293,51006 48237,50992 48182,50976 48127,50959 48074,50940 48021,50918 47968,50896 47916,50871 47865,50844 47815,50817 47766,50788 47718,50756 47670,50724 47624,50690 47580,50654 47536,50618 47493,50579 47453,50539 47412,50497 47374,50455 47338,50410 47301,50366 47267,50320 47235,50272 47203,50225 47174,50176 47147,50125 47120,50075 47095,50023 47074,49970 47052,49917 47032,49863 47016,49808 46999,49753 46985,49698 46974,49642 46963,49585 46954,49529 46949,49472 46943,49415 46940,49357 46940,49300 46940,49243 46943,49186 46949,49129 46954,49072 46963,49015 46974,48959 46985,48903 46999,48847 47016,48792 47032,48737 47052,48683 47074,48631 47095,48578 47120,48526 47147,48475 47174,48425 47203,48376 47235,48328 47267,48280 47301,48234 47338,48190 47374,48146 47412,48103 47453,48063 47493,48022 47536,47984 47580,47947 47624,47911 47670,47877 47718,47845 47766,47813 47815,47784 47865,47757 47916,47730 47968,47705 48021,47683 48074,47662 48127,47642 48182,47626 48237,47609 48293,47595 48349,47584 48405,47573 48462,47564 48519,47559 48576,47553 48633,47550 48690,47550 Z"/>
   </g>
  </g>
  <g class="com.sun.star.drawing.ClosedBezierShape">
   <g id="id6">
    <rect class="BoundingBox" stroke="none" fill="none" x="54846" y="47550" width="3502" height="3502"/>
    <path fill="rgb(249,249,249)" stroke="none" d="M 56597,47550 C 56654,47550 56711,47553 56768,47559 56825,47564 56882,47573 56938,47584 56994,47595 57050,47609 57105,47626 57160,47642 57213,47662 57266,47683 57319,47705 57371,47730 57422,47757 57472,47784 57521,47813 57569,47845 57617,47877 57663,47911 57707,47947 57751,47984 57794,48022 57834,48063 57875,48103 57913,48146 57949,48190 57986,48234 58020,48280 58052,48328 58084,48376 58113,48425 58140,48475 58167,48526 58192,48578 58213,48631 58235,48683 58255,48737 58271,48792 58288,48847 58302,48903 58313,48959 58324,49015 58333,49072 58338,49129 58344,49186 58347,49243 58347,49300 58347,49357 58344,49415 58338,49472 58333,49529 58324,49585 58313,49642 58302,49698 58288,49753 58271,49808 58255,49863 58235,49917 58213,49970 58192,50023 58167,50075 58140,50125 58113,50176 58084,50225 58052,50272 58020,50320 57986,50366 57949,50410 57913,50455 57875,50497 57834,50539 57794,50579 57751,50618 57707,50654 57663,50690 57617,50724 57569,50756 57521,50788 57472,50817 57422,50844 57371,50871 57319,50896 57266,50918 57213,50940 57160,50959 57105,50976 57050,50992 56994,51006 56938,51017 56882,51029 56825,51037 56768,51043 56711,51048 56654,51051 56597,51051 56539,51051 56482,51048 56425,51043 56368,51037 56312,51029 56255,51017 56199,51006 56144,50992 56089,50976 56033,50959 55979,50940 55926,50918 55873,50896 55821,50871 55771,50844 55720,50817 55671,50788 55624,50756 55576,50724 55530,50690 55486,50654 55441,50618 55399,50579 55358,50539 55318,50497 55279,50455 55243,50410 55207,50366 55173,50320 55141,50272 55109,50225 55079,50176 55052,50125 55025,50075 55001,50023 54979,49970 54957,49917 54938,49863 54921,49808 54905,49753 54891,49698 54879,49642 54868,49585 54860,49529 54854,49472 54849,49415 54846,49357 54846,49300 54846,49243 54849,49186 54854,49129 54860,49072 54868,49015 54879,48959 54891,48903 54905,48847 54921,48792 54938,48737 54957,48683 54979,48631 55001,48578 55025,48526 55052,48475 55079,48425 55109,48376 55141,48328 55173,48280 55207,48234 55243,48190 55279,48146 55318,48103 55358,48063 55399,48022 55441,47984 55486,47947 55530,47911 55576,47877 55624,47845 55671,47813 55720,47784 55771,47757 55821,47730 55873,47705 55926,47683 55979,47662 56033,47642 56089,47626 56144,47609 56199,47595 56255,47584 56312,47573 56368,47564 56425,47559 56482,47553 56539,47550 56597,47550 Z"/>
   </g>
  </g>
  <g class="com.sun.star.drawing.PolyPolygonShape">
   <g id="id7">
    <rect class="BoundingBox" stroke="none" fill="none" x="44410" y="49041" width="548" height="632"/>
    <path fill="rgb(255,255,255)" stroke="none" d="M 44957,49356 L 44410,49041 44410,49672 44957,49356 Z"/>
   </g>
  </g>
  <g class="com.sun.star.drawing.PolyPolygonShape">
   <g id="id8">
    <rect class="BoundingBox" stroke="none" fill="none" x="52370" y="49041" width="548" height="632"/>
    <path fill="rgb(255,255,255)" stroke="none" d="M 52917,49356 L 52370,49041 52370,49672 52917,49356 Z"/>
   </g>
  </g>
  <g class="com.sun.star.drawing.ClosedBezierShape">
   <g id="id9">
    <rect class="BoundingBox" stroke="none" fill="none" x="39542" y="47863" width="2506" height="2506"/>
    <path fill="rgb(106,84,156)" stroke="none" d="M 41820,49909 C 41860,49872 41885,49820 41885,49761 L 41885,49681 C 41885,49569 41795,49479 41683,49479 41586,49479 41504,49548 41485,49640 L 41353,49640 C 41336,49593 41291,49559 41239,49559 41186,49559 41142,49593 41125,49640 L 40993,49640 C 40976,49561 40914,49499 40835,49483 L 40835,49392 C 40905,49374 40956,49311 40956,49236 L 40997,49236 C 41019,49236 41037,49218 41037,49196 L 41037,49075 41118,49075 41118,48994 41037,48994 C 41037,48916 41074,48840 41137,48785 41253,48686 41320,48541 41320,48388 41320,48244 41262,48110 41158,48010 41054,47910 40917,47857 40773,47864 40500,47875 40275,48106 40270,48379 40267,48533 40332,48680 40448,48782 40513,48839 40550,48915 40552,48994 L 40472,48994 40472,49075 40552,49075 40552,49196 C 40552,49218 40570,49236 40593,49236 L 40633,49236 C 40633,49311 40685,49374 40754,49392 L 40754,49483 C 40675,49499 40613,49561 40597,49640 L 40464,49640 C 40447,49593 40403,49559 40350,49559 40298,49559 40253,49593 40237,49640 L 40104,49640 C 40084,49548 40003,49479 39905,49479 39794,49479 39703,49569 39703,49681 L 39703,49761 C 39703,49820 39729,49872 39769,49909 39636,49963 39542,50094 39542,50247 L 39542,50328 C 39542,50350 39560,50368 39582,50368 L 40229,50368 C 40252,50368 40270,50350 40270,50328 L 40270,50247 C 40270,50094 40176,49963 40042,49909 40082,49872 40108,49820 40108,49761 L 40108,49721 40237,49721 C 40253,49768 40298,49802 40350,49802 40403,49802 40447,49768 40464,49721 L 40593,49721 40593,49761 C 40593,49820 40618,49872 40658,49909 40525,49963 40431,50094 40431,50247 L 40431,50328 C 40431,50350 40449,50368 40472,50368 L 41118,50368 C 41140,50368 41158,50350 41158,50328 L 41158,50247 C 41158,50094 41064,49963 40931,49909 40971,49872 40997,49820 40997,49761 L 40997,49721 41125,49721 C 41142,49768 41186,49802 41239,49802 41291,49802 41336,49768 41353,49721 L 41481,49721 41481,49761 C 41481,49820 41507,49872 41547,49909 41414,49963 41320,50094 41320,50247 L 41320,50328 C 41320,50350 41338,50368 41360,50368 L 42006,50368 C 42029,50368 42047,50350 42047,50328 L 42047,50247 C 42047,50094 41953,49963 41820,49909 Z M 40189,50247 L 40189,50287 40108,50287 40108,50207 40026,50207 40026,50287 39784,50287 39784,50207 39703,50207 39703,50287 39622,50287 39622,50247 C 39622,50090 39749,49963 39905,49963 40061,49963 40189,50090 40189,50247 Z M 39784,49761 L 39784,49681 C 39784,49614 39838,49559 39905,49559 39972,49559 40026,49614 40026,49681 L 40026,49761 C 40026,49828 39972,49883 39905,49883 39838,49883 39784,49828 39784,49761 Z M 40350,49721 C 40328,49721 40310,49703 40310,49681 40310,49658 40328,49640 40350,49640 40373,49640 40391,49658 40391,49681 40391,49703 40373,49721 40350,49721 Z M 40502,48722 C 40403,48635 40348,48511 40351,48380 40355,48149 40546,47954 40776,47944 40899,47940 41014,47983 41102,48068 41190,48152 41239,48266 41239,48388 41239,48517 41183,48640 41085,48724 41003,48795 40956,48893 40956,48994 L 40633,48994 C 40631,48892 40583,48793 40502,48722 Z M 40956,49075 L 40956,49156 40633,49156 40633,49075 40956,49075 Z M 40714,49236 L 40875,49236 C 40875,49281 40839,49317 40795,49317 40750,49317 40714,49281 40714,49236 Z M 41077,50247 L 41077,50287 40997,50287 40997,50207 40916,50207 40916,50287 40674,50287 40674,50207 40593,50207 40593,50287 40512,50287 40512,50247 C 40512,50090 40639,49963 40795,49963 40951,49963 41077,50090 41077,50247 Z M 40674,49761 L 40674,49681 C 40674,49614 40728,49559 40795,49559 40861,49559 40916,49614 40916,49681 L 40916,49761 C 40916,49828 40861,49883 40795,49883 40728,49883 40674,49828 40674,49761 Z M 41239,49721 C 41217,49721 41199,49703 41199,49681 41199,49658 41217,49640 41239,49640 41261,49640 41279,49658 41279,49681 41279,49703 41261,49721 41239,49721 Z M 41562,49761 L 41562,49681 C 41562,49614 41616,49559 41683,49559 41750,49559 41804,49614 41804,49681 L 41804,49761 C 41804,49828 41750,49883 41683,49883 41616,49883 41562,49828 41562,49761 Z M 41966,50287 L 41885,50287 41885,50207 41804,50207 41804,50287 41562,50287 41562,50207 41481,50207 41481,50287 41400,50287 41400,50247 C 41400,50090 41527,49963 41683,49963 41839,49963 41966,50090 41966,50247 L 41966,50287 Z"/>
   </g>
  </g>
  <g class="com.sun.star.drawing.PolyPolygonShape">
   <g id="id10">
    <rect class="BoundingBox" stroke="none" fill="none" x="40737" y="48831" width="117" height="60"/>
    <path fill="rgb(106,84,156)" stroke="none" d="M 40737,48831 L 40852,48831 40852,48889 40737,48889 40737,48831 Z"/>
   </g>
  </g>
  <g class="com.sun.star.drawing.ClosedBezierShape">
   <g id="id11">
    <rect class="BoundingBox" stroke="none" fill="none" x="40511" y="48106" width="567" height="567"/>
    <path fill="rgb(106,84,156)" stroke="none" d="M 40754,48587 L 40754,48672 40835,48672 40835,48587 C 40861,48582 40885,48572 40906,48557 L 40968,48620 41025,48562 40963,48499 C 40977,48478 40987,48454 40993,48429 L 41077,48429 41077,48348 40993,48348 C 40987,48322 40977,48298 40963,48277 L 41025,48215 40968,48158 40906,48220 C 40885,48206 40861,48196 40835,48190 L 40835,48106 40754,48106 40754,48190 C 40728,48196 40704,48206 40682,48220 L 40620,48158 40563,48215 40625,48277 C 40611,48298 40601,48322 40596,48348 L 40511,48348 40511,48429 40596,48429 C 40601,48454 40611,48478 40625,48499 L 40563,48562 40620,48620 40682,48557 C 40704,48572 40728,48582 40754,48587 Z M 40795,48267 C 40861,48267 40916,48321 40916,48388 40916,48455 40861,48509 40795,48509 40727,48509 40673,48455 40673,48388 40673,48321 40727,48267 40795,48267 Z"/>
   </g>
  </g>
  <g class="com.sun.star.drawing.ClosedBezierShape">
   <g id="id12">
    <rect class="BoundingBox" stroke="none" fill="none" x="48270" y="48677" width="213" height="189"/>
    <path fill="rgb(106,84,156)" stroke="none" d="M 48468,48685 C 48453,48674 48432,48677 48421,48692 L 48355,48783 48332,48752 C 48321,48736 48300,48733 48285,48744 48269,48756 48266,48777 48277,48792 L 48317,48846 C 48326,48858 48340,48865 48355,48865 48369,48865 48383,48858 48392,48846 L 48475,48732 C 48486,48717 48483,48696 48468,48685 Z"/>
   </g>
  </g>
  <g class="com.sun.star.drawing.ClosedBezierShape">
   <g id="id13">
    <rect class="BoundingBox" stroke="none" fill="none" x="48270" y="49230" width="213" height="188"/>
    <path fill="rgb(106,84,156)" stroke="none" d="M 48468,49237 C 48453,49226 48432,49229 48421,49244 L 48355,49336 48332,49303 C 48321,49288 48300,49285 48285,49296 48269,49308 48266,49329 48277,49344 L 48317,49398 C 48326,49410 48340,49417 48355,49417 48369,49417 48383,49410 48392,49398 L 48475,49284 C 48486,49269 48483,49248 48468,49237 Z"/>
   </g>
  </g>
  <g class="com.sun.star.drawing.ClosedBezierShape">
   <g id="id14">
    <rect class="BoundingBox" stroke="none" fill="none" x="48270" y="49757" width="213" height="188"/>
    <path fill="rgb(106,84,156)" stroke="none" d="M 48468,49764 C 48453,49753 48432,49756 48421,49771 L 48355,49862 48332,49830 C 48321,49815 48300,49812 48285,49823 48269,49833 48266,49855 48277,49871 L 48317,49924 C 48326,49936 48340,49944 48355,49944 48369,49944 48383,49936 48392,49925 L 48475,49811 C 48486,49796 48483,49775 48468,49764 Z"/>
   </g>
  </g>
  <g class="com.sun.star.drawing.ClosedBezierShape">
   <g id="id15">
    <rect class="BoundingBox" stroke="none" fill="none" x="48691" y="48667" width="484" height="70"/>
    <path fill="rgb(106,84,156)" stroke="none" d="M 48724,48736 L 49141,48736 C 49159,48736 49174,48720 49174,48701 49174,48682 49159,48667 49141,48667 L 48724,48667 C 48706,48667 48691,48682 48691,48701 48691,48720 48706,48736 48724,48736 Z"/>
   </g>
  </g>
  <g class="com.sun.star.drawing.ClosedBezierShape">
   <g id="id16">
    <rect class="BoundingBox" stroke="none" fill="none" x="48691" y="48808" width="276" height="69"/>
    <path fill="rgb(106,84,156)" stroke="none" d="M 48724,48876 L 48932,48876 C 48951,48876 48966,48860 48966,48841 48966,48823 48951,48808 48932,48808 L 48724,48808 C 48706,48808 48691,48823 48691,48841 48691,48860 48706,48876 48724,48876 Z"/>
   </g>
  </g>
  <g class="com.sun.star.drawing.ClosedBezierShape">
   <g id="id17">
    <rect class="BoundingBox" stroke="none" fill="none" x="48691" y="49207" width="347" height="69"/>
    <path fill="rgb(106,84,156)" stroke="none" d="M 48724,49275 L 49004,49275 C 49022,49275 49037,49259 49037,49240 49037,49222 49022,49207 49004,49207 L 48724,49207 C 48706,49207 48691,49222 48691,49240 48691,49259 48706,49275 48724,49275 Z"/>
   </g>
  </g>
  <g class="com.sun.star.drawing.ClosedBezierShape">
   <g id="id18">
    <rect class="BoundingBox" stroke="none" fill="none" x="48691" y="49347" width="276" height="69"/>
    <path fill="rgb(106,84,156)" stroke="none" d="M 48932,49415 C 48951,49415 48966,49399 48966,49381 48966,49362 48951,49347 48932,49347 L 48724,49347 C 48706,49347 48691,49362 48691,49381 48691,49399 48706,49415 48724,49415 L 48932,49415 Z"/>
   </g>
  </g>
  <g class="com.sun.star.drawing.ClosedBezierShape">
   <g id="id19">
    <rect class="BoundingBox" stroke="none" fill="none" x="48161" y="48556" width="432" height="433"/>
    <path fill="rgb(106,84,156)" stroke="none" d="M 48506,48556 L 48246,48556 C 48199,48556 48161,48595 48161,48642 L 48161,48902 C 48161,48949 48199,48987 48246,48987 L 48506,48987 C 48553,48987 48592,48949 48592,48902 L 48592,48642 C 48592,48595 48553,48556 48506,48556 Z M 48524,48902 C 48524,48912 48516,48920 48506,48920 L 48246,48920 C 48236,48920 48228,48912 48228,48902 L 48228,48642 C 48228,48632 48236,48623 48246,48623 L 48506,48623 C 48516,48623 48524,48632 48524,48642 L 48524,48902 Z"/>
   </g>
  </g>
  <g class="com.sun.star.drawing.ClosedBezierShape">
   <g id="id20">
    <rect class="BoundingBox" stroke="none" fill="none" x="48161" y="49096" width="432" height="431"/>
    <path fill="rgb(106,84,156)" stroke="none" d="M 48506,49096 L 48246,49096 C 48199,49096 48161,49134 48161,49181 L 48161,49441 C 48161,49488 48199,49526 48246,49526 L 48506,49526 C 48553,49526 48592,49488 48592,49441 L 48592,49181 C 48592,49134 48553,49096 48506,49096 Z M 48524,49441 C 48524,49451 48516,49459 48506,49459 L 48246,49459 C 48236,49459 48228,49451 48228,49441 L 48228,49181 C 48228,49171 48236,49163 48246,49163 L 48506,49163 C 48516,49163 48524,49171 48524,49181 L 48524,49441 Z"/>
   </g>
  </g>
  <g class="com.sun.star.drawing.ClosedBezierShape">
   <g id="id21">
    <rect class="BoundingBox" stroke="none" fill="none" x="48161" y="49635" width="432" height="433"/>
    <path fill="rgb(106,84,156)" stroke="none" d="M 48506,49635 L 48246,49635 C 48199,49635 48161,49673 48161,49721 L 48161,49980 C 48161,50027 48199,50066 48246,50066 L 48506,50066 C 48553,50066 48592,50027 48592,49980 L 48592,49721 C 48592,49673 48553,49635 48506,49635 Z M 48524,49980 C 48524,49990 48516,49999 48506,49999 L 48246,49999 C 48236,49999 48228,49990 48228,49980 L 48228,49721 C 48228,49710 48236,49702 48246,49702 L 48506,49702 C 48516,49702 48524,49710 48524,49721 L 48524,49980 Z"/>
   </g>
  </g>
  <g class="com.sun.star.drawing.ClosedBezierShape">
   <g id="id22">
    <rect class="BoundingBox" stroke="none" fill="none" x="47855" y="48072" width="1991" height="2296"/>
    <path fill="rgb(106,84,156)" stroke="none" d="M 49788,48647 L 49735,48613 C 49707,48596 49674,48590 49642,48597 49610,48604 49583,48624 49565,48651 L 49516,48729 49448,48836 49372,48957 49372,48453 C 49372,48418 49343,48390 49309,48390 L 49067,48390 49067,48323 49390,48323 C 49417,48323 49439,48344 49439,48371 L 49439,48662 C 49439,48681 49454,48696 49472,48696 49491,48696 49506,48681 49506,48662 L 49506,48371 C 49506,48307 49454,48255 49390,48255 L 49060,48255 C 49046,48222 49013,48199 48975,48199 L 48888,48199 48888,48165 C 48888,48114 48847,48072 48796,48072 L 48564,48072 C 48513,48072 48472,48114 48472,48165 L 48472,48199 48385,48199 C 48347,48199 48314,48222 48300,48255 L 47971,48255 C 47907,48255 47855,48307 47855,48371 L 47855,50251 C 47855,50315 47907,50367 47971,50367 L 49390,50367 C 49454,50367 49506,50315 49506,50251 L 49506,49496 C 49506,49478 49491,49463 49472,49463 49454,49463 49439,49478 49439,49496 L 49439,50251 C 49439,50278 49417,50299 49390,50299 L 47971,50299 C 47944,50299 47922,50278 47922,50251 L 47922,48371 C 47922,48344 47944,48323 47971,48323 L 48293,48323 48293,48390 48053,48390 C 48018,48390 47990,48418 47990,48453 L 47990,50168 C 47990,50204 48018,50232 48053,50232 L 49309,50232 C 49343,50232 49372,50204 49372,50168 L 49372,49534 49709,49001 49777,48894 49826,48816 C 49862,48759 49845,48683 49788,48647 Z M 49657,48663 C 49671,48659 49686,48662 49699,48670 L 49752,48704 C 49778,48720 49785,48754 49769,48780 L 49738,48829 49591,48736 49622,48687 C 49630,48675 49642,48666 49657,48663 Z M 49019,49964 C 49013,49974 49006,49983 48998,49992 48987,49978 48975,49965 48962,49954 L 49589,48965 49634,48993 49019,49964 Z M 48790,50164 L 48789,50164 C 48862,49861 48826,50009 48837,49967 48880,49974 48921,49998 48948,50037 48770,50180 48792,50162 48790,50164 Z M 49555,48793 L 49702,48886 49670,48937 49523,48843 49555,48793 Z M 48361,48291 L 48361,48290 48361,48289 C 48361,48276 48372,48266 48385,48266 L 48481,48266 C 48513,48266 48539,48240 48539,48208 L 48539,48165 C 48539,48151 48550,48139 48564,48139 L 48796,48139 C 48810,48139 48821,48151 48821,48165 L 48821,48208 C 48821,48240 48847,48266 48879,48266 L 48975,48266 C 48988,48266 48999,48276 49000,48289 L 49000,48290 49000,48291 49000,48390 48361,48390 48361,48291 Z M 48057,48457 L 49304,48457 49304,49063 48952,49619 C 48942,49635 48946,49656 48962,49666 48978,49675 48998,49671 49008,49655 L 49487,48900 49533,48929 48905,49918 C 48890,49911 48873,49905 48856,49902 48860,49891 48866,49880 48872,49870 L 48924,49788 C 48934,49772 48930,49751 48914,49742 48898,49732 48878,49736 48868,49752 L 48815,49835 C 48798,49862 48786,49891 48778,49923 L 48724,50147 C 48723,50153 48722,50159 48722,50164 L 48057,50164 48057,48457 Z M 49304,50164 L 48897,50164 49012,50071 C 49037,50051 49059,50027 49076,50000 L 49304,49640 49304,50164 Z"/>
   </g>
  </g>
  <g class="com.sun.star.drawing.ClosedBezierShape">
   <g id="id23">
    <rect class="BoundingBox" stroke="none" fill="none" x="55713" y="48381" width="1667" height="1812"/>
    <path fill="rgb(106,84,156)" stroke="none" d="M 57359,49731 C 57340,49718 57313,49723 57299,49743 57277,49776 57252,49808 57225,49837 57154,49780 57074,49733 56988,49699 56992,49683 56995,49667 56998,49652 57003,49628 56987,49606 56964,49601 56940,49596 56918,49612 56913,49635 56911,49647 56908,49658 56906,49669 56814,49641 56718,49627 56618,49627 56519,49627 56422,49642 56331,49669 56307,49565 56294,49449 56291,49329 L 56775,49329 C 56799,49329 56818,49310 56818,49286 56818,49262 56799,49242 56775,49242 L 56291,49242 C 56294,49113 56310,48989 56336,48878 56432,48909 56534,48925 56639,48925 56730,48925 56818,48913 56903,48890 56907,48905 56910,48920 56913,48936 56918,48959 56940,48974 56964,48970 56987,48965 57002,48943 56998,48919 56994,48900 56990,48881 56986,48863 57071,48831 57152,48788 57224,48734 57250,48763 57275,48794 57297,48827 57311,48847 57338,48852 57357,48838 57377,48825 57382,48798 57369,48778 57200,48529 56919,48381 56618,48381 56119,48381 55713,48787 55713,49286 55713,49786 56119,50192 56618,50192 56920,50192 57202,50042 57371,49791 57384,49771 57379,49744 57359,49731 Z M 57163,49898 C 57065,49985 56948,50047 56822,50080 56880,50010 56930,49909 56966,49783 57037,49813 57103,49851 57163,49898 Z M 56618,49715 C 56710,49715 56800,49728 56885,49754 56823,49968 56722,50105 56618,50105 56539,50105 56458,50023 56396,49879 56379,49840 56365,49799 56352,49754 56437,49728 56526,49715 56618,49715 Z M 56317,49913 C 56345,49980 56378,50036 56414,50080 56286,50047 56170,49984 56075,49898 56134,49851 56200,49813 56270,49783 56284,49829 56299,49873 56317,49913 Z M 56639,48838 C 56542,48838 56448,48823 56359,48795 56370,48759 56382,48725 56396,48693 56458,48550 56539,48467 56618,48467 56720,48467 56819,48599 56881,48806 56804,48827 56722,48838 56639,48838 Z M 56278,48764 C 56213,48736 56152,48699 56096,48655 56188,48580 56296,48523 56414,48493 56378,48536 56345,48592 56317,48659 56302,48692 56289,48727 56278,48764 Z M 56822,48493 C 56947,48525 57063,48586 57161,48672 57100,48716 57034,48752 56963,48779 56927,48658 56879,48561 56822,48493 Z M 56032,48715 C 56099,48770 56174,48814 56254,48848 56225,48968 56208,49102 56205,49243 L 55801,49243 C 55811,49038 55898,48853 56032,48715 Z M 55801,49329 L 56205,49329 C 56208,49459 56223,49585 56248,49699 56163,49733 56083,49780 56013,49837 55889,49702 55811,49524 55801,49329 Z"/>
   </g>
  </g>
  <g class="com.sun.star.drawing.ClosedBezierShape">
   <g id="id24">
    <rect class="BoundingBox" stroke="none" fill="none" x="57036" y="49038" width="306" height="307"/>
    <path fill="rgb(106,84,156)" stroke="none" d="M 57298,49039 C 57153,49039 57036,49157 57036,49301 57036,49325 57055,49344 57079,49344 57103,49344 57123,49325 57123,49301 57123,49205 57202,49126 57298,49126 57322,49126 57341,49107 57341,49083 57341,49059 57322,49039 57298,49039 Z"/>
   </g>
  </g>
  <g class="com.sun.star.drawing.ClosedBezierShape">
   <g id="id25">
    <rect class="BoundingBox" stroke="none" fill="none" x="56908" y="48911" width="1032" height="1033"/>
    <path fill="rgb(106,84,156)" stroke="none" d="M 57927,49759 L 57734,49567 C 57717,49550 57689,49550 57672,49567 57656,49584 57656,49611 57672,49628 L 57835,49789 57786,49838 57546,49599 C 57555,49591 57564,49584 57572,49576 57645,49502 57686,49405 57686,49300 57686,49196 57645,49098 57572,49025 57498,48951 57401,48911 57297,48911 57193,48911 57095,48951 57022,49025 56948,49098 56908,49196 56908,49300 56908,49405 56948,49502 57022,49576 57095,49649 57193,49689 57297,49689 57359,49689 57419,49675 57473,49647 L 57756,49929 C 57764,49938 57775,49942 57786,49942 57797,49942 57808,49938 57817,49929 L 57927,49820 C 57943,49803 57943,49775 57927,49759 Z M 57083,49514 C 57026,49457 56995,49381 56995,49300 56995,49219 57026,49143 57083,49086 57140,49029 57216,48997 57297,48997 57378,48997 57454,49029 57511,49086 57568,49143 57599,49219 57599,49300 57599,49381 57568,49457 57511,49514 57454,49572 57378,49603 57297,49603 57216,49603 57140,49572 57083,49514 Z"/>
   </g>
  </g>
 </g>
</svg>