<?xml version="1.0" encoding="UTF-8"?>
<!DOCTYPE svg PUBLIC "-//W3C//DTD SVG 1.1//EN" "http://www.w3.org/Graphics/SVG/1.1/DTD/svg11.dtd">
<svg version="1.2" width="49.15mm" height="128.23mm" viewBox="20803 51313 4915 12823" preserveAspectRatio="xMidYMid" fill-rule="evenodd" stroke-width="28.222" stroke-linejoin="round" xmlns="http://www.w3.org/2000/svg" xmlns:ooo="http://xml.openoffice.org/svg/export" xmlns:xlink="http://www.w3.org/1999/xlink" xmlns:presentation="http://sun.com/xmlns/staroffice/presentation" xmlns:smil="http://www.w3.org/2001/SMIL20/" xmlns:anim="urn:oasis:names:tc:opendocument:xmlns:animation:1.0" xmlns:svg="urn:oasis:names:tc:opendocument:xmlns:svg-compatible:1.0" xml:space="preserve">
 <defs class="EmbeddedBulletChars">
  <g id="bullet-char-template-57356" transform="scale(0.00048828125,-0.00048828125)">
   <path d="M 580,1141 L 1163,571 580,0 -4,571 580,1141 Z"/>
  </g>
  <g id="bullet-char-template-57354" transform="scale(0.00048828125,-0.00048828125)">
   <path d="M 8,1128 L 1137,1128 1137,0 8,0 8,1128 Z"/>
  </g>
  <g id="bullet-char-template-10146" transform="scale(0.00048828125,-0.00048828125)">
   <path d="M 174,0 L 602,739 174,1481 1456,739 174,0 Z M 1358,739 L 309,1346 659,739 1358,739 Z"/>
  </g>
  <g id="bullet-char-template-10132" transform="scale(0.00048828125,-0.00048828125)">
   <path d="M 2015,739 L 1276,0 717,0 1260,543 174,543 174,936 1260,936 717,1481 1274,1481 2015,739 Z"/>
  </g>
  <g id="bullet-char-template-10007" transform="scale(0.00048828125,-0.00048828125)">
   <path d="M 0,-2 C -7,14 -16,27 -25,37 L 356,567 C 262,823 215,952 215,954 215,979 228,992 255,992 264,992 276,990 289,987 310,991 331,999 354,1012 L 381,999 492,748 772,1049 836,1024 860,1049 C 881,1039 901,1025 922,1006 886,937 835,863 770,784 769,783 710,716 594,584 L 774,223 C 774,196 753,168 711,139 L 727,119 C 717,90 699,76 672,76 641,76 570,178 457,381 L 164,-76 C 142,-110 111,-127 72,-127 30,-127 9,-110 8,-76 1,-67 -2,-52 -2,-32 -2,-23 -1,-13 0,-2 Z"/>
  </g>
  <g id="bullet-char-template-10004" transform="scale(0.00048828125,-0.00048828125)">
   <path d="M 285,-33 C 182,-33 111,30 74,156 52,228 41,333 41,471 41,549 55,616 82,672 116,743 169,778 240,778 293,778 328,747 346,684 L 369,508 C 377,444 397,411 428,410 L 1163,1116 C 1174,1127 1196,1133 1229,1133 1271,1133 1292,1118 1292,1087 L 1292,965 C 1292,929 1282,901 1262,881 L 442,47 C 390,-6 338,-33 285,-33 Z"/>
  </g>
  <g id="bullet-char-template-9679" transform="scale(0.00048828125,-0.00048828125)">
   <path d="M 813,0 C 632,0 489,54 383,161 276,268 223,411 223,592 223,773 276,916 383,1023 489,1130 632,1184 813,1184 992,1184 1136,1130 1245,1023 1353,916 1407,772 1407,592 1407,412 1353,268 1245,161 1136,54 992,0 813,0 Z"/>
  </g>
  <g id="bullet-char-template-8226" transform="scale(0.00048828125,-0.00048828125)">
   <path d="M 346,457 C 273,457 209,483 155,535 101,586 74,649 74,723 74,796 101,859 155,911 209,963 273,989 346,989 419,989 480,963 531,910 582,859 608,796 608,723 608,648 583,586 532,535 482,483 420,457 346,457 Z"/>
  </g>
  <g id="bullet-char-template-8211" transform="scale(0.00048828125,-0.00048828125)">
   <path d="M -4,459 L 1135,459 1135,606 -4,606 -4,459 Z"/>
  </g>
  <g id="bullet-char-template-61548" transform="scale(0.00048828125,-0.00048828125)">
   <path d="M 173,740 C 173,903 231,1043 346,1159 462,1274 601,1332 765,1332 928,1332 1067,1274 1183,1159 1299,1043 1357,903 1357,740 1357,577 1299,437 1183,322 1067,206 928,148 765,148 601,148 462,206 346,322 231,437 173,577 173,740 Z"/>
  </g>
 </defs>
 <g class="Page">
  <g class="com.sun.star.drawing.ClosedBezierShape">
   <g id="id3">
    <rect class="BoundingBox" stroke="none" fill="none" x="20803" y="51313" width="4915" height="12823"/>
    <path fill="rgb(106,84,156)" stroke="none" d="M 24876,55630 C 24174,56365 23822,57042 23821,57720 23820,58437 24212,59155 24997,59939 25008,59950 25018,59961 25028,59972 L 25039,59982 C 25467,60430 25709,61024 25717,61645 L 25717,61708 C 25709,62349 25451,62961 24997,63413 24976,63434 24955,63456 24934,63477 24486,63894 23899,64130 23286,64135 L 23228,64135 C 22584,64127 22001,63871 21568,63460 21567,63458 21565,63457 21564,63457 21551,63442 21536,63428 21522,63413 21409,63300 21307,63178 21219,63046 21208,63030 21197,63013 21187,62997 21176,62980 21166,62964 21156,62947 21145,62930 21135,62913 21126,62896 21116,62878 21106,62862 21097,62844 21087,62827 21078,62809 21069,62792 21007,62670 20955,62543 20914,62410 20902,62372 20891,62335 20881,62297 20876,62278 20871,62259 20867,62239 20863,62220 20858,62201 20854,62182 20852,62169 20849,62155 20847,62142 20844,62130 20842,62118 20840,62106 20838,62092 20836,62079 20833,62065 20829,62039 20825,62014 20822,61988 20822,61984 20821,61980 20821,61976 20819,61961 20817,61947 20816,61932 20816,61930 20815,61928 20815,61927 20814,61913 20812,61900 20812,61887 20810,61871 20809,61855 20808,61839 20807,61829 20807,61818 20806,61808 20806,61805 20806,61802 20806,61799 L 20806,61798 C 20805,61779 20804,61761 20804,61743 20803,61731 20803,61720 20803,61708 L 20803,61647 C 20803,61624 20804,61602 20804,61580 20806,61542 20808,61503 20812,61466 20812,61458 20813,61450 20814,61442 20815,61427 20817,61413 20818,61399 20823,61359 20828,61319 20835,61280 20841,61241 20848,61202 20856,61163 20868,61106 20883,61049 20900,60992 20912,60950 20925,60910 20939,60869 20945,60854 20950,60838 20956,60823 20967,60794 20978,60765 20990,60736 21002,60708 21014,60680 21027,60653 21033,60638 21040,60624 21047,60610 21166,60363 21325,60136 21522,59939 22306,59155 22698,58437 22697,57720 22696,57013 22313,56306 21548,55534 21539,55525 21531,55516 21522,55507 21067,55054 20808,54439 20803,53796 L 20803,53738 C 20818,52560 21660,51587 22769,51362 22828,51350 22888,51340 22950,51332 22970,51330 22990,51327 23010,51325 23033,51323 23056,51321 23078,51320 L 23129,51317 C 23132,51316 23135,51316 23138,51316 23176,51314 23213,51313 23252,51313 L 23291,51313 C 23313,51314 23335,51314 23357,51315 24659,51367 25700,52428 25717,53738 L 25717,53796 C 25711,54439 25452,55054 24997,55507 24956,55548 24916,55589 24878,55629 24877,55629 24877,55630 24876,55630 Z"/>
   </g>
  </g>
  <g class="com.sun.star.drawing.PolyPolygonShape">
   <g id="id4">
    <rect class="BoundingBox" stroke="none" fill="none" x="22943" y="57370" width="632" height="549"/>
    <path fill="rgb(255,255,255)" stroke="none" d="M 23258,57918 L 23574,57371 22943,57371 23258,57918 Z"/>
   </g>
  </g>
 </g>
</svg>