<?xml version="1.0" encoding="UTF-8"?>
<!DOCTYPE svg PUBLIC "-//W3C//DTD SVG 1.1//EN" "http://www.w3.org/Graphics/SVG/1.1/DTD/svg11.dtd">
<svg version="1.2" width="128.51mm" height="49.15mm" viewBox="39687 53188 12851 4915" preserveAspectRatio="xMidYMid" fill-rule="evenodd" stroke-width="28.222" stroke-linejoin="round" xmlns="http://www.w3.org/2000/svg" xmlns:ooo="http://xml.openoffice.org/svg/export" xmlns:xlink="http://www.w3.org/1999/xlink" xmlns:presentation="http://sun.com/xmlns/staroffice/presentation" xmlns:smil="http://www.w3.org/2001/SMIL20/" xmlns:anim="urn:oasis:names:tc:opendocument:xmlns:animation:1.0" xmlns:svg="urn:oasis:names:tc:opendocument:xmlns:svg-compatible:1.0" xml:space="preserve">
 <defs class="EmbeddedBulletChars">
  <g id="bullet-char-template-57356" transform="scale(0.00048828125,-0.00048828125)">
   <path d="M 580,1141 L 1163,571 580,0 -4,571 580,1141 Z"/>
  </g>
  <g id="bullet-char-template-57354" transform="scale(0.00048828125,-0.00048828125)">
   <path d="M 8,1128 L 1137,1128 1137,0 8,0 8,1128 Z"/>
  </g>
  <g id="bullet-char-template-10146" transform="scale(0.00048828125,-0.00048828125)">
   <path d="M 174,0 L 602,739 174,1481 1456,739 174,0 Z M 1358,739 L 309,1346 659,739 1358,739 Z"/>
  </g>
  <g id="bullet-char-template-10132" transform="scale(0.00048828125,-0.00048828125)">
   <path d="M 2015,739 L 1276,0 717,0 1260,543 174,543 174,936 1260,936 717,1481 1274,1481 2015,739 Z"/>
  </g>
  <g id="bullet-char-template-10007" transform="scale(0.00048828125,-0.00048828125)">
   <path d="M 0,-2 C -7,14 -16,27 -25,37 L 356,567 C 262,823 215,952 215,954 215,979 228,992 255,992 264,992 276,990 289,987 310,991 331,999 354,1012 L 381,999 492,748 772,1049 836,1024 860,1049 C 881,1039 901,1025 922,1006 886,937 835,863 770,784 769,783 710,716 594,584 L 774,223 C 774,196 753,168 711,139 L 727,119 C 717,90 699,76 672,76 641,76 570,178 457,381 L 164,-76 C 142,-110 111,-127 72,-127 30,-127 9,-110 8,-76 1,-67 -2,-52 -2,-32 -2,-23 -1,-13 0,-2 Z"/>
  </g>
  <g id="bullet-char-template-10004" transform="scale(0.00048828125,-0.00048828125)">
   <path d="M 285,-33 C 182,-33 111,30 74,156 52,228 41,333 41,471 41,549 55,616 82,672 116,743 169,778 240,778 293,778 328,747 346,684 L 369,508 C 377,444 397,411 428,410 L 1163,1116 C 1174,1127 1196,1133 1229,1133 1271,1133 1292,1118 1292,1087 L 1292,965 C 1292,929 1282,901 1262,881 L 442,47 C 390,-6 338,-33 285,-33 Z"/>
  </g>
  <g id="bullet-char-template-9679" transform="scale(0.00048828125,-0.00048828125)">
   <path d="M 813,0 C 632,0 489,54 383,161 276,268 223,411 223,592 223,773 276,916 383,1023 489,1130 632,1184 813,1184 992,1184 1136,1130 1245,1023 1353,916 1407,772 1407,592 1407,412 1353,268 1245,161 1136,54 992,0 813,0 Z"/>
  </g>
  <g id="bullet-char-template-8226" transform="scale(0.00048828125,-0.00048828125)">
   <path d="M 346,457 C 273,457 209,483 155,535 101,586 74,649 74,723 74,796 101,859 155,911 209,963 273,989 346,989 419,989 480,963 531,910 582,859 608,796 608,723 608,648 583,586 532,535 482,483 420,457 346,457 Z"/>
  </g>
  <g id="bullet-char-template-8211" transform="scale(0.00048828125,-0.00048828125)">
   <path d="M -4,459 L 1135,459 1135,606 -4,606 -4,459 Z"/>
  </g>
  <g id="bullet-char-template-61548" transform="scale(0.00048828125,-0.00048828125)">
   <path d="M 173,740 C 173,903 231,1043 346,1159 462,1274 601,1332 765,1332 928,1332 1067,1274 1183,1159 1299,1043 1357,903 1357,740 1357,577 1299,437 1183,322 1067,206 928,148 765,148 601,148 462,206 346,322 231,437 173,577 173,740 Z"/>
  </g>
 </defs>
 <g class="Page">
  <g class="com.sun.star.drawing.ClosedBezierShape">
   <g id="id3">
    <rect class="BoundingBox" stroke="none" fill="none" x="39687" y="53188" width="12851" height="4915"/>
    <path fill="rgb(106,84,156)" stroke="none" d="M 52537,55612 L 52537,55670 C 52531,56228 52335,56763 51986,57191 51920,57252 51854,57316 51787,57382 51335,57836 50723,58094 50082,58102 L 50018,58102 C 49484,58095 48970,57915 48552,57592 48468,57528 48388,57458 48313,57382 47529,56598 46812,56206 46095,56207 45388,56208 44680,56591 43907,57357 43899,57365 43890,57373 43881,57382 43860,57403 43839,57424 43817,57444 43370,57861 42783,58097 42170,58102 L 42112,58102 C 41468,58094 40885,57838 40452,57427 40451,57425 40449,57424 40448,57424 40348,57328 40256,57223 40172,57111 40149,57079 40126,57046 40103,57013 40092,56997 40081,56980 40071,56964 40060,56947 40050,56931 40040,56914 40029,56897 40019,56880 40010,56863 40000,56845 39990,56829 39981,56811 39971,56794 39962,56776 39953,56759 39891,56637 39839,56510 39798,56377 39786,56339 39775,56301 39765,56264 39760,56245 39755,56226 39751,56206 39747,56187 39742,56168 39738,56148 39737,56143 39737,56139 39735,56134 39734,56126 39732,56117 39731,56108 39728,56096 39726,56084 39724,56072 39722,56058 39720,56045 39717,56031 39713,56005 39709,55979 39706,55954 39706,55950 39705,55946 39705,55942 39703,55927 39701,55913 39700,55898 39700,55896 39699,55894 39699,55893 39698,55879 39696,55866 39696,55853 39695,55843 39694,55834 39693,55825 39693,55818 39692,55812 39692,55805 39691,55795 39691,55784 39690,55774 39690,55771 39690,55768 39690,55765 L 39690,55763 C 39689,55745 39688,55727 39688,55709 39687,55690 39687,55670 39687,55652 L 39687,55613 C 39687,55590 39688,55568 39688,55546 39690,55508 39692,55469 39696,55432 39696,55424 39697,55416 39698,55408 39699,55393 39701,55379 39702,55365 39707,55325 39712,55285 39719,55246 39725,55207 39732,55168 39740,55129 39753,55071 39767,55014 39784,54958 40078,53944 41007,53202 42112,53188 L 42170,53188 C 42813,53194 43427,53452 43881,53907 43891,53918 43901,53928 43911,53938 L 43922,53948 C 43949,53974 43976,54000 44004,54026 44004,54027 44005,54027 44005,54027 44740,54729 45417,55081 46095,55082 46811,55083 47529,54692 48313,53907 48765,53453 49378,53195 50018,53188 L 50085,53188 C 50724,53195 51335,53454 51787,53907 51861,53981 51933,54051 52006,54117 52332,54528 52530,55047 52537,55612 Z"/>
   </g>
  </g>
  <g class="com.sun.star.drawing.PolyPolygonShape">
   <g id="id4">
    <rect class="BoundingBox" stroke="none" fill="none" x="45838" y="55329" width="548" height="632"/>
    <path fill="rgb(255,255,255)" stroke="none" d="M 46385,55645 L 45838,55329 45838,55960 46385,55645 Z"/>
   </g>
  </g>
 </g>
</svg>