<?xml version="1.0" encoding="UTF-8"?>
<!DOCTYPE svg PUBLIC "-//W3C//DTD SVG 1.1//EN" "http://www.w3.org/Graphics/SVG/1.1/DTD/svg11.dtd">
<svg version="1.2" width="36.59mm" height="36.59mm" viewBox="44217 66978 3659 3659" preserveAspectRatio="xMidYMid" fill-rule="evenodd" stroke-width="28.222" stroke-linejoin="round" xmlns="http://www.w3.org/2000/svg" xmlns:ooo="http://xml.openoffice.org/svg/export" xmlns:xlink="http://www.w3.org/1999/xlink" xmlns:presentation="http://sun.com/xmlns/staroffice/presentation" xmlns:smil="http://www.w3.org/2001/SMIL20/" xmlns:anim="urn:oasis:names:tc:opendocument:xmlns:animation:1.0" xmlns:svg="urn:oasis:names:tc:opendocument:xmlns:svg-compatible:1.0" xml:space="preserve">
 <defs class="EmbeddedBulletChars">
  <g id="bullet-char-template-57356" transform="scale(0.00048828125,-0.00048828125)">
   <path d="M 580,1141 L 1163,571 580,0 -4,571 580,1141 Z"/>
  </g>
  <g id="bullet-char-template-57354" transform="scale(0.00048828125,-0.00048828125)">
   <path d="M 8,1128 L 1137,1128 1137,0 8,0 8,1128 Z"/>
  </g>
  <g id="bullet-char-template-10146" transform="scale(0.00048828125,-0.00048828125)">
   <path d="M 174,0 L 602,739 174,1481 1456,739 174,0 Z M 1358,739 L 309,1346 659,739 1358,739 Z"/>
  </g>
  <g id="bullet-char-template-10132" transform="scale(0.00048828125,-0.00048828125)">
   <path d="M 2015,739 L 1276,0 717,0 1260,543 174,543 174,936 1260,936 717,1481 1274,1481 2015,739 Z"/>
  </g>
  <g id="bullet-char-template-10007" transform="scale(0.00048828125,-0.00048828125)">
   <path d="M 0,-2 C -7,14 -16,27 -25,37 L 356,567 C 262,823 215,952 215,954 215,979 228,992 255,992 264,992 276,990 289,987 310,991 331,999 354,1012 L 381,999 492,748 772,1049 836,1024 860,1049 C 881,1039 901,1025 922,1006 886,937 835,863 770,784 769,783 710,716 594,584 L 774,223 C 774,196 753,168 711,139 L 727,119 C 717,90 699,76 672,76 641,76 570,178 457,381 L 164,-76 C 142,-110 111,-127 72,-127 30,-127 9,-110 8,-76 1,-67 -2,-52 -2,-32 -2,-23 -1,-13 0,-2 Z"/>
  </g>
  <g id="bullet-char-template-10004" transform="scale(0.00048828125,-0.00048828125)">
   <path d="M 285,-33 C 182,-33 111,30 74,156 52,228 41,333 41,471 41,549 55,616 82,672 116,743 169,778 240,778 293,778 328,747 346,684 L 369,508 C 377,444 397,411 428,410 L 1163,1116 C 1174,1127 1196,1133 1229,1133 1271,1133 1292,1118 1292,1087 L 1292,965 C 1292,929 1282,901 1262,881 L 442,47 C 390,-6 338,-33 285,-33 Z"/>
  </g>
  <g id="bullet-char-template-9679" transform="scale(0.00048828125,-0.00048828125)">
   <path d="M 813,0 C 632,0 489,54 383,161 276,268 223,411 223,592 223,773 276,916 383,1023 489,1130 632,1184 813,1184 992,1184 1136,1130 1245,1023 1353,916 1407,772 1407,592 1407,412 1353,268 1245,161 1136,54 992,0 813,0 Z"/>
  </g>
  <g id="bullet-char-template-8226" transform="scale(0.00048828125,-0.00048828125)">
   <path d="M 346,457 C 273,457 209,483 155,535 101,586 74,649 74,723 74,796 101,859 155,911 209,963 273,989 346,989 419,989 480,963 531,910 582,859 608,796 608,723 608,648 583,586 532,535 482,483 420,457 346,457 Z"/>
  </g>
  <g id="bullet-char-template-8211" transform="scale(0.00048828125,-0.00048828125)">
   <path d="M -4,459 L 1135,459 1135,606 -4,606 -4,459 Z"/>
  </g>
  <g id="bullet-char-template-61548" transform="scale(0.00048828125,-0.00048828125)">
   <path d="M 173,740 C 173,903 231,1043 346,1159 462,1274 601,1332 765,1332 928,1332 1067,1274 1183,1159 1299,1043 1357,903 1357,740 1357,577 1299,437 1183,322 1067,206 928,148 765,148 601,148 462,206 346,322 231,437 173,577 173,740 Z"/>
  </g>
 </defs>
 <g class="Page">
  <g class="com.sun.star.drawing.PolyPolygonShape">
   <g id="id3">
    <rect class="BoundingBox" stroke="none" fill="none" x="44217" y="66978" width="3659" height="3657"/>
    <path fill="rgb(235,234,234)" stroke="none" d="M 47875,70632 L 44217,66978 44217,66980 47875,70634 47875,70632 Z"/>
   </g>
  </g>
  <g class="com.sun.star.drawing.PolyPolygonShape">
   <g id="id4">
    <rect class="BoundingBox" stroke="none" fill="none" x="44217" y="66980" width="3659" height="3657"/>
    <path fill="rgb(235,234,234)" stroke="none" d="M 47875,70634 L 44217,66980 44217,66982 47875,70636 47875,70634 Z"/>
   </g>
  </g>
  <g class="com.sun.star.drawing.ClosedBezierShape">
   <g id="id5">
    <rect class="BoundingBox" stroke="none" fill="none" x="44294" y="67060" width="3502" height="3502"/>
    <path fill="rgb(249,249,249)" stroke="none" d="M 46044,67060 C 46101,67060 46158,67063 46216,67069 46273,67074 46329,67083 46385,67094 46442,67105 46497,67119 46552,67136 46607,67152 46661,67172 46714,67194 46767,67216 46818,67240 46869,67267 46919,67294 46969,67323 47016,67355 47064,67387 47110,67421 47154,67458 47198,67494 47242,67532 47282,67573 47323,67613 47361,67656 47398,67700 47434,67745 47468,67790 47500,67838 47532,67886 47561,67935 47588,67985 47615,68036 47640,68088 47662,68141 47684,68194 47703,68249 47720,68303 47736,68358 47750,68414 47761,68470 47772,68526 47781,68583 47786,68640 47792,68697 47795,68754 47795,68811 47795,68869 47792,68926 47786,68983 47781,69040 47772,69097 47761,69153 47750,69209 47736,69264 47720,69319 47703,69374 47684,69428 47662,69481 47640,69534 47615,69586 47588,69636 47561,69687 47532,69736 47500,69784 47468,69831 47434,69877 47398,69921 47361,69966 47323,70008 47282,70049 47242,70089 47198,70128 47154,70164 47110,70200 47064,70234 47016,70266 46969,70298 46919,70328 46869,70355 46818,70382 46767,70406 46714,70428 46661,70450 46607,70469 46552,70486 46497,70503 46442,70516 46385,70528 46329,70539 46273,70547 46216,70553 46158,70558 46101,70561 46044,70561 45987,70561 45930,70558 45872,70553 45815,70547 45759,70539 45703,70528 45646,70516 45591,70503 45536,70486 45481,70469 45427,70450 45374,70428 45321,70406 45270,70382 45219,70355 45169,70328 45119,70298 45072,70266 45024,70234 44978,70200 44934,70164 44890,70128 44847,70089 44807,70049 44766,70008 44728,69966 44691,69921 44655,69877 44621,69831 44589,69784 44557,69736 44528,69687 44501,69636 44474,69586 44449,69534 44427,69481 44405,69428 44386,69374 44369,69319 44353,69264 44339,69209 44328,69153 44317,69097 44308,69040 44303,68983 44297,68926 44294,68869 44294,68811 44294,68754 44297,68697 44303,68640 44308,68583 44317,68526 44328,68470 44339,68414 44353,68358 44369,68303 44386,68249 44405,68194 44427,68141 44449,68088 44474,68036 44501,67985 44528,67935 44557,67886 44589,67838 44621,67790 44655,67745 44691,67700 44728,67656 44766,67613 44807,67573 44847,67532 44890,67494 44934,67458 44978,67421 45024,67387 45072,67355 45119,67323 45169,67294 45219,67267 45270,67240 45321,67216 45374,67194 45427,67172 45481,67152 45536,67136 45591,67119 45646,67105 45703,67094 45759,67083 45815,67074 45872,67069 45930,67063 45987,67060 46044,67060 Z"/>
   </g>
  </g>
  <g class="com.sun.star.drawing.ClosedBezierShape">
   <g id="id6">
    <rect class="BoundingBox" stroke="none" fill="none" x="44880" y="67610" width="2461" height="2462"/>
    <path fill="rgb(106,84,156)" stroke="none" d="M 47263,68605 L 47116,68605 C 47113,68605 47111,68604 47111,68602 47086,68496 47044,68396 46987,68303 46986,68301 46986,68298 46987,68297 L 47092,68192 C 47107,68177 47115,68158 47115,68138 47115,68117 47107,68098 47092,68083 L 46868,67859 C 46853,67845 46834,67837 46814,67837 46793,67837 46774,67845 46759,67859 L 46655,67964 C 46653,67965 46650,67966 46648,67964 46556,67907 46455,67866 46350,67841 46347,67840 46346,67838 46346,67836 L 46346,67688 C 46346,67646 46311,67610 46269,67610 L 45952,67610 C 45910,67610 45875,67646 45875,67688 L 45875,67836 C 45875,67838 45874,67840 45872,67841 45766,67866 45665,67907 45573,67964 45571,67966 45568,67965 45566,67964 L 45461,67859 C 45446,67845 45427,67837 45407,67837 45386,67837 45367,67845 45352,67859 L 45128,68083 C 45114,68098 45106,68117 45106,68138 45106,68158 45114,68177 45128,68192 L 45233,68297 C 45234,68298 45235,68301 45233,68303 45176,68396 45135,68496 45109,68602 45109,68604 45107,68605 45104,68605 L 44957,68605 C 44914,68605 44880,68640 44880,68682 L 44880,68999 C 44880,69042 44914,69076 44957,69076 L 45104,69076 C 45107,69076 45109,69078 45109,69080 45135,69185 45176,69286 45233,69379 45235,69381 45234,69383 45233,69385 L 45128,69489 C 45114,69504 45106,69523 45106,69544 45106,69564 45114,69584 45128,69598 L 45352,69822 C 45367,69837 45386,69845 45407,69845 45427,69845 45446,69837 45461,69822 L 45566,69718 C 45568,69716 45571,69716 45573,69717 45665,69774 45766,69816 45872,69841 45874,69841 45875,69843 45875,69846 L 45875,69993 C 45875,70036 45910,70070 45952,70070 L 46269,70070 C 46311,70070 46346,70036 46346,69993 L 46346,69846 C 46346,69843 46347,69841 46350,69841 46455,69816 46556,69774 46648,69717 46650,69716 46653,69716 46655,69718 L 46759,69822 C 46774,69837 46793,69845 46814,69845 46834,69845 46853,69837 46868,69822 L 46921,69769 C 46935,69755 46935,69733 46921,69718 46907,69704 46884,69704 46870,69718 L 46817,69771 C 46816,69773 46815,69773 46814,69773 46813,69773 46811,69773 46810,69771 L 46705,69667 C 46680,69642 46641,69637 46611,69656 46524,69709 46431,69748 46333,69771 46298,69779 46274,69810 46274,69846 L 46274,69993 C 46274,69996 46272,69998 46269,69998 L 45952,69998 C 45949,69998 45947,69996 45947,69993 L 45947,69846 C 45947,69810 45923,69779 45888,69771 45790,69748 45697,69709 45610,69656 45580,69637 45541,69642 45516,69667 L 45410,69771 C 45409,69773 45407,69773 45407,69773 45406,69773 45404,69773 45403,69771 L 45179,69547 C 45178,69546 45177,69545 45177,69544 45177,69543 45178,69541 45179,69540 L 45283,69436 C 45309,69410 45313,69371 45294,69341 45241,69255 45203,69161 45179,69063 45171,69028 45140,69004 45104,69004 L 44957,69004 C 44954,69004 44952,69002 44952,68999 L 44952,68682 C 44952,68679 44954,68677 44957,68677 L 45104,68677 C 45140,68677 45171,68653 45179,68618 45203,68520 45241,68427 45294,68341 45313,68310 45309,68271 45283,68246 L 45179,68141 C 45178,68140 45177,68139 45177,68138 45177,68137 45178,68135 45179,68134 L 45403,67910 C 45404,67909 45406,67909 45407,67909 45407,67909 45409,67909 45410,67910 L 45516,68015 C 45541,68040 45580,68044 45610,68026 45697,67973 45790,67934 45888,67910 45923,67902 45947,67871 45947,67836 L 45947,67688 C 45947,67685 45949,67683 45952,67683 L 46269,67683 C 46272,67683 46274,67685 46274,67688 L 46274,67836 C 46274,67871 46298,67902 46333,67910 46431,67934 46524,67973 46611,68026 46641,68044 46680,68040 46705,68015 L 46810,67910 C 46811,67909 46813,67909 46814,67909 46815,67909 46816,67909 46817,67910 L 47041,68134 C 47042,68135 47043,68137 47043,68138 47043,68139 47042,68140 47041,68141 L 46937,68246 C 46911,68271 46907,68310 46926,68341 46979,68427 47017,68520 47041,68618 47049,68653 47080,68677 47116,68677 L 47263,68677 C 47266,68677 47268,68679 47268,68682 L 47268,68999 C 47268,69002 47266,69004 47263,69004 L 47116,69004 C 47080,69004 47049,69028 47041,69063 47017,69161 46979,69255 46926,69341 46907,69371 46911,69410 46937,69436 L 47041,69540 C 47042,69541 47043,69543 47043,69544 47043,69545 47042,69546 47041,69547 L 46988,69601 C 46974,69615 46974,69637 46988,69652 47002,69666 47025,69666 47039,69652 L 47092,69598 C 47107,69584 47115,69564 47115,69544 47115,69523 47107,69504 47092,69489 L 46987,69385 C 46986,69383 46986,69381 46987,69379 47044,69286 47086,69185 47111,69080 47111,69078 47113,69076 47116,69076 L 47263,69076 C 47306,69076 47340,69042 47340,68999 L 47340,68682 C 47340,68640 47306,68605 47263,68605 Z"/>
   </g>
  </g>
  <g class="com.sun.star.drawing.ClosedBezierShape">
   <g id="id7">
    <rect class="BoundingBox" stroke="none" fill="none" x="45339" y="68069" width="1543" height="1543"/>
    <path fill="rgb(106,84,156)" stroke="none" d="M 45388,68697 C 45368,68694 45350,68707 45347,68727 45342,68764 45339,68803 45339,68841 45339,69266 45686,69611 46111,69611 46536,69611 46881,69266 46881,68841 46881,68415 46536,68069 46111,68069 45953,68069 45802,68116 45673,68205 45547,68292 45450,68413 45393,68555 L 45392,68559 C 45384,68578 45393,68599 45412,68606 45430,68614 45451,68604 45459,68586 L 45461,68582 C 45512,68453 45600,68343 45714,68264 45831,68183 45968,68141 46111,68141 46496,68141 46809,68454 46809,68841 46809,69226 46496,69540 46111,69540 45725,69540 45411,69226 45411,68841 45411,68806 45413,68771 45418,68738 45421,68718 45408,68700 45388,68697 Z"/>
   </g>
  </g>
  <g class="com.sun.star.drawing.ClosedBezierShape">
   <g id="id8">
    <rect class="BoundingBox" stroke="none" fill="none" x="45654" y="68467" width="914" height="749"/>
    <path fill="rgb(106,84,156)" stroke="none" d="M 46008,69214 C 46010,69214 46011,69214 46013,69214 46054,69213 46094,69194 46122,69164 L 46525,68727 C 46553,68696 46568,68657 46566,68615 46564,68574 46547,68536 46516,68508 46453,68450 46355,68454 46297,68516 L 46001,68836 45917,68754 C 45855,68695 45757,68697 45698,68758 45638,68820 45640,68918 45701,68977 L 45900,69170 C 45929,69198 45967,69214 46008,69214 Z M 45749,68808 C 45765,68791 45787,68783 45809,68783 45830,68783 45851,68791 45867,68806 L 45978,68913 C 45985,68920 45994,68924 46004,68923 46014,68923 46023,68919 46030,68912 L 46350,68565 C 46381,68531 46434,68529 46468,68560 46484,68576 46493,68596 46494,68618 46495,68641 46487,68662 46472,68678 L 46070,69115 C 46055,69132 46033,69141 46011,69142 45987,69143 45966,69134 45950,69119 L 45751,68926 C 45718,68894 45717,68841 45749,68808 Z"/>
   </g>
  </g>
 </g>
</svg>