<?xml version="1.0" encoding="UTF-8"?>
<!DOCTYPE svg PUBLIC "-//W3C//DTD SVG 1.1//EN" "http://www.w3.org/Graphics/SVG/1.1/DTD/svg11.dtd">
<svg version="1.2" width="36.59mm" height="36.59mm" viewBox="20529 51166 3659 3659" preserveAspectRatio="xMidYMid" fill-rule="evenodd" stroke-width="28.222" stroke-linejoin="round" xmlns="http://www.w3.org/2000/svg" xmlns:ooo="http://xml.openoffice.org/svg/export" xmlns:xlink="http://www.w3.org/1999/xlink" xmlns:presentation="http://sun.com/xmlns/staroffice/presentation" xmlns:smil="http://www.w3.org/2001/SMIL20/" xmlns:anim="urn:oasis:names:tc:opendocument:xmlns:animation:1.0" xmlns:svg="urn:oasis:names:tc:opendocument:xmlns:svg-compatible:1.0" xml:space="preserve">
 <defs class="EmbeddedBulletChars">
  <g id="bullet-char-template-57356" transform="scale(0.00048828125,-0.00048828125)">
   <path d="M 580,1141 L 1163,571 580,0 -4,571 580,1141 Z"/>
  </g>
  <g id="bullet-char-template-57354" transform="scale(0.00048828125,-0.00048828125)">
   <path d="M 8,1128 L 1137,1128 1137,0 8,0 8,1128 Z"/>
  </g>
  <g id="bullet-char-template-10146" transform="scale(0.00048828125,-0.00048828125)">
   <path d="M 174,0 L 602,739 174,1481 1456,739 174,0 Z M 1358,739 L 309,1346 659,739 1358,739 Z"/>
  </g>
  <g id="bullet-char-template-10132" transform="scale(0.00048828125,-0.00048828125)">
   <path d="M 2015,739 L 1276,0 717,0 1260,543 174,543 174,936 1260,936 717,1481 1274,1481 2015,739 Z"/>
  </g>
  <g id="bullet-char-template-10007" transform="scale(0.00048828125,-0.00048828125)">
   <path d="M 0,-2 C -7,14 -16,27 -25,37 L 356,567 C 262,823 215,952 215,954 215,979 228,992 255,992 264,992 276,990 289,987 310,991 331,999 354,1012 L 381,999 492,748 772,1049 836,1024 860,1049 C 881,1039 901,1025 922,1006 886,937 835,863 770,784 769,783 710,716 594,584 L 774,223 C 774,196 753,168 711,139 L 727,119 C 717,90 699,76 672,76 641,76 570,178 457,381 L 164,-76 C 142,-110 111,-127 72,-127 30,-127 9,-110 8,-76 1,-67 -2,-52 -2,-32 -2,-23 -1,-13 0,-2 Z"/>
  </g>
  <g id="bullet-char-template-10004" transform="scale(0.00048828125,-0.00048828125)">
   <path d="M 285,-33 C 182,-33 111,30 74,156 52,228 41,333 41,471 41,549 55,616 82,672 116,743 169,778 240,778 293,778 328,747 346,684 L 369,508 C 377,444 397,411 428,410 L 1163,1116 C 1174,1127 1196,1133 1229,1133 1271,1133 1292,1118 1292,1087 L 1292,965 C 1292,929 1282,901 1262,881 L 442,47 C 390,-6 338,-33 285,-33 Z"/>
  </g>
  <g id="bullet-char-template-9679" transform="scale(0.00048828125,-0.00048828125)">
   <path d="M 813,0 C 632,0 489,54 383,161 276,268 223,411 223,592 223,773 276,916 383,1023 489,1130 632,1184 813,1184 992,1184 1136,1130 1245,1023 1353,916 1407,772 1407,592 1407,412 1353,268 1245,161 1136,54 992,0 813,0 Z"/>
  </g>
  <g id="bullet-char-template-8226" transform="scale(0.00048828125,-0.00048828125)">
   <path d="M 346,457 C 273,457 209,483 155,535 101,586 74,649 74,723 74,796 101,859 155,911 209,963 273,989 346,989 419,989 480,963 531,910 582,859 608,796 608,723 608,648 583,586 532,535 482,483 420,457 346,457 Z"/>
  </g>
  <g id="bullet-char-template-8211" transform="scale(0.00048828125,-0.00048828125)">
   <path d="M -4,459 L 1135,459 1135,606 -4,606 -4,459 Z"/>
  </g>
  <g id="bullet-char-template-61548" transform="scale(0.00048828125,-0.00048828125)">
   <path d="M 173,740 C 173,903 231,1043 346,1159 462,1274 601,1332 765,1332 928,1332 1067,1274 1183,1159 1299,1043 1357,903 1357,740 1357,577 1299,437 1183,322 1067,206 928,148 765,148 601,148 462,206 346,322 231,437 173,577 173,740 Z"/>
  </g>
 </defs>
 <g class="Page">
  <g class="com.sun.star.drawing.PolyPolygonShape">
   <g id="id3">
    <rect class="BoundingBox" stroke="none" fill="none" x="20529" y="51166" width="3659" height="3657"/>
    <path fill="rgb(235,234,234)" stroke="none" d="M 24187,54819 L 20529,51166 20529,51168 24187,54822 24187,54819 Z"/>
   </g>
  </g>
  <g class="com.sun.star.drawing.PolyPolygonShape">
   <g id="id4">
    <rect class="BoundingBox" stroke="none" fill="none" x="20529" y="51168" width="3659" height="3657"/>
    <path fill="rgb(235,234,234)" stroke="none" d="M 24187,54822 L 20529,51168 20529,51170 24187,54824 24187,54822 Z"/>
   </g>
  </g>
  <g class="com.sun.star.drawing.ClosedBezierShape">
   <g id="id5">
    <rect class="BoundingBox" stroke="none" fill="none" x="20606" y="51248" width="3502" height="3502"/>
    <path fill="rgb(249,249,249)" stroke="none" d="M 22356,51248 C 22414,51248 22471,51251 22528,51257 22585,51262 22641,51271 22698,51282 22755,51293 22810,51307 22865,51324 22920,51340 22974,51360 23027,51381 23080,51403 23132,51428 23182,51455 23233,51482 23282,51511 23329,51543 23377,51575 23423,51609 23467,51645 23512,51682 23554,51720 23595,51761 23635,51801 23674,51844 23710,51888 23746,51932 23780,51978 23812,52026 23844,52074 23874,52123 23901,52173 23928,52224 23952,52276 23974,52329 23996,52381 24015,52435 24032,52490 24048,52545 24062,52601 24074,52657 24085,52713 24093,52770 24099,52827 24104,52884 24107,52941 24107,52998 24107,53055 24104,53113 24099,53170 24093,53227 24085,53283 24074,53340 24062,53396 24048,53451 24032,53506 24015,53561 23996,53615 23974,53668 23952,53721 23928,53773 23901,53823 23874,53874 23844,53923 23812,53970 23780,54018 23746,54064 23710,54108 23674,54153 23635,54195 23595,54237 23554,54277 23512,54316 23467,54352 23423,54388 23377,54422 23329,54454 23282,54486 23233,54515 23182,54542 23132,54569 23080,54594 23027,54616 22974,54638 22920,54657 22865,54674 22810,54690 22755,54704 22698,54715 22641,54727 22585,54735 22528,54741 22471,54746 22414,54749 22356,54749 22299,54749 22242,54746 22185,54741 22128,54735 22071,54727 22015,54715 21959,54704 21903,54690 21848,54674 21793,54657 21740,54638 21687,54616 21634,54594 21582,54569 21531,54542 21481,54515 21432,54486 21384,54454 21336,54422 21290,54388 21246,54352 21202,54316 21159,54277 21119,54237 21078,54195 21040,54153 21004,54108 20967,54064 20933,54018 20901,53970 20869,53923 20840,53874 20813,53823 20786,53773 20761,53721 20740,53668 20718,53615 20698,53561 20682,53506 20665,53451 20651,53396 20640,53340 20629,53283 20620,53227 20615,53170 20609,53113 20606,53055 20606,52998 20606,52941 20609,52884 20615,52827 20620,52770 20629,52713 20640,52657 20651,52601 20665,52545 20682,52490 20698,52435 20718,52381 20740,52329 20761,52276 20786,52224 20813,52173 20840,52123 20869,52074 20901,52026 20933,51978 20967,51932 21004,51888 21040,51844 21078,51801 21119,51761 21159,51720 21202,51682 21246,51645 21290,51609 21336,51575 21384,51543 21432,51511 21481,51482 21531,51455 21582,51428 21634,51403 21687,51381 21740,51360 21793,51340 21848,51324 21903,51307 21959,51293 22015,51282 22071,51271 22128,51262 22185,51257 22242,51251 22299,51248 22356,51248 Z"/>
   </g>
  </g>
  <g class="com.sun.star.drawing.ClosedBezierShape">
   <g id="id6">
    <rect class="BoundingBox" stroke="none" fill="none" x="21936" y="52375" width="213" height="189"/>
    <path fill="rgb(106,84,156)" stroke="none" d="M 22134,52383 C 22119,52372 22098,52375 22087,52390 L 22021,52481 21998,52450 C 21987,52434 21966,52431 21951,52442 21935,52454 21932,52475 21943,52490 L 21983,52544 C 21992,52556 22006,52563 22021,52563 22035,52563 22049,52556 22058,52544 L 22141,52430 C 22152,52415 22149,52394 22134,52383 Z"/>
   </g>
  </g>
  <g class="com.sun.star.drawing.ClosedBezierShape">
   <g id="id7">
    <rect class="BoundingBox" stroke="none" fill="none" x="21936" y="52928" width="213" height="188"/>
    <path fill="rgb(106,84,156)" stroke="none" d="M 22134,52935 C 22119,52924 22098,52927 22087,52942 L 22021,53034 21998,53001 C 21987,52986 21966,52983 21951,52994 21935,53006 21932,53027 21943,53042 L 21983,53096 C 21992,53108 22006,53115 22021,53115 22035,53115 22049,53108 22058,53096 L 22141,52982 C 22152,52967 22149,52946 22134,52935 Z"/>
   </g>
  </g>
  <g class="com.sun.star.drawing.ClosedBezierShape">
   <g id="id8">
    <rect class="BoundingBox" stroke="none" fill="none" x="21936" y="53455" width="213" height="188"/>
    <path fill="rgb(106,84,156)" stroke="none" d="M 22134,53462 C 22119,53451 22098,53454 22087,53469 L 22021,53560 21998,53528 C 21987,53513 21966,53510 21951,53521 21935,53531 21932,53553 21943,53569 L 21983,53622 C 21992,53634 22006,53642 22021,53642 22035,53642 22049,53634 22058,53623 L 22141,53509 C 22152,53494 22149,53473 22134,53462 Z"/>
   </g>
  </g>
  <g class="com.sun.star.drawing.ClosedBezierShape">
   <g id="id9">
    <rect class="BoundingBox" stroke="none" fill="none" x="22357" y="52365" width="484" height="70"/>
    <path fill="rgb(106,84,156)" stroke="none" d="M 22390,52434 L 22807,52434 C 22825,52434 22840,52418 22840,52399 22840,52380 22825,52365 22807,52365 L 22390,52365 C 22372,52365 22357,52380 22357,52399 22357,52418 22372,52434 22390,52434 Z"/>
   </g>
  </g>
  <g class="com.sun.star.drawing.ClosedBezierShape">
   <g id="id10">
    <rect class="BoundingBox" stroke="none" fill="none" x="22357" y="52506" width="276" height="69"/>
    <path fill="rgb(106,84,156)" stroke="none" d="M 22390,52574 L 22598,52574 C 22617,52574 22632,52558 22632,52539 22632,52521 22617,52506 22598,52506 L 22390,52506 C 22372,52506 22357,52521 22357,52539 22357,52558 22372,52574 22390,52574 Z"/>
   </g>
  </g>
  <g class="com.sun.star.drawing.ClosedBezierShape">
   <g id="id11">
    <rect class="BoundingBox" stroke="none" fill="none" x="22357" y="52905" width="347" height="69"/>
    <path fill="rgb(106,84,156)" stroke="none" d="M 22390,52973 L 22670,52973 C 22688,52973 22703,52957 22703,52938 22703,52920 22688,52905 22670,52905 L 22390,52905 C 22372,52905 22357,52920 22357,52938 22357,52957 22372,52973 22390,52973 Z"/>
   </g>
  </g>
  <g class="com.sun.star.drawing.ClosedBezierShape">
   <g id="id12">
    <rect class="BoundingBox" stroke="none" fill="none" x="22357" y="53045" width="276" height="69"/>
    <path fill="rgb(106,84,156)" stroke="none" d="M 22598,53113 C 22617,53113 22632,53097 22632,53079 22632,53060 22617,53045 22598,53045 L 22390,53045 C 22372,53045 22357,53060 22357,53079 22357,53097 22372,53113 22390,53113 L 22598,53113 Z"/>
   </g>
  </g>
  <g class="com.sun.star.drawing.ClosedBezierShape">
   <g id="id13">
    <rect class="BoundingBox" stroke="none" fill="none" x="21827" y="52254" width="432" height="433"/>
    <path fill="rgb(106,84,156)" stroke="none" d="M 22172,52254 L 21912,52254 C 21865,52254 21827,52293 21827,52340 L 21827,52600 C 21827,52647 21865,52685 21912,52685 L 22172,52685 C 22219,52685 22258,52647 22258,52600 L 22258,52340 C 22258,52293 22219,52254 22172,52254 Z M 22190,52600 C 22190,52610 22182,52618 22172,52618 L 21912,52618 C 21902,52618 21894,52610 21894,52600 L 21894,52340 C 21894,52330 21902,52321 21912,52321 L 22172,52321 C 22182,52321 22190,52330 22190,52340 L 22190,52600 Z"/>
   </g>
  </g>
  <g class="com.sun.star.drawing.ClosedBezierShape">
   <g id="id14">
    <rect class="BoundingBox" stroke="none" fill="none" x="21827" y="52794" width="432" height="431"/>
    <path fill="rgb(106,84,156)" stroke="none" d="M 22172,52794 L 21912,52794 C 21865,52794 21827,52832 21827,52879 L 21827,53139 C 21827,53186 21865,53224 21912,53224 L 22172,53224 C 22219,53224 22258,53186 22258,53139 L 22258,52879 C 22258,52832 22219,52794 22172,52794 Z M 22190,53139 C 22190,53149 22182,53157 22172,53157 L 21912,53157 C 21902,53157 21894,53149 21894,53139 L 21894,52879 C 21894,52869 21902,52861 21912,52861 L 22172,52861 C 22182,52861 22190,52869 22190,52879 L 22190,53139 Z"/>
   </g>
  </g>
  <g class="com.sun.star.drawing.ClosedBezierShape">
   <g id="id15">
    <rect class="BoundingBox" stroke="none" fill="none" x="21827" y="53333" width="432" height="433"/>
    <path fill="rgb(106,84,156)" stroke="none" d="M 22172,53333 L 21912,53333 C 21865,53333 21827,53371 21827,53419 L 21827,53678 C 21827,53725 21865,53764 21912,53764 L 22172,53764 C 22219,53764 22258,53725 22258,53678 L 22258,53419 C 22258,53371 22219,53333 22172,53333 Z M 22190,53678 C 22190,53688 22182,53697 22172,53697 L 21912,53697 C 21902,53697 21894,53688 21894,53678 L 21894,53419 C 21894,53408 21902,53400 21912,53400 L 22172,53400 C 22182,53400 22190,53408 22190,53419 L 22190,53678 Z"/>
   </g>
  </g>
  <g class="com.sun.star.drawing.ClosedBezierShape">
   <g id="id16">
    <rect class="BoundingBox" stroke="none" fill="none" x="21521" y="51770" width="1991" height="2296"/>
    <path fill="rgb(106,84,156)" stroke="none" d="M 23454,52345 L 23401,52311 C 23373,52294 23340,52288 23308,52295 23276,52302 23249,52322 23231,52349 L 23182,52427 23114,52534 23038,52655 23038,52151 C 23038,52116 23009,52088 22975,52088 L 22733,52088 22733,52021 23056,52021 C 23083,52021 23105,52042 23105,52069 L 23105,52360 C 23105,52379 23120,52394 23138,52394 23157,52394 23172,52379 23172,52360 L 23172,52069 C 23172,52005 23120,51953 23056,51953 L 22726,51953 C 22712,51920 22679,51897 22641,51897 L 22554,51897 22554,51863 C 22554,51812 22513,51770 22462,51770 L 22230,51770 C 22179,51770 22138,51812 22138,51863 L 22138,51897 22051,51897 C 22013,51897 21980,51920 21966,51953 L 21637,51953 C 21573,51953 21521,52005 21521,52069 L 21521,53949 C 21521,54013 21573,54065 21637,54065 L 23056,54065 C 23120,54065 23172,54013 23172,53949 L 23172,53194 C 23172,53176 23157,53161 23138,53161 23120,53161 23105,53176 23105,53194 L 23105,53949 C 23105,53976 23083,53997 23056,53997 L 21637,53997 C 21610,53997 21588,53976 21588,53949 L 21588,52069 C 21588,52042 21610,52021 21637,52021 L 21959,52021 21959,52088 21719,52088 C 21684,52088 21656,52116 21656,52151 L 21656,53866 C 21656,53902 21684,53930 21719,53930 L 22975,53930 C 23009,53930 23038,53902 23038,53866 L 23038,53232 23375,52699 23443,52592 23492,52514 C 23528,52457 23511,52381 23454,52345 Z M 23323,52361 C 23337,52357 23352,52360 23365,52368 L 23418,52402 C 23444,52418 23451,52452 23435,52478 L 23404,52527 23257,52434 23288,52385 C 23296,52373 23308,52364 23323,52361 Z M 22685,53662 C 22679,53672 22672,53681 22664,53690 22653,53676 22641,53663 22628,53652 L 23255,52663 23300,52691 22685,53662 Z M 22456,53862 L 22455,53862 C 22528,53559 22492,53707 22503,53665 22546,53672 22587,53696 22614,53735 22436,53878 22458,53860 22456,53862 Z M 23221,52491 L 23368,52584 23336,52635 23189,52541 23221,52491 Z M 22027,51989 L 22027,51988 22027,51987 C 22027,51974 22038,51964 22051,51964 L 22147,51964 C 22179,51964 22205,51938 22205,51906 L 22205,51863 C 22205,51849 22216,51837 22230,51837 L 22462,51837 C 22476,51837 22487,51849 22487,51863 L 22487,51906 C 22487,51938 22513,51964 22545,51964 L 22641,51964 C 22654,51964 22665,51974 22666,51987 L 22666,51988 22666,51989 22666,52088 22027,52088 22027,51989 Z M 21723,52155 L 22970,52155 22970,52761 22618,53317 C 22608,53333 22612,53354 22628,53364 22644,53373 22664,53369 22674,53353 L 23153,52598 23199,52627 22571,53616 C 22556,53609 22539,53603 22522,53600 22526,53589 22532,53578 22538,53568 L 22590,53486 C 22600,53470 22596,53449 22580,53440 22564,53430 22544,53434 22534,53450 L 22481,53533 C 22464,53560 22452,53589 22444,53621 L 22390,53845 C 22389,53851 22388,53857 22388,53862 L 21723,53862 21723,52155 Z M 22970,53862 L 22563,53862 22678,53769 C 22703,53749 22725,53725 22742,53698 L 22970,53338 22970,53862 Z"/>
   </g>
  </g>
 </g>
</svg>