<?xml version="1.0" encoding="UTF-8"?>
<!DOCTYPE svg PUBLIC "-//W3C//DTD SVG 1.1//EN" "http://www.w3.org/Graphics/SVG/1.1/DTD/svg11.dtd">
<svg version="1.2" width="22.21mm" height="21.57mm" viewBox="52191 67679 2221 2157" preserveAspectRatio="xMidYMid" fill-rule="evenodd" stroke-width="28.222" stroke-linejoin="round" xmlns="http://www.w3.org/2000/svg" xmlns:ooo="http://xml.openoffice.org/svg/export" xmlns:xlink="http://www.w3.org/1999/xlink" xmlns:presentation="http://sun.com/xmlns/staroffice/presentation" xmlns:smil="http://www.w3.org/2001/SMIL20/" xmlns:anim="urn:oasis:names:tc:opendocument:xmlns:animation:1.0" xmlns:svg="urn:oasis:names:tc:opendocument:xmlns:svg-compatible:1.0" xml:space="preserve">
 <defs class="EmbeddedBulletChars">
  <g id="bullet-char-template-57356" transform="scale(0.00048828125,-0.00048828125)">
   <path d="M 580,1141 L 1163,571 580,0 -4,571 580,1141 Z"/>
  </g>
  <g id="bullet-char-template-57354" transform="scale(0.00048828125,-0.00048828125)">
   <path d="M 8,1128 L 1137,1128 1137,0 8,0 8,1128 Z"/>
  </g>
  <g id="bullet-char-template-10146" transform="scale(0.00048828125,-0.00048828125)">
   <path d="M 174,0 L 602,739 174,1481 1456,739 174,0 Z M 1358,739 L 309,1346 659,739 1358,739 Z"/>
  </g>
  <g id="bullet-char-template-10132" transform="scale(0.00048828125,-0.00048828125)">
   <path d="M 2015,739 L 1276,0 717,0 1260,543 174,543 174,936 1260,936 717,1481 1274,1481 2015,739 Z"/>
  </g>
  <g id="bullet-char-template-10007" transform="scale(0.00048828125,-0.00048828125)">
   <path d="M 0,-2 C -7,14 -16,27 -25,37 L 356,567 C 262,823 215,952 215,954 215,979 228,992 255,992 264,992 276,990 289,987 310,991 331,999 354,1012 L 381,999 492,748 772,1049 836,1024 860,1049 C 881,1039 901,1025 922,1006 886,937 835,863 770,784 769,783 710,716 594,584 L 774,223 C 774,196 753,168 711,139 L 727,119 C 717,90 699,76 672,76 641,76 570,178 457,381 L 164,-76 C 142,-110 111,-127 72,-127 30,-127 9,-110 8,-76 1,-67 -2,-52 -2,-32 -2,-23 -1,-13 0,-2 Z"/>
  </g>
  <g id="bullet-char-template-10004" transform="scale(0.00048828125,-0.00048828125)">
   <path d="M 285,-33 C 182,-33 111,30 74,156 52,228 41,333 41,471 41,549 55,616 82,672 116,743 169,778 240,778 293,778 328,747 346,684 L 369,508 C 377,444 397,411 428,410 L 1163,1116 C 1174,1127 1196,1133 1229,1133 1271,1133 1292,1118 1292,1087 L 1292,965 C 1292,929 1282,901 1262,881 L 442,47 C 390,-6 338,-33 285,-33 Z"/>
  </g>
  <g id="bullet-char-template-9679" transform="scale(0.00048828125,-0.00048828125)">
   <path d="M 813,0 C 632,0 489,54 383,161 276,268 223,411 223,592 223,773 276,916 383,1023 489,1130 632,1184 813,1184 992,1184 1136,1130 1245,1023 1353,916 1407,772 1407,592 1407,412 1353,268 1245,161 1136,54 992,0 813,0 Z"/>
  </g>
  <g id="bullet-char-template-8226" transform="scale(0.00048828125,-0.00048828125)">
   <path d="M 346,457 C 273,457 209,483 155,535 101,586 74,649 74,723 74,796 101,859 155,911 209,963 273,989 346,989 419,989 480,963 531,910 582,859 608,796 608,723 608,648 583,586 532,535 482,483 420,457 346,457 Z"/>
  </g>
  <g id="bullet-char-template-8211" transform="scale(0.00048828125,-0.00048828125)">
   <path d="M -4,459 L 1135,459 1135,606 -4,606 -4,459 Z"/>
  </g>
  <g id="bullet-char-template-61548" transform="scale(0.00048828125,-0.00048828125)">
   <path d="M 173,740 C 173,903 231,1043 346,1159 462,1274 601,1332 765,1332 928,1332 1067,1274 1183,1159 1299,1043 1357,903 1357,740 1357,577 1299,437 1183,322 1067,206 928,148 765,148 601,148 462,206 346,322 231,437 173,577 173,740 Z"/>
  </g>
 </defs>
 <g class="Page">
  <g class="com.sun.star.drawing.ClosedBezierShape">
   <g id="id3">
    <rect class="BoundingBox" stroke="none" fill="none" x="52191" y="67679" width="2221" height="2157"/>
    <path fill="rgb(106,84,156)" stroke="none" d="M 54379,69674 C 54280,69674 54228,69702 54183,69726 54141,69749 54100,69770 54019,69770 53937,69770 53897,69749 53854,69726 53809,69702 53757,69674 53660,69674 53562,69674 53510,69702 53465,69726 53422,69749 53382,69770 53300,69770 53219,69770 53179,69749 53136,69726 53091,69702 53039,69674 52941,69674 52843,69674 52792,69702 52747,69726 52704,69749 52664,69770 52582,69770 52501,69770 52460,69749 52418,69726 52372,69702 52321,69674 52223,69674 52205,69674 52191,69689 52191,69707 52191,69725 52205,69739 52223,69739 52305,69739 52345,69761 52387,69783 52433,69808 52484,69835 52582,69835 52680,69835 52732,69808 52777,69783 52820,69761 52860,69739 52941,69739 53023,69739 53063,69761 53106,69783 53151,69808 53203,69835 53300,69835 53398,69835 53450,69808 53495,69783 53538,69761 53578,69739 53660,69739 53741,69739 53781,69761 53824,69783 53869,69808 53921,69835 54019,69835 54117,69835 54168,69808 54214,69783 54256,69761 54296,69739 54379,69739 54397,69739 54411,69725 54411,69707 54411,69689 54397,69674 54379,69674 Z M 52223,69540 C 52305,69540 52345,69561 52387,69584 52446,69615 52505,69635 52582,69635 52680,69635 52732,69608 52777,69584 52820,69561 52860,69540 52941,69540 53023,69540 53063,69561 53106,69584 53151,69608 53203,69635 53300,69635 53398,69635 53450,69608 53495,69584 53538,69561 53578,69540 53660,69540 53741,69540 53781,69561 53824,69584 53869,69608 53921,69635 54019,69635 54109,69635 54151,69617 54214,69584 54256,69561 54296,69540 54379,69540 54397,69540 54411,69526 54411,69508 54411,69490 54397,69475 54379,69475 54300,69475 54252,69492 54212,69511 L 54392,69081 C 54400,69061 54397,69039 54386,69022 54374,69005 54354,68994 54334,68994 54334,68990 54335,68987 54335,68983 L 54335,68533 C 54335,68491 54300,68457 54259,68457 L 53501,68457 C 53459,68457 53425,68491 53425,68533 L 53425,68983 C 53425,68987 53425,68990 53426,68994 L 53354,68994 C 53340,68994 53326,68998 53314,69005 L 53123,69122 C 53121,69123 53119,69124 53117,69124 L 52923,69124 52923,68858 C 52959,68852 52988,68821 52988,68783 L 52988,68674 C 52988,68632 52954,68598 52912,68598 L 52762,68598 52762,68232 C 52777,68217 52788,68200 52797,68181 L 53291,67885 53291,68183 C 53291,68213 53311,68240 53340,68250 53363,68257 53378,68279 53376,68302 53375,68329 53353,68351 53327,68352 53297,68354 53271,68329 53271,68300 53271,68282 53257,68267 53239,68267 53221,68267 53206,68282 53206,68300 53206,68366 53264,68420 53330,68417 53389,68414 53438,68365 53441,68306 53444,68252 53411,68204 53360,68188 53358,68187 53356,68185 53356,68183 L 53357,67837 C 53384,67801 53383,67749 53354,67714 53325,67679 53276,67669 53235,67690 L 53056,67780 C 53040,67788 53034,67807 53042,67823 53050,67839 53070,67846 53086,67838 L 53264,67748 C 53278,67741 53294,67744 53304,67756 53317,67771 53313,67795 53296,67805 L 52810,68097 C 52807,68060 52791,68026 52768,67999 L 52948,67908 C 52965,67900 52971,67880 52963,67864 52955,67847 52935,67841 52919,67849 L 52709,67956 C 52688,67946 52664,67940 52638,67940 52543,67940 52466,68018 52466,68113 52466,68159 52484,68201 52514,68232 L 52514,68598 52365,68598 C 52323,68598 52289,68632 52289,68674 L 52289,68783 C 52289,68821 52317,68852 52354,68858 L 52354,69124 52308,69124 C 52286,69124 52266,69135 52254,69154 52243,69173 52242,69196 52252,69216 L 52413,69524 C 52369,69500 52317,69475 52223,69475 52205,69475 52191,69490 52191,69508 52191,69526 52205,69540 52223,69540 Z M 53912,68522 L 54259,68522 C 54265,68522 54269,68527 54269,68533 L 54269,68725 53912,68725 53912,68522 Z M 53912,68790 L 54269,68790 54269,68983 C 54269,68989 54265,68994 54259,68994 L 53912,68994 53912,68790 Z M 53490,68533 C 53490,68527 53495,68522 53501,68522 L 53847,68522 53847,68725 53490,68725 53490,68533 Z M 53490,68790 L 53847,68790 53847,68994 53501,68994 C 53495,68994 53490,68989 53490,68983 L 53490,68790 Z M 52638,68005 C 52698,68005 52746,68053 52746,68113 52746,68172 52698,68220 52638,68220 52579,68220 52531,68172 52531,68113 52531,68053 52579,68005 52638,68005 Z M 52697,68275 L 52697,68598 52579,68598 52579,68275 C 52598,68281 52618,68285 52638,68285 52659,68285 52679,68281 52697,68275 Z M 52354,68674 C 52354,68668 52359,68663 52365,68663 L 52912,68663 C 52918,68663 52923,68668 52923,68674 L 52923,68783 C 52923,68789 52918,68793 52912,68793 L 52365,68793 C 52359,68793 52354,68789 52354,68783 L 52354,68674 Z M 52858,68858 L 52858,69124 52419,69124 52419,68858 52858,68858 Z M 52379,69319 L 52311,69189 53117,69189 C 53131,69189 53145,69185 53156,69178 L 53348,69060 C 53350,69059 53352,69059 53354,69059 L 54329,69059 54275,69189 53989,69189 C 53971,69189 53957,69203 53957,69221 53957,69239 53971,69254 53989,69254 L 54248,69254 54124,69554 C 54097,69564 54064,69570 54019,69570 53937,69570 53897,69549 53854,69527 53809,69502 53757,69475 53660,69475 53562,69475 53510,69502 53465,69527 53422,69549 53382,69570 53300,69570 53219,69570 53179,69549 53136,69527 53091,69502 53039,69475 52941,69475 52843,69475 52792,69502 52747,69527 52704,69549 52664,69570 52582,69570 52552,69570 52527,69568 52506,69563 L 52413,69384 53117,69384 C 53131,69384 53145,69380 53156,69373 L 53348,69256 C 53350,69254 53352,69254 53354,69254 L 53837,69254 C 53855,69254 53870,69239 53870,69221 53870,69203 53855,69189 53837,69189 L 53354,69189 C 53340,69189 53326,69193 53314,69200 L 53123,69317 C 53121,69318 53119,69319 53117,69319 L 52379,69319 Z"/>
   </g>
  </g>
 </g>
</svg>