<?xml version="1.0" encoding="UTF-8"?>
<!DOCTYPE svg PUBLIC "-//W3C//DTD SVG 1.1//EN" "http://www.w3.org/Graphics/SVG/1.1/DTD/svg11.dtd">
<svg version="1.2" width="22.27mm" height="18.12mm" viewBox="29379 52079 2227 1812" preserveAspectRatio="xMidYMid" fill-rule="evenodd" stroke-width="28.222" stroke-linejoin="round" xmlns="http://www.w3.org/2000/svg" xmlns:ooo="http://xml.openoffice.org/svg/export" xmlns:xlink="http://www.w3.org/1999/xlink" xmlns:presentation="http://sun.com/xmlns/staroffice/presentation" xmlns:smil="http://www.w3.org/2001/SMIL20/" xmlns:anim="urn:oasis:names:tc:opendocument:xmlns:animation:1.0" xmlns:svg="urn:oasis:names:tc:opendocument:xmlns:svg-compatible:1.0" xml:space="preserve">
 <defs class="EmbeddedBulletChars">
  <g id="bullet-char-template-57356" transform="scale(0.00048828125,-0.00048828125)">
   <path d="M 580,1141 L 1163,571 580,0 -4,571 580,1141 Z"/>
  </g>
  <g id="bullet-char-template-57354" transform="scale(0.00048828125,-0.00048828125)">
   <path d="M 8,1128 L 1137,1128 1137,0 8,0 8,1128 Z"/>
  </g>
  <g id="bullet-char-template-10146" transform="scale(0.00048828125,-0.00048828125)">
   <path d="M 174,0 L 602,739 174,1481 1456,739 174,0 Z M 1358,739 L 309,1346 659,739 1358,739 Z"/>
  </g>
  <g id="bullet-char-template-10132" transform="scale(0.00048828125,-0.00048828125)">
   <path d="M 2015,739 L 1276,0 717,0 1260,543 174,543 174,936 1260,936 717,1481 1274,1481 2015,739 Z"/>
  </g>
  <g id="bullet-char-template-10007" transform="scale(0.00048828125,-0.00048828125)">
   <path d="M 0,-2 C -7,14 -16,27 -25,37 L 356,567 C 262,823 215,952 215,954 215,979 228,992 255,992 264,992 276,990 289,987 310,991 331,999 354,1012 L 381,999 492,748 772,1049 836,1024 860,1049 C 881,1039 901,1025 922,1006 886,937 835,863 770,784 769,783 710,716 594,584 L 774,223 C 774,196 753,168 711,139 L 727,119 C 717,90 699,76 672,76 641,76 570,178 457,381 L 164,-76 C 142,-110 111,-127 72,-127 30,-127 9,-110 8,-76 1,-67 -2,-52 -2,-32 -2,-23 -1,-13 0,-2 Z"/>
  </g>
  <g id="bullet-char-template-10004" transform="scale(0.00048828125,-0.00048828125)">
   <path d="M 285,-33 C 182,-33 111,30 74,156 52,228 41,333 41,471 41,549 55,616 82,672 116,743 169,778 240,778 293,778 328,747 346,684 L 369,508 C 377,444 397,411 428,410 L 1163,1116 C 1174,1127 1196,1133 1229,1133 1271,1133 1292,1118 1292,1087 L 1292,965 C 1292,929 1282,901 1262,881 L 442,47 C 390,-6 338,-33 285,-33 Z"/>
  </g>
  <g id="bullet-char-template-9679" transform="scale(0.00048828125,-0.00048828125)">
   <path d="M 813,0 C 632,0 489,54 383,161 276,268 223,411 223,592 223,773 276,916 383,1023 489,1130 632,1184 813,1184 992,1184 1136,1130 1245,1023 1353,916 1407,772 1407,592 1407,412 1353,268 1245,161 1136,54 992,0 813,0 Z"/>
  </g>
  <g id="bullet-char-template-8226" transform="scale(0.00048828125,-0.00048828125)">
   <path d="M 346,457 C 273,457 209,483 155,535 101,586 74,649 74,723 74,796 101,859 155,911 209,963 273,989 346,989 419,989 480,963 531,910 582,859 608,796 608,723 608,648 583,586 532,535 482,483 420,457 346,457 Z"/>
  </g>
  <g id="bullet-char-template-8211" transform="scale(0.00048828125,-0.00048828125)">
   <path d="M -4,459 L 1135,459 1135,606 -4,606 -4,459 Z"/>
  </g>
  <g id="bullet-char-template-61548" transform="scale(0.00048828125,-0.00048828125)">
   <path d="M 173,740 C 173,903 231,1043 346,1159 462,1274 601,1332 765,1332 928,1332 1067,1274 1183,1159 1299,1043 1357,903 1357,740 1357,577 1299,437 1183,322 1067,206 928,148 765,148 601,148 462,206 346,322 231,437 173,577 173,740 Z"/>
  </g>
 </defs>
 <g class="Page">
  <g class="com.sun.star.drawing.ClosedBezierShape">
   <g id="id3">
    <rect class="BoundingBox" stroke="none" fill="none" x="29379" y="52079" width="1667" height="1812"/>
    <path fill="rgb(106,84,156)" stroke="none" d="M 31025,53429 C 31006,53416 30979,53421 30965,53441 30943,53474 30918,53506 30891,53535 30820,53478 30740,53431 30654,53397 30658,53381 30661,53365 30664,53350 30669,53326 30653,53304 30630,53299 30606,53294 30584,53310 30579,53333 30577,53345 30574,53356 30572,53367 30480,53339 30384,53325 30284,53325 30185,53325 30088,53340 29997,53367 29973,53263 29960,53147 29957,53027 L 30441,53027 C 30465,53027 30484,53008 30484,52984 30484,52960 30465,52940 30441,52940 L 29957,52940 C 29960,52811 29976,52687 30002,52576 30098,52607 30200,52623 30305,52623 30396,52623 30484,52611 30569,52588 30573,52603 30576,52618 30579,52634 30584,52657 30606,52672 30630,52668 30653,52663 30668,52641 30664,52617 30660,52598 30656,52579 30652,52561 30737,52529 30818,52486 30890,52432 30916,52461 30941,52492 30963,52525 30977,52545 31004,52550 31023,52536 31043,52523 31048,52496 31035,52476 30866,52227 30585,52079 30284,52079 29785,52079 29379,52485 29379,52984 29379,53484 29785,53890 30284,53890 30586,53890 30868,53740 31037,53489 31050,53469 31045,53442 31025,53429 Z M 30829,53596 C 30731,53683 30614,53745 30488,53778 30546,53708 30596,53607 30632,53481 30703,53511 30769,53549 30829,53596 Z M 30284,53413 C 30376,53413 30466,53426 30551,53452 30489,53666 30388,53803 30284,53803 30205,53803 30124,53721 30062,53577 30045,53538 30031,53497 30018,53452 30103,53426 30192,53413 30284,53413 Z M 29983,53611 C 30011,53678 30044,53734 30080,53778 29952,53745 29836,53682 29741,53596 29800,53549 29866,53511 29936,53481 29950,53527 29965,53571 29983,53611 Z M 30305,52536 C 30208,52536 30114,52521 30025,52493 30036,52457 30048,52423 30062,52391 30124,52248 30205,52165 30284,52165 30386,52165 30485,52297 30547,52504 30470,52525 30388,52536 30305,52536 Z M 29944,52462 C 29879,52434 29818,52397 29762,52353 29854,52278 29962,52221 30080,52191 30044,52234 30011,52290 29983,52357 29968,52390 29955,52425 29944,52462 Z M 30488,52191 C 30613,52223 30729,52284 30827,52370 30766,52414 30700,52450 30629,52477 30593,52356 30545,52259 30488,52191 Z M 29698,52413 C 29765,52468 29840,52512 29920,52546 29891,52666 29874,52800 29871,52941 L 29467,52941 C 29477,52736 29564,52551 29698,52413 Z M 29467,53027 L 29871,53027 C 29874,53157 29889,53283 29914,53397 29829,53431 29749,53478 29679,53535 29555,53400 29477,53222 29467,53027 Z"/>
   </g>
  </g>
  <g class="com.sun.star.drawing.ClosedBezierShape">
   <g id="id4">
    <rect class="BoundingBox" stroke="none" fill="none" x="30702" y="52736" width="306" height="307"/>
    <path fill="rgb(106,84,156)" stroke="none" d="M 30964,52737 C 30819,52737 30702,52855 30702,52999 30702,53023 30721,53042 30745,53042 30769,53042 30789,53023 30789,52999 30789,52903 30868,52824 30964,52824 30988,52824 31007,52805 31007,52781 31007,52757 30988,52737 30964,52737 Z"/>
   </g>
  </g>
  <g class="com.sun.star.drawing.ClosedBezierShape">
   <g id="id5">
    <rect class="BoundingBox" stroke="none" fill="none" x="30574" y="52609" width="1032" height="1033"/>
    <path fill="rgb(106,84,156)" stroke="none" d="M 31593,53457 L 31400,53265 C 31383,53248 31355,53248 31338,53265 31322,53282 31322,53309 31338,53326 L 31501,53487 31452,53536 31212,53297 C 31221,53289 31230,53282 31238,53274 31311,53200 31352,53103 31352,52998 31352,52894 31311,52796 31238,52723 31164,52649 31067,52609 30963,52609 30859,52609 30761,52649 30688,52723 30614,52796 30574,52894 30574,52998 30574,53103 30614,53200 30688,53274 30761,53347 30859,53387 30963,53387 31025,53387 31085,53373 31139,53345 L 31422,53627 C 31430,53636 31441,53640 31452,53640 31463,53640 31474,53636 31483,53627 L 31593,53518 C 31609,53501 31609,53473 31593,53457 Z M 30749,53212 C 30692,53155 30661,53079 30661,52998 30661,52917 30692,52841 30749,52784 30806,52727 30882,52695 30963,52695 31044,52695 31120,52727 31177,52784 31234,52841 31265,52917 31265,52998 31265,53079 31234,53155 31177,53212 31120,53270 31044,53301 30963,53301 30882,53301 30806,53270 30749,53212 Z"/>
   </g>
  </g>
 </g>
</svg>