<?xml version="1.0" encoding="UTF-8"?>
<!DOCTYPE svg PUBLIC "-//W3C//DTD SVG 1.1//EN" "http://www.w3.org/Graphics/SVG/1.1/DTD/svg11.dtd">
<svg version="1.2" width="36.6mm" height="36.6mm" viewBox="4844 49577 3660 3660" preserveAspectRatio="xMidYMid" fill-rule="evenodd" stroke-width="28.222" stroke-linejoin="round" xmlns="http://www.w3.org/2000/svg" xmlns:ooo="http://xml.openoffice.org/svg/export" xmlns:xlink="http://www.w3.org/1999/xlink" xmlns:presentation="http://sun.com/xmlns/staroffice/presentation" xmlns:smil="http://www.w3.org/2001/SMIL20/" xmlns:anim="urn:oasis:names:tc:opendocument:xmlns:animation:1.0" xmlns:svg="urn:oasis:names:tc:opendocument:xmlns:svg-compatible:1.0" xml:space="preserve">
 <defs class="EmbeddedBulletChars">
  <g id="bullet-char-template-57356" transform="scale(0.00048828125,-0.00048828125)">
   <path d="M 580,1141 L 1163,571 580,0 -4,571 580,1141 Z"/>
  </g>
  <g id="bullet-char-template-57354" transform="scale(0.00048828125,-0.00048828125)">
   <path d="M 8,1128 L 1137,1128 1137,0 8,0 8,1128 Z"/>
  </g>
  <g id="bullet-char-template-10146" transform="scale(0.00048828125,-0.00048828125)">
   <path d="M 174,0 L 602,739 174,1481 1456,739 174,0 Z M 1358,739 L 309,1346 659,739 1358,739 Z"/>
  </g>
  <g id="bullet-char-template-10132" transform="scale(0.00048828125,-0.00048828125)">
   <path d="M 2015,739 L 1276,0 717,0 1260,543 174,543 174,936 1260,936 717,1481 1274,1481 2015,739 Z"/>
  </g>
  <g id="bullet-char-template-10007" transform="scale(0.00048828125,-0.00048828125)">
   <path d="M 0,-2 C -7,14 -16,27 -25,37 L 356,567 C 262,823 215,952 215,954 215,979 228,992 255,992 264,992 276,990 289,987 310,991 331,999 354,1012 L 381,999 492,748 772,1049 836,1024 860,1049 C 881,1039 901,1025 922,1006 886,937 835,863 770,784 769,783 710,716 594,584 L 774,223 C 774,196 753,168 711,139 L 727,119 C 717,90 699,76 672,76 641,76 570,178 457,381 L 164,-76 C 142,-110 111,-127 72,-127 30,-127 9,-110 8,-76 1,-67 -2,-52 -2,-32 -2,-23 -1,-13 0,-2 Z"/>
  </g>
  <g id="bullet-char-template-10004" transform="scale(0.00048828125,-0.00048828125)">
   <path d="M 285,-33 C 182,-33 111,30 74,156 52,228 41,333 41,471 41,549 55,616 82,672 116,743 169,778 240,778 293,778 328,747 346,684 L 369,508 C 377,444 397,411 428,410 L 1163,1116 C 1174,1127 1196,1133 1229,1133 1271,1133 1292,1118 1292,1087 L 1292,965 C 1292,929 1282,901 1262,881 L 442,47 C 390,-6 338,-33 285,-33 Z"/>
  </g>
  <g id="bullet-char-template-9679" transform="scale(0.00048828125,-0.00048828125)">
   <path d="M 813,0 C 632,0 489,54 383,161 276,268 223,411 223,592 223,773 276,916 383,1023 489,1130 632,1184 813,1184 992,1184 1136,1130 1245,1023 1353,916 1407,772 1407,592 1407,412 1353,268 1245,161 1136,54 992,0 813,0 Z"/>
  </g>
  <g id="bullet-char-template-8226" transform="scale(0.00048828125,-0.00048828125)">
   <path d="M 346,457 C 273,457 209,483 155,535 101,586 74,649 74,723 74,796 101,859 155,911 209,963 273,989 346,989 419,989 480,963 531,910 582,859 608,796 608,723 608,648 583,586 532,535 482,483 420,457 346,457 Z"/>
  </g>
  <g id="bullet-char-template-8211" transform="scale(0.00048828125,-0.00048828125)">
   <path d="M -4,459 L 1135,459 1135,606 -4,606 -4,459 Z"/>
  </g>
  <g id="bullet-char-template-61548" transform="scale(0.00048828125,-0.00048828125)">
   <path d="M 173,740 C 173,903 231,1043 346,1159 462,1274 601,1332 765,1332 928,1332 1067,1274 1183,1159 1299,1043 1357,903 1357,740 1357,577 1299,437 1183,322 1067,206 928,148 765,148 601,148 462,206 346,322 231,437 173,577 173,740 Z"/>
  </g>
 </defs>
 <g class="Page">
  <g class="com.sun.star.drawing.PolyPolygonShape">
   <g id="id3">
    <rect class="BoundingBox" stroke="none" fill="none" x="4845" y="49577" width="3659" height="3660"/>
    <path fill="rgb(235,234,234)" stroke="none" d="M 8503,53236 L 4847,49578 4846,49578 8502,53236 8503,53236 Z"/>
   </g>
  </g>
  <g class="com.sun.star.drawing.PolyPolygonShape">
   <g id="id4">
    <rect class="BoundingBox" stroke="none" fill="none" x="4844" y="49577" width="3659" height="3660"/>
    <path fill="rgb(235,234,234)" stroke="none" d="M 8502,53236 L 4846,49578 4845,49578 8501,53236 8502,53236 Z"/>
   </g>
  </g>
  <g class="com.sun.star.drawing.ClosedBezierShape">
   <g id="id5">
    <rect class="BoundingBox" stroke="none" fill="none" x="5429" y="49973" width="2506" height="2506"/>
    <path fill="rgb(106,84,156)" stroke="none" d="M 7707,52019 C 7747,51982 7772,51930 7772,51871 L 7772,51791 C 7772,51679 7682,51589 7570,51589 7473,51589 7391,51658 7372,51750 L 7240,51750 C 7223,51703 7178,51669 7126,51669 7073,51669 7029,51703 7012,51750 L 6880,51750 C 6863,51671 6801,51609 6722,51593 L 6722,51502 C 6792,51484 6843,51421 6843,51346 L 6884,51346 C 6906,51346 6924,51328 6924,51306 L 6924,51185 7005,51185 7005,51104 6924,51104 C 6924,51026 6961,50950 7024,50895 7140,50796 7207,50651 7207,50498 7207,50354 7149,50220 7045,50120 6941,50020 6804,49967 6660,49974 6387,49985 6162,50216 6157,50489 6154,50643 6219,50790 6335,50892 6400,50949 6437,51025 6439,51104 L 6359,51104 6359,51185 6439,51185 6439,51306 C 6439,51328 6457,51346 6480,51346 L 6520,51346 C 6520,51421 6572,51484 6641,51502 L 6641,51593 C 6562,51609 6500,51671 6484,51750 L 6351,51750 C 6334,51703 6290,51669 6237,51669 6185,51669 6140,51703 6124,51750 L 5991,51750 C 5971,51658 5890,51589 5792,51589 5681,51589 5590,51679 5590,51791 L 5590,51871 C 5590,51930 5616,51982 5656,52019 5523,52073 5429,52204 5429,52357 L 5429,52438 C 5429,52460 5447,52478 5469,52478 L 6116,52478 C 6139,52478 6157,52460 6157,52438 L 6157,52357 C 6157,52204 6063,52073 5929,52019 5969,51982 5995,51930 5995,51871 L 5995,51831 6124,51831 C 6140,51878 6185,51912 6237,51912 6290,51912 6334,51878 6351,51831 L 6480,51831 6480,51871 C 6480,51930 6505,51982 6545,52019 6412,52073 6318,52204 6318,52357 L 6318,52438 C 6318,52460 6336,52478 6359,52478 L 7005,52478 C 7027,52478 7045,52460 7045,52438 L 7045,52357 C 7045,52204 6951,52073 6818,52019 6858,51982 6884,51930 6884,51871 L 6884,51831 7012,51831 C 7029,51878 7073,51912 7126,51912 7178,51912 7223,51878 7240,51831 L 7368,51831 7368,51871 C 7368,51930 7394,51982 7434,52019 7301,52073 7207,52204 7207,52357 L 7207,52438 C 7207,52460 7225,52478 7247,52478 L 7893,52478 C 7916,52478 7934,52460 7934,52438 L 7934,52357 C 7934,52204 7840,52073 7707,52019 Z M 6076,52357 L 6076,52397 5995,52397 5995,52317 5913,52317 5913,52397 5671,52397 5671,52317 5590,52317 5590,52397 5509,52397 5509,52357 C 5509,52200 5636,52073 5792,52073 5948,52073 6076,52200 6076,52357 Z M 5671,51871 L 5671,51791 C 5671,51724 5725,51669 5792,51669 5859,51669 5913,51724 5913,51791 L 5913,51871 C 5913,51938 5859,51993 5792,51993 5725,51993 5671,51938 5671,51871 Z M 6237,51831 C 6215,51831 6197,51813 6197,51791 6197,51768 6215,51750 6237,51750 6260,51750 6278,51768 6278,51791 6278,51813 6260,51831 6237,51831 Z M 6389,50832 C 6290,50745 6235,50621 6238,50490 6242,50259 6433,50064 6663,50054 6786,50050 6901,50093 6989,50178 7077,50262 7126,50376 7126,50498 7126,50627 7070,50750 6972,50834 6890,50905 6843,51003 6843,51104 L 6520,51104 C 6518,51002 6470,50903 6389,50832 Z M 6843,51185 L 6843,51266 6520,51266 6520,51185 6843,51185 Z M 6601,51346 L 6762,51346 C 6762,51391 6726,51427 6682,51427 6637,51427 6601,51391 6601,51346 Z M 6964,52357 L 6964,52397 6884,52397 6884,52317 6803,52317 6803,52397 6561,52397 6561,52317 6480,52317 6480,52397 6399,52397 6399,52357 C 6399,52200 6526,52073 6682,52073 6838,52073 6964,52200 6964,52357 Z M 6561,51871 L 6561,51791 C 6561,51724 6615,51669 6682,51669 6748,51669 6803,51724 6803,51791 L 6803,51871 C 6803,51938 6748,51993 6682,51993 6615,51993 6561,51938 6561,51871 Z M 7126,51831 C 7104,51831 7086,51813 7086,51791 7086,51768 7104,51750 7126,51750 7148,51750 7166,51768 7166,51791 7166,51813 7148,51831 7126,51831 Z M 7449,51871 L 7449,51791 C 7449,51724 7503,51669 7570,51669 7637,51669 7691,51724 7691,51791 L 7691,51871 C 7691,51938 7637,51993 7570,51993 7503,51993 7449,51938 7449,51871 Z M 7853,52397 L 7772,52397 7772,52317 7691,52317 7691,52397 7449,52397 7449,52317 7368,52317 7368,52397 7287,52397 7287,52357 C 7287,52200 7414,52073 7570,52073 7726,52073 7853,52200 7853,52357 L 7853,52397 Z"/>
   </g>
  </g>
  <g class="com.sun.star.drawing.PolyPolygonShape">
   <g id="id6">
    <rect class="BoundingBox" stroke="none" fill="none" x="6624" y="50941" width="117" height="60"/>
    <path fill="rgb(106,84,156)" stroke="none" d="M 6624,50941 L 6739,50941 6739,50999 6624,50999 6624,50941 Z"/>
   </g>
  </g>
  <g class="com.sun.star.drawing.ClosedBezierShape">
   <g id="id7">
    <rect class="BoundingBox" stroke="none" fill="none" x="6398" y="50216" width="567" height="567"/>
    <path fill="rgb(106,84,156)" stroke="none" d="M 6641,50697 L 6641,50782 6722,50782 6722,50697 C 6748,50692 6772,50682 6793,50667 L 6855,50730 6912,50672 6850,50609 C 6864,50588 6874,50564 6880,50539 L 6964,50539 6964,50458 6880,50458 C 6874,50432 6864,50408 6850,50387 L 6912,50325 6855,50268 6793,50330 C 6772,50316 6748,50306 6722,50300 L 6722,50216 6641,50216 6641,50300 C 6615,50306 6591,50316 6569,50330 L 6507,50268 6450,50325 6512,50387 C 6498,50408 6488,50432 6483,50458 L 6398,50458 6398,50539 6483,50539 C 6488,50564 6498,50588 6512,50609 L 6450,50672 6507,50730 6569,50667 C 6591,50682 6615,50692 6641,50697 Z M 6682,50377 C 6748,50377 6803,50431 6803,50498 6803,50565 6748,50619 6682,50619 6614,50619 6560,50565 6560,50498 6560,50431 6614,50377 6682,50377 Z"/>
   </g>
  </g>
 </g>
</svg>