<?xml version="1.0" encoding="UTF-8"?>
<!DOCTYPE svg PUBLIC "-//W3C//DTD SVG 1.1//EN" "http://www.w3.org/Graphics/SVG/1.1/DTD/svg11.dtd">
<svg version="1.2" width="105.82mm" height="98.82mm" viewBox="51827 24715 10582 9882" preserveAspectRatio="xMidYMid" fill-rule="evenodd" stroke-width="28.222" stroke-linejoin="round" xmlns="http://www.w3.org/2000/svg" xmlns:ooo="http://xml.openoffice.org/svg/export" xmlns:xlink="http://www.w3.org/1999/xlink" xmlns:presentation="http://sun.com/xmlns/staroffice/presentation" xmlns:smil="http://www.w3.org/2001/SMIL20/" xmlns:anim="urn:oasis:names:tc:opendocument:xmlns:animation:1.0" xmlns:svg="urn:oasis:names:tc:opendocument:xmlns:svg-compatible:1.0" xml:space="preserve">
 <defs class="EmbeddedBulletChars">
  <g id="bullet-char-template-57356" transform="scale(0.00048828125,-0.00048828125)">
   <path d="M 580,1141 L 1163,571 580,0 -4,571 580,1141 Z"/>
  </g>
  <g id="bullet-char-template-57354" transform="scale(0.00048828125,-0.00048828125)">
   <path d="M 8,1128 L 1137,1128 1137,0 8,0 8,1128 Z"/>
  </g>
  <g id="bullet-char-template-10146" transform="scale(0.00048828125,-0.00048828125)">
   <path d="M 174,0 L 602,739 174,1481 1456,739 174,0 Z M 1358,739 L 309,1346 659,739 1358,739 Z"/>
  </g>
  <g id="bullet-char-template-10132" transform="scale(0.00048828125,-0.00048828125)">
   <path d="M 2015,739 L 1276,0 717,0 1260,543 174,543 174,936 1260,936 717,1481 1274,1481 2015,739 Z"/>
  </g>
  <g id="bullet-char-template-10007" transform="scale(0.00048828125,-0.00048828125)">
   <path d="M 0,-2 C -7,14 -16,27 -25,37 L 356,567 C 262,823 215,952 215,954 215,979 228,992 255,992 264,992 276,990 289,987 310,991 331,999 354,1012 L 381,999 492,748 772,1049 836,1024 860,1049 C 881,1039 901,1025 922,1006 886,937 835,863 770,784 769,783 710,716 594,584 L 774,223 C 774,196 753,168 711,139 L 727,119 C 717,90 699,76 672,76 641,76 570,178 457,381 L 164,-76 C 142,-110 111,-127 72,-127 30,-127 9,-110 8,-76 1,-67 -2,-52 -2,-32 -2,-23 -1,-13 0,-2 Z"/>
  </g>
  <g id="bullet-char-template-10004" transform="scale(0.00048828125,-0.00048828125)">
   <path d="M 285,-33 C 182,-33 111,30 74,156 52,228 41,333 41,471 41,549 55,616 82,672 116,743 169,778 240,778 293,778 328,747 346,684 L 369,508 C 377,444 397,411 428,410 L 1163,1116 C 1174,1127 1196,1133 1229,1133 1271,1133 1292,1118 1292,1087 L 1292,965 C 1292,929 1282,901 1262,881 L 442,47 C 390,-6 338,-33 285,-33 Z"/>
  </g>
  <g id="bullet-char-template-9679" transform="scale(0.00048828125,-0.00048828125)">
   <path d="M 813,0 C 632,0 489,54 383,161 276,268 223,411 223,592 223,773 276,916 383,1023 489,1130 632,1184 813,1184 992,1184 1136,1130 1245,1023 1353,916 1407,772 1407,592 1407,412 1353,268 1245,161 1136,54 992,0 813,0 Z"/>
  </g>
  <g id="bullet-char-template-8226" transform="scale(0.00048828125,-0.00048828125)">
   <path d="M 346,457 C 273,457 209,483 155,535 101,586 74,649 74,723 74,796 101,859 155,911 209,963 273,989 346,989 419,989 480,963 531,910 582,859 608,796 608,723 608,648 583,586 532,535 482,483 420,457 346,457 Z"/>
  </g>
  <g id="bullet-char-template-8211" transform="scale(0.00048828125,-0.00048828125)">
   <path d="M -4,459 L 1135,459 1135,606 -4,606 -4,459 Z"/>
  </g>
  <g id="bullet-char-template-61548" transform="scale(0.00048828125,-0.00048828125)">
   <path d="M 173,740 C 173,903 231,1043 346,1159 462,1274 601,1332 765,1332 928,1332 1067,1274 1183,1159 1299,1043 1357,903 1357,740 1357,577 1299,437 1183,322 1067,206 928,148 765,148 601,148 462,206 346,322 231,437 173,577 173,740 Z"/>
  </g>
 </defs>
 <g class="Page">
  <g class="com.sun.star.drawing.ClosedBezierShape">
   <g id="id3">
    <rect class="BoundingBox" stroke="none" fill="none" x="55567" y="32583" width="6842" height="2013"/>
    <path fill="rgb(199,196,194)" stroke="none" d="M 62383,34595 C 62430,34478 62424,34276 62219,34291 62110,34299 62020,34373 61942,34449 61991,34366 61924,34247 61829,34225 61735,34203 61635,34259 61580,34339 61650,34198 61713,34050 61726,33894 61740,33737 61697,33569 61581,33462 61421,33315 61165,33324 60967,33414 60682,33543 60483,33804 60326,34078 60363,33947 60299,33785 60176,33716 60017,33629 59805,33684 59681,33815 59680,33732 59613,33655 59530,33642 59448,33629 59361,33682 59334,33761 59323,33657 59303,33540 59218,33479 59136,33420 59018,33436 58933,33491 58848,33545 58788,33630 58731,33712 58860,33410 58743,33035 58494,32821 58245,32607 57888,32543 57566,32607 57243,32670 56953,32850 56710,33071 56468,33293 55765,34306 55567,34569 L 55907,34595 62383,34595 Z"/>
   </g>
  </g>
  <g class="com.sun.star.drawing.LineShape">
   <g id="id4">
    <rect class="BoundingBox" stroke="none" fill="none" x="56623" y="27163" width="1500" height="7266"/>
    <path fill="none" stroke="rgb(47,44,43)" stroke-width="71" stroke-linejoin="miter" d="M 56658,27170 L 58087,34421"/>
   </g>
  </g>
  <g class="com.sun.star.drawing.LineShape">
   <g id="id5">
    <rect class="BoundingBox" stroke="none" fill="none" x="55277" y="27163" width="1500" height="7266"/>
    <path fill="none" stroke="rgb(47,44,43)" stroke-width="71" stroke-linejoin="miter" d="M 55312,27170 L 56741,34421"/>
   </g>
  </g>
  <g class="com.sun.star.drawing.LineShape">
   <g id="id6">
    <rect class="BoundingBox" stroke="none" fill="none" x="55563" y="27812" width="1284" height="109"/>
    <path fill="none" stroke="rgb(47,44,43)" stroke-width="107" stroke-linejoin="miter" stroke-linecap="round" d="M 55617,27866 L 56792,27866"/>
   </g>
  </g>
  <g class="com.sun.star.drawing.LineShape">
   <g id="id7">
    <rect class="BoundingBox" stroke="none" fill="none" x="55707" y="28631" width="1284" height="109"/>
    <path fill="none" stroke="rgb(47,44,43)" stroke-width="107" stroke-linejoin="miter" stroke-linecap="round" d="M 55761,28685 L 56936,28685"/>
   </g>
  </g>
  <g class="com.sun.star.drawing.LineShape">
   <g id="id8">
    <rect class="BoundingBox" stroke="none" fill="none" x="55851" y="29450" width="1284" height="109"/>
    <path fill="none" stroke="rgb(47,44,43)" stroke-width="107" stroke-linejoin="miter" stroke-linecap="round" d="M 55905,29504 L 57080,29504"/>
   </g>
  </g>
  <g class="com.sun.star.drawing.LineShape">
   <g id="id9">
    <rect class="BoundingBox" stroke="none" fill="none" x="55995" y="30270" width="1284" height="109"/>
    <path fill="none" stroke="rgb(47,44,43)" stroke-width="107" stroke-linejoin="miter" stroke-linecap="round" d="M 56049,30324 L 57224,30324"/>
   </g>
  </g>
  <g class="com.sun.star.drawing.LineShape">
   <g id="id10">
    <rect class="BoundingBox" stroke="none" fill="none" x="56139" y="31089" width="1285" height="109"/>
    <path fill="none" stroke="rgb(47,44,43)" stroke-width="107" stroke-linejoin="miter" stroke-linecap="round" d="M 56193,31143 L 57369,31143"/>
   </g>
  </g>
  <g class="com.sun.star.drawing.LineShape">
   <g id="id11">
    <rect class="BoundingBox" stroke="none" fill="none" x="56283" y="31909" width="1285" height="109"/>
    <path fill="none" stroke="rgb(47,44,43)" stroke-width="107" stroke-linejoin="miter" stroke-linecap="round" d="M 56337,31963 L 57513,31963"/>
   </g>
  </g>
  <g class="com.sun.star.drawing.LineShape">
   <g id="id12">
    <rect class="BoundingBox" stroke="none" fill="none" x="56428" y="32728" width="1284" height="109"/>
    <path fill="none" stroke="rgb(47,44,43)" stroke-width="107" stroke-linejoin="miter" stroke-linecap="round" d="M 56482,32782 L 57657,32782"/>
   </g>
  </g>
  <g class="com.sun.star.drawing.LineShape">
   <g id="id13">
    <rect class="BoundingBox" stroke="none" fill="none" x="56572" y="33547" width="1284" height="109"/>
    <path fill="none" stroke="rgb(47,44,43)" stroke-width="107" stroke-linejoin="miter" stroke-linecap="round" d="M 56626,33601 L 57801,33601"/>
   </g>
  </g>
  <g class="com.sun.star.drawing.ClosedBezierShape">
   <g id="id14">
    <rect class="BoundingBox" stroke="none" fill="none" x="54790" y="24751" width="1813" height="1813"/>
    <path fill="rgb(100,135,196)" stroke="none" d="M 55056,25017 C 55077,24996 55099,24976 55122,24957 55145,24938 55168,24920 55193,24904 55219,24888 55244,24872 55270,24858 55296,24844 55323,24832 55351,24820 55378,24809 55406,24799 55434,24790 55463,24782 55491,24775 55520,24769 55549,24763 55579,24759 55608,24756 55638,24753 55667,24751 55697,24751 55727,24751 55756,24753 55786,24756 55815,24759 55844,24763 55874,24769 55903,24775 55931,24782 55960,24790 55988,24799 56016,24809 56043,24820 56071,24832 56098,24844 56124,24858 56150,24872 56175,24888 56200,24904 56225,24920 56248,24938 56271,24957 56294,24976 56316,24996 56337,25017 56358,25038 56378,25060 56397,25082 56416,25105 56433,25129 56450,25154 56466,25178 56481,25204 56495,25230 56509,25256 56522,25283 56533,25310 56545,25338 56555,25366 56563,25394 56572,25422 56579,25451 56585,25480 56591,25509 56595,25539 56598,25568 56601,25598 56602,25627 56602,25657 56602,25686 56601,25716 56598,25746 56595,25775 56591,25804 56585,25833 56579,25862 56572,25891 56563,25920 56555,25948 56545,25976 56533,26003 56522,26031 56509,26057 56495,26084 56481,26110 56466,26135 56450,26160 56433,26184 56416,26208 56397,26231 56378,26255 56358,26277 56337,26298 56316,26319 56294,26339 56271,26358 56248,26376 56225,26394 56200,26411 56175,26427 56150,26442 56124,26456 56098,26470 56071,26483 56043,26494 56016,26506 55988,26515 55960,26524 55931,26533 55903,26540 55874,26546 55845,26551 55815,26556 55786,26559 55756,26562 55727,26563 55697,26563 55667,26563 55638,26562 55608,26559 55579,26556 55549,26551 55520,26546 55491,26540 55463,26533 55434,26524 55406,26516 55378,26506 55351,26494 55323,26483 55296,26470 55270,26456 55244,26442 55219,26427 55193,26411 55168,26394 55145,26376 55122,26358 55099,26339 55077,26319 55056,26298 55035,26277 55015,26255 54996,26231 54977,26208 54960,26184 54943,26160 54927,26135 54912,26110 54898,26084 54884,26057 54871,26031 54860,26003 54848,25976 54838,25948 54830,25920 54821,25891 54814,25862 54808,25833 54802,25804 54798,25775 54795,25746 54792,25716 54791,25686 54791,25657 54791,25627 54792,25598 54795,25568 54798,25539 54802,25509 54808,25480 54814,25451 54821,25422 54830,25394 54838,25366 54848,25338 54860,25310 54871,25283 54884,25256 54898,25230 54912,25204 54927,25178 54943,25154 54960,25129 54977,25105 54996,25082 55015,25060 55035,25038 55056,25017 Z"/>
   </g>
  </g>
  <g class="com.sun.star.drawing.ClosedBezierShape">
   <g id="id15">
    <rect class="BoundingBox" stroke="none" fill="none" x="55619" y="27503" width="429" height="342"/>
    <path fill="rgb(191,122,98)" stroke="none" d="M 55918,27558 C 55832,27520 55738,27501 55645,27503 55636,27503 55625,27504 55621,27512 55617,27518 55619,27525 55622,27531 55629,27544 55644,27550 55658,27555 55702,27572 55748,27587 55794,27598 55751,27586 55705,27589 55660,27593 55650,27593 55639,27594 55631,27600 55623,27605 55618,27617 55623,27625 55627,27634 55637,27636 55646,27638 55689,27644 55733,27651 55776,27657 55738,27660 55700,27663 55662,27666 55654,27667 55646,27668 55639,27672 55632,27676 55628,27685 55631,27692 55634,27701 55645,27703 55654,27704 55700,27708 55746,27712 55791,27717 55770,27730 55742,27721 55717,27724 55693,27727 55671,27741 55657,27761 55656,27763 55655,27765 55655,27767 55654,27773 55660,27778 55665,27780 55693,27793 55726,27780 55756,27787 55768,27790 55779,27797 55791,27802 55831,27823 55874,27840 55919,27843 55964,27846 56011,27833 56045,27802 56047,27799 56047,27792 56044,27794 L 55918,27558 Z"/>
   </g>
  </g>
  <g class="com.sun.star.drawing.ClosedBezierShape">
   <g id="id16">
    <rect class="BoundingBox" stroke="none" fill="none" x="55728" y="27386" width="255" height="994"/>
    <path fill="none" stroke="rgb(47,44,43)" stroke-width="71" stroke-linejoin="miter" d="M 55888,28343 C 55854,28346 55823,28320 55821,28286 L 55764,27488 C 55761,27454 55787,27424 55821,27422 55857,27419 55886,27445 55889,27479 L 55946,28277 C 55948,28311 55923,28341 55888,28343 Z"/>
   </g>
  </g>
  <g class="com.sun.star.drawing.LineShape">
   <g id="id17">
    <rect class="BoundingBox" stroke="none" fill="none" x="55725" y="26557" width="198" height="1746"/>
    <path fill="none" stroke="rgb(47,44,43)" stroke-width="71" stroke-linejoin="miter" d="M 55761,26560 L 55886,28299"/>
   </g>
  </g>
  <g class="com.sun.star.drawing.ClosedBezierShape">
   <g id="id18">
    <rect class="BoundingBox" stroke="none" fill="none" x="55767" y="27487" width="267" height="318"/>
    <path fill="rgb(191,122,98)" stroke="none" d="M 55950,27539 C 55909,27496 55840,27470 55787,27501 55779,27505 55773,27511 55770,27518 55757,27542 55794,27533 55816,27541 55817,27541 55819,27542 55820,27542 55844,27552 55854,27579 55844,27603 55827,27646 55838,27701 55869,27737 55909,27783 55973,27803 56033,27804 L 56030,27689 C 56010,27635 55989,27581 55950,27539 Z"/>
   </g>
  </g>
  <g class="com.sun.star.drawing.ClosedBezierShape">
   <g id="id19">
    <rect class="BoundingBox" stroke="none" fill="none" x="55971" y="26822" width="1738" height="1304"/>
    <path fill="rgb(47,44,43)" stroke="none" d="M 57572,26822 C 57514,26834 57466,26875 57432,26923 57397,26970 57373,27025 57345,27076 57230,27282 57039,27442 56949,27659 56942,27674 56936,27691 56921,27699 56908,27707 56891,27705 56876,27704 56626,27674 56377,27631 56133,27573 56078,27560 56004,27555 55982,27606 55976,27620 55975,27636 55975,27652 55974,27701 55972,27750 55971,27799 55971,27825 55970,27854 55984,27877 56000,27902 56030,27915 56059,27925 56288,28011 56527,28072 56769,28108 56889,28125 57012,28136 57128,28104 57278,28063 57400,27953 57507,27839 57589,27751 57669,27656 57707,27541 L 57572,26822 Z"/>
   </g>
  </g>
  <g class="com.sun.star.drawing.ClosedBezierShape">
   <g id="id20">
    <rect class="BoundingBox" stroke="none" fill="none" x="56409" y="32145" width="544" height="638"/>
    <path fill="rgb(143,87,48)" stroke="none" d="M 56649,32474 L 56708,32145 56946,32147 56952,32716 C 56951,32732 56939,32745 56922,32746 L 56433,32781 C 56412,32783 56402,32755 56419,32743 L 56534,32658 C 56595,32613 56636,32547 56649,32474 Z"/>
   </g>
  </g>
  <g class="com.sun.star.drawing.ClosedBezierShape">
   <g id="id21">
    <rect class="BoundingBox" stroke="none" fill="none" x="58973" y="28173" width="755" height="637"/>
    <path fill="rgb(143,87,48)" stroke="none" d="M 59385,28541 L 59187,28809 58973,28702 59219,28189 C 59227,28175 59245,28169 59260,28176 L 59713,28361 C 59733,28369 59730,28398 59709,28402 L 59568,28427 C 59495,28440 59429,28481 59385,28541 Z"/>
   </g>
  </g>
  <g class="com.sun.star.drawing.ClosedBezierShape">
   <g id="id22">
    <rect class="BoundingBox" stroke="none" fill="none" x="56635" y="28159" width="1230" height="4239"/>
    <path fill="rgb(47,44,43)" stroke="none" d="M 57070,28332 L 57827,28159 C 58040,28900 57254,29971 57195,30078 57136,30185 57308,30641 57178,31177 56983,31977 56998,32370 56998,32370 L 56638,32396 C 56596,29955 57070,28332 57070,28332 Z"/>
   </g>
  </g>
  <g class="com.sun.star.drawing.ClosedBezierShape">
   <g id="id23">
    <rect class="BoundingBox" stroke="none" fill="none" x="56905" y="28455" width="852" height="1443"/>
    <path fill="rgb(47,44,43)" stroke="none" d="M 57698,28665 C 57684,28608 57661,28544 57607,28520 L 57115,28455 C 57067,28492 57029,28540 57000,28593 56973,28708 56940,28859 56905,29044 56917,29362 57071,29678 57309,29897 57436,29696 57635,29360 57756,29001 57746,28887 57726,28775 57698,28665 Z"/>
   </g>
  </g>
  <g class="com.sun.star.drawing.ClosedBezierShape">
   <g id="id24">
    <rect class="BoundingBox" stroke="none" fill="none" x="56953" y="28593" width="860" height="699"/>
    <path fill="rgb(47,44,43)" stroke="none" d="M 56953,28758 C 57050,28895 57184,29001 57328,29084 57473,29167 57628,29229 57784,29290 57827,29146 57812,28992 57791,28841 57783,28779 57773,28717 57762,28655 57760,28639 57757,28623 57747,28610 57738,28597 57720,28589 57706,28595 L 56953,28758 Z"/>
   </g>
  </g>
  <g class="com.sun.star.drawing.ClosedBezierShape">
   <g id="id25">
    <rect class="BoundingBox" stroke="none" fill="none" x="57579" y="28360" width="1741" height="1865"/>
    <path fill="rgb(47,44,43)" stroke="none" d="M 59060,28508 C 59060,28508 58676,29113 58500,29251 58336,29380 58273,29511 58248,29598 58280,29346 58340,28690 58150,28360 L 57579,28613 C 57594,28672 57539,30081 58165,30216 58792,30351 59319,28657 59319,28657 L 59060,28508 Z"/>
   </g>
  </g>
  <g class="com.sun.star.drawing.PolyPolygonShape">
   <g id="id26">
    <rect class="BoundingBox" stroke="none" fill="none" x="57337" y="26008" width="407" height="754"/>
    <path fill="rgb(191,122,98)" stroke="none" d="M 57549,26008 L 57743,26635 57445,26761 57337,26289 57549,26008 Z"/>
   </g>
  </g>
  <g class="com.sun.star.drawing.ClosedBezierShape">
   <g id="id27">
    <rect class="BoundingBox" stroke="none" fill="none" x="57317" y="26420" width="513" height="333"/>
    <path fill="rgb(63,52,112)" stroke="none" d="M 57390,26752 L 57318,26519 C 57312,26498 57326,26475 57348,26472 57426,26460 57595,26435 57705,26421 57731,26417 57756,26432 57766,26457 L 57828,26612 57751,26744 57390,26752 Z"/>
   </g>
  </g>
  <g class="com.sun.star.drawing.ClosedBezierShape">
   <g id="id28">
    <rect class="BoundingBox" stroke="none" fill="none" x="57083" y="25478" width="722" height="877"/>
    <path fill="rgb(191,122,98)" stroke="none" d="M 57148,25786 C 57140,25863 57144,25954 57091,26008 57080,26018 57081,26034 57092,26043 L 57103,26053 C 57111,26060 57115,26071 57114,26082 57106,26141 57096,26355 57277,26353 57409,26352 57551,26333 57649,26240 57829,26069 57869,25727 57675,25551 57495,25388 57209,25517 57156,25738 57152,25752 57150,25768 57148,25786 Z"/>
   </g>
  </g>
  <g class="com.sun.star.drawing.ClosedBezierShape">
   <g id="id29">
    <rect class="BoundingBox" stroke="none" fill="none" x="57011" y="25455" width="993" height="844"/>
    <path fill="rgb(47,44,43)" stroke="none" d="M 57519,25487 C 57443,25427 57331,25462 57244,25506 57175,25541 57109,25580 57046,25623 57033,25631 57020,25641 57015,25656 57003,25684 57030,25715 57060,25721 57089,25726 57119,25714 57147,25703 57125,25708 57119,25740 57133,25757 57148,25774 57174,25776 57195,25768 57216,25760 57233,25744 57249,25728 57253,25755 57263,25784 57287,25798 57310,25812 57349,25800 57350,25773 57338,25791 57341,25818 57357,25834 57372,25849 57399,25852 57418,25840 57396,25898 57418,25969 57470,26004 57455,26018 57464,26043 57475,26061 57514,26130 57553,26198 57593,26267 57603,26284 57620,26304 57637,26296 57644,26293 57648,26288 57652,26282 57705,26214 57758,26145 57811,26076 57829,26101 57874,26084 57882,26054 57890,26025 57876,25995 57863,25967 57870,26004 57928,26011 57950,25981 57972,25951 57958,25905 57929,25882 57940,25909 57985,25910 57998,25885 58007,25867 58001,25846 57994,25828 57945,25690 57840,25571 57709,25504 57644,25470 57558,25451 57500,25497 L 57519,25487 Z"/>
   </g>
  </g>
  <g class="com.sun.star.drawing.ClosedBezierShape">
   <g id="id30">
    <rect class="BoundingBox" stroke="none" fill="none" x="57455" y="25478" width="882" height="1143"/>
    <path fill="rgb(47,44,43)" stroke="none" d="M 57462,26022 C 57447,26094 57460,26197 57479,26269 57485,26289 57493,26311 57512,26322 57530,26333 57559,26327 57564,26306 57569,26353 57584,26399 57606,26440 57625,26474 57664,26508 57697,26489 57721,26476 57725,26443 57725,26416 57744,26475 57769,26534 57815,26575 57861,26616 57932,26635 57987,26607 58031,26584 58057,26534 58063,26485 58069,26435 58057,26385 58042,26337 58070,26371 58113,26405 58153,26388 58181,26377 58196,26345 58196,26315 58196,26285 58185,26256 58173,26229 58210,26256 58258,26284 58299,26262 58327,26247 58340,26211 58335,26179 58330,26147 58311,26119 58290,26094 58257,26055 58217,26022 58173,25995 58192,26005 58212,26015 58233,26017 58255,26019 58278,26013 58291,25996 58304,25978 58303,25953 58293,25934 58284,25914 58267,25899 58250,25886 58206,25852 58155,25826 58101,25811 58122,25798 58156,25802 58165,25780 58172,25763 58160,25745 58148,25732 58036,25611 57848,25534 57690,25493 57661,25486 57603,25476 57574,25479 57544,25483 57573,25510 57560,25538 L 57462,26022 Z"/>
   </g>
  </g>
  <g class="com.sun.star.drawing.ClosedBezierShape">
   <g id="id31">
    <rect class="BoundingBox" stroke="none" fill="none" x="57332" y="25903" width="162" height="179"/>
    <path fill="rgb(191,122,98)" stroke="none" d="M 57352,25951 C 57323,25996 57326,26049 57359,26071 57393,26093 57443,26076 57472,26033 57502,25990 57499,25936 57464,25913 57431,25891 57381,25908 57352,25951 Z"/>
   </g>
  </g>
  <g class="com.sun.star.drawing.OpenBezierShape">
   <g id="id32">
    <rect class="BoundingBox" stroke="none" fill="none" x="57391" y="25951" width="36" height="60"/>
    <path fill="none" stroke="rgb(47,44,43)" stroke-width="17" stroke-linejoin="miter" d="M 57421,25959 C 57408,25965 57402,25980 57400,25994 57400,25996 57399,25998 57400,25999 57401,26001 57403,26002 57405,26001 L 57405,25994"/>
   </g>
  </g>
  <g class="com.sun.star.drawing.OpenBezierShape">
   <g id="id33">
    <rect class="BoundingBox" stroke="none" fill="none" x="57193" y="25922" width="30" height="45"/>
    <path fill="none" stroke="rgb(47,44,43)" stroke-width="17" stroke-linejoin="miter" d="M 57207,25927 C 57212,25934 57213,25943 57212,25951 57211,25953 57210,25956 57206,25957 57203,25957 57201,25954 57202,25951 57202,25948 57205,25946 57209,25946"/>
   </g>
  </g>
  <g class="com.sun.star.drawing.OpenBezierShape">
   <g id="id34">
    <rect class="BoundingBox" stroke="none" fill="none" x="57280" y="26339" width="95" height="27"/>
    <path fill="none" stroke="rgb(47,44,43)" stroke-width="17" stroke-linejoin="miter" d="M 57282,26354 C 57312,26358 57342,26356 57371,26348"/>
   </g>
  </g>
  <g class="com.sun.star.drawing.ClosedBezierShape">
   <g id="id35">
    <rect class="BoundingBox" stroke="none" fill="none" x="55632" y="26799" width="550" height="508"/>
    <path fill="rgb(191,122,98)" stroke="none" d="M 55659,26933 C 55660,26886 55610,26869 55643,26838 55691,26794 55960,26956 55924,26896 55878,26820 55893,26787 55926,26803 55959,26819 56022,26886 56036,26976 56051,27067 56180,27148 56180,27148 L 56047,27306 C 56034,27303 55951,27223 55890,27208 55828,27192 55770,27165 55699,27135 55628,27104 55658,26980 55659,26933 Z"/>
   </g>
  </g>
  <g class="com.sun.star.drawing.ClosedBezierShape">
   <g id="id36">
    <rect class="BoundingBox" stroke="none" fill="none" x="57515" y="26603" width="490" height="502"/>
    <path fill="rgb(63,52,112)" stroke="none" d="M 57828,26611 L 57516,26604 57607,26867 58004,27104 C 57973,26769 57828,26611 57828,26611 Z"/>
   </g>
  </g>
  <g class="com.sun.star.drawing.ClosedBezierShape">
   <g id="id37">
    <rect class="BoundingBox" stroke="none" fill="none" x="56920" y="26604" width="1382" height="2201"/>
    <path fill="rgb(78,67,140)" stroke="none" d="M 57976,26917 C 58024,27066 58014,27371 57968,27587 57954,27655 57961,27725 57989,27788 L 58003,27822 C 58150,28155 58277,28401 58301,28764 58301,28775 58293,28785 58281,28786 58152,28793 57435,28827 56958,28778 56932,28775 56915,28750 56922,28725 L 57191,27840 C 57218,27752 57214,27656 57178,27571 57126,27444 57055,27250 57051,27117 57046,26974 57127,26876 57208,26770 57243,26726 57282,26692 57325,26667 57570,26519 57889,26645 57976,26917 Z"/>
   </g>
  </g>
  <g class="com.sun.star.drawing.ClosedBezierShape">
   <g id="id38">
    <rect class="BoundingBox" stroke="none" fill="none" x="56920" y="27443" width="1382" height="1362"/>
    <path fill="rgb(63,52,112)" stroke="none" d="M 58281,28785 C 58293,28784 58301,28774 58301,28763 58279,28417 58162,28178 58025,27869 58017,27868 58010,27868 58002,27869 57983,27873 57966,27885 57949,27893 57874,27926 57787,27885 57720,27838 57577,27735 57458,27599 57377,27443 L 57200,27638 C 57214,27704 57211,27773 57191,27839 L 56922,28724 C 56915,28749 56932,28775 56958,28777 57435,28826 58152,28792 58281,28785 Z"/>
   </g>
  </g>
  <g class="com.sun.star.drawing.ClosedBezierShape">
   <g id="id39">
    <rect class="BoundingBox" stroke="none" fill="none" x="57045" y="27048" width="401" height="1024"/>
    <path fill="rgb(47,44,43)" stroke="none" d="M 57045,28071 C 57064,28055 57079,28033 57091,28012 57266,27712 57445,27692 57424,27195 L 57445,27048 C 57309,27164 57180,27289 57059,27422 57076,27468 57093,27512 57109,27550 57146,27636 57150,27731 57123,27820 L 57045,28071 Z"/>
   </g>
  </g>
  <g class="com.sun.star.drawing.OpenBezierShape">
   <g id="id40">
    <rect class="BoundingBox" stroke="none" fill="none" x="55845" y="26874" width="111" height="55"/>
    <path fill="none" stroke="rgb(47,44,43)" stroke-width="17" stroke-linejoin="miter" d="M 55952,26919 C 55917,26908 55883,26895 55849,26882"/>
   </g>
  </g>
  <g class="com.sun.star.drawing.ClosedBezierShape">
   <g id="id41">
    <rect class="BoundingBox" stroke="none" fill="none" x="58420" y="29235" width="1744" height="1247"/>
    <path fill="rgb(78,67,140)" stroke="none" d="M 60151,29241 C 60151,29241 59748,29191 59625,29388 59503,29583 59267,29997 59267,29997 L 58638,29541 C 58611,29522 58575,29527 58554,29552 L 58434,29696 C 58416,29718 58415,29749 58432,29772 58553,29938 59036,30566 59340,30471 59687,30363 60247,29568 60151,29241 Z"/>
   </g>
  </g>
  <g class="com.sun.star.drawing.ClosedBezierShape">
   <g id="id42">
    <rect class="BoundingBox" stroke="none" fill="none" x="54755" y="24715" width="1884" height="1885"/>
    <path fill="none" stroke="rgb(47,44,43)" stroke-width="71" stroke-linejoin="miter" d="M 55056,25017 C 55077,24996 55099,24976 55122,24957 55145,24938 55168,24920 55193,24904 55219,24888 55244,24872 55270,24858 55296,24844 55323,24832 55351,24820 55378,24809 55406,24799 55434,24790 55463,24782 55491,24775 55520,24769 55549,24763 55579,24759 55608,24756 55638,24753 55667,24751 55697,24751 55727,24751 55756,24753 55786,24756 55815,24759 55844,24763 55874,24769 55903,24775 55931,24782 55960,24790 55988,24799 56016,24809 56043,24820 56071,24832 56098,24844 56124,24858 56150,24872 56175,24888 56200,24904 56225,24920 56248,24938 56271,24957 56294,24976 56316,24996 56337,25017 56358,25038 56378,25060 56397,25082 56416,25105 56433,25129 56450,25154 56466,25178 56481,25204 56495,25230 56509,25256 56522,25283 56533,25310 56545,25338 56555,25366 56563,25394 56572,25422 56579,25451 56585,25480 56591,25509 56595,25539 56598,25568 56601,25598 56602,25627 56602,25657 56602,25686 56601,25716 56598,25746 56595,25775 56591,25804 56585,25833 56579,25862 56572,25891 56563,25920 56555,25948 56545,25976 56533,26003 56522,26031 56509,26057 56495,26084 56481,26110 56466,26135 56450,26160 56433,26184 56416,26208 56397,26231 56378,26255 56358,26277 56337,26298 56316,26319 56294,26339 56271,26358 56248,26376 56225,26394 56200,26411 56175,26427 56150,26442 56124,26456 56098,26470 56071,26483 56043,26494 56016,26506 55988,26515 55960,26524 55931,26533 55903,26540 55874,26546 55845,26551 55815,26556 55786,26559 55756,26562 55727,26563 55697,26563 55667,26563 55638,26562 55608,26559 55579,26556 55549,26551 55520,26546 55491,26540 55463,26533 55434,26524 55406,26516 55378,26506 55351,26494 55323,26483 55296,26470 55270,26456 55244,26442 55219,26427 55193,26411 55168,26394 55145,26376 55122,26358 55099,26339 55077,26319 55056,26298 55035,26277 55015,26255 54996,26231 54977,26208 54960,26184 54943,26160 54927,26135 54912,26110 54898,26084 54884,26057 54871,26031 54860,26003 54848,25976 54838,25948 54830,25920 54821,25891 54814,25862 54808,25833 54802,25804 54798,25775 54795,25746 54792,25716 54791,25686 54791,25657 54791,25627 54792,25598 54795,25568 54798,25539 54802,25509 54808,25480 54814,25451 54821,25422 54830,25394 54838,25366 54848,25338 54860,25310 54871,25283 54884,25256 54898,25230 54912,25204 54927,25178 54943,25154 54960,25129 54977,25105 54996,25082 55015,25060 55035,25038 55056,25017 Z"/>
   </g>
  </g>
  <g class="com.sun.star.drawing.OpenBezierShape">
   <g id="id43">
    <rect class="BoundingBox" stroke="none" fill="none" x="57272" y="27307" width="239" height="341"/>
    <path fill="none" stroke="rgb(47,44,43)" stroke-width="17" stroke-linejoin="miter" d="M 57502,27312 C 57428,27423 57355,27532 57280,27642"/>
   </g>
  </g>
  <g class="com.sun.star.drawing.LineShape">
   <g id="id44">
    <rect class="BoundingBox" stroke="none" fill="none" x="56733" y="27487" width="45" height="54"/>
    <path fill="none" stroke="rgb(47,44,43)" stroke-width="17" stroke-linejoin="miter" d="M 56741,27535 L 56769,27492"/>
   </g>
  </g>
  <g class="com.sun.star.drawing.OpenBezierShape">
   <g id="id45">
    <rect class="BoundingBox" stroke="none" fill="none" x="57205" y="25814" width="48" height="35"/>
    <path fill="none" stroke="rgb(47,44,43)" stroke-width="17" stroke-linejoin="miter" d="M 57206,25823 C 57220,25824 57234,25830 57245,25841"/>
   </g>
  </g>
  <g class="com.sun.star.drawing.OpenBezierShape">
   <g id="id46">
    <rect class="BoundingBox" stroke="none" fill="none" x="57174" y="26076" width="49" height="48"/>
    <path fill="none" stroke="rgb(47,44,43)" stroke-width="17" stroke-linejoin="miter" d="M 57179,26115 C 57192,26107 57205,26095 57215,26081"/>
   </g>
  </g>
  <g class="com.sun.star.drawing.ClosedBezierShape">
   <g id="id47">
    <rect class="BoundingBox" stroke="none" fill="none" x="53068" y="29136" width="2899" height="1356"/>
    <path fill="rgb(238,238,238)" stroke="none" d="M 55795,30150 L 55718,30150 C 55726,30113 55729,30074 55728,30035 55726,29983 55712,29927 55671,29896 55630,29866 55573,29868 55526,29885 55525,29885 55525,29885 55525,29885 55528,29845 55529,29804 55528,29763 55524,29653 55495,29534 55407,29468 55321,29405 55201,29409 55100,29445 55070,29456 55041,29469 55013,29484 54995,29373 54952,29267 54864,29202 54750,29117 54590,29123 54456,29171 54237,29248 54061,29421 53945,29622 53934,29640 53924,29658 53915,29677 53857,29650 53785,29656 53723,29678 53604,29720 53508,29814 53445,29923 53403,29994 53375,30071 53353,30150 L 53237,30150 C 53144,30150 53068,30226 53068,30320 53068,30414 53144,30491 53237,30491 L 55795,30491 C 55889,30491 55965,30414 55965,30320 55965,30226 55889,30150 55795,30150 Z"/>
   </g>
  </g>
  <g class="com.sun.star.drawing.ClosedBezierShape">
   <g id="id48">
    <rect class="BoundingBox" stroke="none" fill="none" x="59121" y="30416" width="2515" height="1177"/>
    <path fill="rgb(238,238,238)" stroke="none" d="M 61487,31297 L 61420,31297 C 61427,31264 61430,31230 61429,31197 61427,31152 61415,31102 61379,31075 61344,31049 61295,31051 61253,31065 61253,31065 61253,31066 61252,31066 61256,31030 61256,30995 61255,30960 61252,30864 61227,30761 61151,30704 61076,30649 60972,30653 60884,30684 60858,30693 60833,30704 60809,30718 60793,30622 60756,30530 60679,30473 60580,30399 60441,30405 60325,30446 60135,30513 59983,30663 59882,30837 59873,30853 59864,30869 59856,30885 59805,30862 59743,30867 59689,30886 59586,30922 59504,31003 59449,31098 59413,31161 59388,31228 59370,31297 L 59269,31297 C 59188,31297 59122,31363 59122,31444 59122,31526 59188,31592 59269,31592 L 61487,31592 C 61569,31592 61635,31526 61635,31444 61635,31363 61569,31297 61487,31297 Z"/>
   </g>
  </g>
  <g class="com.sun.star.drawing.OpenBezierShape">
   <g id="id49">
    <rect class="BoundingBox" stroke="none" fill="none" x="58177" y="29708" width="29" height="89"/>
    <path fill="none" stroke="rgb(70,71,73)" stroke-width="17" stroke-linejoin="miter" d="M 58196,29711 C 58187,29737 58184,29767 58187,29795"/>
   </g>
  </g>
  <g class="com.sun.star.drawing.OpenBezierShape">
   <g id="id50">
    <rect class="BoundingBox" stroke="none" fill="none" x="58240" y="29707" width="26" height="96"/>
    <path fill="none" stroke="rgb(70,71,73)" stroke-width="17" stroke-linejoin="miter" d="M 58256,29710 C 58248,29739 58247,29769 58251,29800"/>
   </g>
  </g>
  <g class="com.sun.star.drawing.OpenBezierShape">
   <g id="id51">
    <rect class="BoundingBox" stroke="none" fill="none" x="58386" y="26025" width="57" height="257"/>
    <path fill="none" stroke="rgb(47,44,43)" stroke-width="17" stroke-linejoin="miter" d="M 58420,26028 C 58444,26111 58434,26201 58394,26277"/>
   </g>
  </g>
  <g class="com.sun.star.drawing.OpenBezierShape">
   <g id="id52">
    <rect class="BoundingBox" stroke="none" fill="none" x="58516" y="26085" width="34" height="135"/>
    <path fill="none" stroke="rgb(47,44,43)" stroke-width="17" stroke-linejoin="miter" d="M 58535,26087 C 58540,26116 58541,26146 58538,26175 58537,26189 58533,26206 58519,26210"/>
   </g>
  </g>
  <g class="com.sun.star.drawing.OpenBezierShape">
   <g id="id53">
    <rect class="BoundingBox" stroke="none" fill="none" x="57044" y="25345" width="70" height="110"/>
    <path fill="none" stroke="rgb(47,44,43)" stroke-width="17" stroke-linejoin="miter" d="M 57052,25349 C 57069,25382 57087,25416 57105,25449"/>
   </g>
  </g>
  <g class="com.sun.star.drawing.OpenBezierShape">
   <g id="id54">
    <rect class="BoundingBox" stroke="none" fill="none" x="57265" y="25247" width="42" height="120"/>
    <path fill="none" stroke="rgb(47,44,43)" stroke-width="17" stroke-linejoin="miter" d="M 57274,25249 C 57282,25288 57290,25326 57297,25364"/>
   </g>
  </g>
  <g class="com.sun.star.drawing.OpenBezierShape">
   <g id="id55">
    <rect class="BoundingBox" stroke="none" fill="none" x="57483" y="25277" width="24" height="48"/>
    <path fill="none" stroke="rgb(47,44,43)" stroke-width="17" stroke-linejoin="miter" d="M 57492,25278 C 57493,25293 57496,25308 57497,25323"/>
   </g>
  </g>
  <g class="com.sun.star.drawing.OpenBezierShape">
   <g id="id56">
    <rect class="BoundingBox" stroke="none" fill="none" x="57723" y="25239" width="42" height="128"/>
    <path fill="none" stroke="rgb(47,44,43)" stroke-width="17" stroke-linejoin="miter" d="M 57755,25241 C 57748,25282 57740,25322 57732,25364"/>
   </g>
  </g>
  <g class="com.sun.star.drawing.OpenBezierShape">
   <g id="id57">
    <rect class="BoundingBox" stroke="none" fill="none" x="57837" y="25392" width="80" height="91"/>
    <path fill="none" stroke="rgb(47,44,43)" stroke-width="17" stroke-linejoin="miter" d="M 57843,25475 C 57868,25452 57890,25425 57908,25397"/>
   </g>
  </g>
  <g class="com.sun.star.drawing.ClosedBezierShape">
   <g id="id58">
    <rect class="BoundingBox" stroke="none" fill="none" x="51827" y="32395" width="8307" height="2202"/>
    <path fill="rgb(238,238,238)" stroke="none" d="M 60132,34596 C 60125,34496 60031,34390 59923,34377 59768,34360 59626,34459 59501,34553 59532,34458 59563,34358 59550,34258 59538,34159 59468,34057 59368,34044 59321,34038 59273,34051 59228,34068 59077,34126 58942,34225 58841,34351 58856,34228 58706,34138 58585,34163 58463,34187 58371,34283 58288,34374 58295,34034 58255,33616 57943,33481 57764,33404 57550,33459 57391,33571 57232,33683 57116,33845 57003,34003 57091,33845 56946,33628 56766,33610 56586,33592 56417,33732 56354,33902 56465,33567 56489,33204 56421,32858 56393,32713 56343,32561 56223,32475 56124,32403 55993,32389 55871,32399 55549,32426 55250,32602 55033,32841 54816,33081 54673,33380 54575,33688 54513,33596 54375,33583 54274,33630 54173,33676 54101,33767 54032,33854 54020,33595 53985,33292 53760,33159 53564,33043 53299,33121 53135,33280 52971,33439 52885,33659 52803,33872 52774,33726 52561,33688 52439,33774 52317,33859 52266,34013 52222,34156 L 52147,34137 C 52071,34257 51917,34314 51855,34442 51831,34490 51824,34543 51830,34596 L 60132,34596 Z"/>
   </g>
  </g>
  <g class="com.sun.star.drawing.LineShape">
   <g id="id59">
    <rect class="BoundingBox" stroke="none" fill="none" x="53204" y="30481" width="2558" height="19"/>
    <path fill="none" stroke="rgb(47,44,43)" stroke-width="17" stroke-linejoin="miter" d="M 53204,30490 L 55761,30490"/>
   </g>
  </g>
  <g class="com.sun.star.drawing.LineShape">
   <g id="id60">
    <rect class="BoundingBox" stroke="none" fill="none" x="59099" y="31582" width="2559" height="19"/>
    <path fill="none" stroke="rgb(47,44,43)" stroke-width="17" stroke-linejoin="miter" d="M 59099,31591 L 61657,31591"/>
   </g>
  </g>
 </g>
</svg>