<?xml version="1.0" encoding="UTF-8"?>
<!DOCTYPE svg PUBLIC "-//W3C//DTD SVG 1.1//EN" "http://www.w3.org/Graphics/SVG/1.1/DTD/svg11.dtd">
<svg version="1.2" width="29.13mm" height="32.44mm" viewBox="36528 60963 2913 3244" preserveAspectRatio="xMidYMid" fill-rule="evenodd" stroke-width="28.222" stroke-linejoin="round" xmlns="http://www.w3.org/2000/svg" xmlns:ooo="http://xml.openoffice.org/svg/export" xmlns:xlink="http://www.w3.org/1999/xlink" xmlns:presentation="http://sun.com/xmlns/staroffice/presentation" xmlns:smil="http://www.w3.org/2001/SMIL20/" xmlns:anim="urn:oasis:names:tc:opendocument:xmlns:animation:1.0" xmlns:svg="urn:oasis:names:tc:opendocument:xmlns:svg-compatible:1.0" xml:space="preserve">
 <defs class="EmbeddedBulletChars">
  <g id="bullet-char-template-57356" transform="scale(0.00048828125,-0.00048828125)">
   <path d="M 580,1141 L 1163,571 580,0 -4,571 580,1141 Z"/>
  </g>
  <g id="bullet-char-template-57354" transform="scale(0.00048828125,-0.00048828125)">
   <path d="M 8,1128 L 1137,1128 1137,0 8,0 8,1128 Z"/>
  </g>
  <g id="bullet-char-template-10146" transform="scale(0.00048828125,-0.00048828125)">
   <path d="M 174,0 L 602,739 174,1481 1456,739 174,0 Z M 1358,739 L 309,1346 659,739 1358,739 Z"/>
  </g>
  <g id="bullet-char-template-10132" transform="scale(0.00048828125,-0.00048828125)">
   <path d="M 2015,739 L 1276,0 717,0 1260,543 174,543 174,936 1260,936 717,1481 1274,1481 2015,739 Z"/>
  </g>
  <g id="bullet-char-template-10007" transform="scale(0.00048828125,-0.00048828125)">
   <path d="M 0,-2 C -7,14 -16,27 -25,37 L 356,567 C 262,823 215,952 215,954 215,979 228,992 255,992 264,992 276,990 289,987 310,991 331,999 354,1012 L 381,999 492,748 772,1049 836,1024 860,1049 C 881,1039 901,1025 922,1006 886,937 835,863 770,784 769,783 710,716 594,584 L 774,223 C 774,196 753,168 711,139 L 727,119 C 717,90 699,76 672,76 641,76 570,178 457,381 L 164,-76 C 142,-110 111,-127 72,-127 30,-127 9,-110 8,-76 1,-67 -2,-52 -2,-32 -2,-23 -1,-13 0,-2 Z"/>
  </g>
  <g id="bullet-char-template-10004" transform="scale(0.00048828125,-0.00048828125)">
   <path d="M 285,-33 C 182,-33 111,30 74,156 52,228 41,333 41,471 41,549 55,616 82,672 116,743 169,778 240,778 293,778 328,747 346,684 L 369,508 C 377,444 397,411 428,410 L 1163,1116 C 1174,1127 1196,1133 1229,1133 1271,1133 1292,1118 1292,1087 L 1292,965 C 1292,929 1282,901 1262,881 L 442,47 C 390,-6 338,-33 285,-33 Z"/>
  </g>
  <g id="bullet-char-template-9679" transform="scale(0.00048828125,-0.00048828125)">
   <path d="M 813,0 C 632,0 489,54 383,161 276,268 223,411 223,592 223,773 276,916 383,1023 489,1130 632,1184 813,1184 992,1184 1136,1130 1245,1023 1353,916 1407,772 1407,592 1407,412 1353,268 1245,161 1136,54 992,0 813,0 Z"/>
  </g>
  <g id="bullet-char-template-8226" transform="scale(0.00048828125,-0.00048828125)">
   <path d="M 346,457 C 273,457 209,483 155,535 101,586 74,649 74,723 74,796 101,859 155,911 209,963 273,989 346,989 419,989 480,963 531,910 582,859 608,796 608,723 608,648 583,586 532,535 482,483 420,457 346,457 Z"/>
  </g>
  <g id="bullet-char-template-8211" transform="scale(0.00048828125,-0.00048828125)">
   <path d="M -4,459 L 1135,459 1135,606 -4,606 -4,459 Z"/>
  </g>
  <g id="bullet-char-template-61548" transform="scale(0.00048828125,-0.00048828125)">
   <path d="M 173,740 C 173,903 231,1043 346,1159 462,1274 601,1332 765,1332 928,1332 1067,1274 1183,1159 1299,1043 1357,903 1357,740 1357,577 1299,437 1183,322 1067,206 928,148 765,148 601,148 462,206 346,322 231,437 173,577 173,740 Z"/>
  </g>
 </defs>
 <g class="Page">
  <g class="com.sun.star.drawing.ClosedBezierShape">
   <g id="id3">
    <rect class="BoundingBox" stroke="none" fill="none" x="36748" y="62776" width="112" height="331"/>
    <path fill="rgb(106,84,156)" stroke="none" d="M 36804,62776 C 36772,62776 36748,62800 36748,62831 L 36748,63051 C 36748,63082 36772,63106 36804,63106 36834,63106 36859,63082 36859,63051 L 36859,62831 C 36859,62800 36834,62776 36804,62776 Z"/>
   </g>
  </g>
  <g class="com.sun.star.drawing.ClosedBezierShape">
   <g id="id4">
    <rect class="BoundingBox" stroke="none" fill="none" x="36967" y="62886" width="112" height="331"/>
    <path fill="rgb(106,84,156)" stroke="none" d="M 37023,62886 C 36992,62886 36967,62910 36967,62941 L 36967,63161 C 36967,63192 36992,63216 37023,63216 37054,63216 37078,63192 37078,63161 L 37078,62941 C 37078,62910 37054,62886 37023,62886 Z"/>
   </g>
  </g>
  <g class="com.sun.star.drawing.ClosedBezierShape">
   <g id="id5">
    <rect class="BoundingBox" stroke="none" fill="none" x="38340" y="63105" width="882" height="881"/>
    <path fill="rgb(106,84,156)" stroke="none" d="M 39025,63180 C 39000,63164 38966,63172 38949,63197 38934,63222 38940,63254 38964,63271 39116,63373 39156,63578 39053,63730 38951,63881 38747,63921 38596,63819 38445,63717 38405,63512 38506,63361 38568,63270 38670,63215 38780,63215 38810,63215 38834,63191 38834,63160 38834,63130 38810,63105 38780,63105 38537,63105 38340,63302 38340,63545 38340,63788 38537,63985 38780,63985 39022,63985 39220,63788 39220,63545 39220,63399 39147,63262 39025,63180 Z"/>
   </g>
  </g>
  <g class="com.sun.star.drawing.ClosedBezierShape">
   <g id="id6">
    <rect class="BoundingBox" stroke="none" fill="none" x="36528" y="60963" width="2913" height="3244"/>
    <path fill="rgb(106,84,156)" stroke="none" d="M 39054,62946 L 39054,61733 C 39054,61713 39044,61695 39027,61685 L 37819,60971 C 37802,60961 37780,60961 37763,60971 L 36555,61685 C 36554,61686 36553,61687 36552,61688 36551,61688 36550,61689 36549,61690 36544,61694 36540,61699 36537,61704 36537,61704 36536,61704 36536,61705 36533,61711 36531,61717 36530,61723 36530,61725 36529,61727 36529,61729 36529,61730 36528,61731 36528,61733 L 36528,63160 C 36528,63181 36538,63199 36555,63209 L 37763,63922 C 37765,63923 37766,63924 37768,63924 37769,63925 37771,63926 37772,63926 37784,63931 37798,63931 37810,63926 37812,63926 37813,63925 37815,63924 37816,63924 37818,63923 37819,63922 L 38147,63729 C 38248,64078 38613,64280 38962,64179 39313,64078 39514,63714 39414,63364 39360,63180 39228,63026 39054,62946 Z M 37791,61083 L 38077,61251 37653,61502 C 37627,61518 37618,61552 37634,61578 37649,61604 37683,61611 37709,61596 L 38185,61315 38470,61484 37370,62135 37085,61965 37545,61693 C 37571,61678 37579,61645 37564,61619 37548,61593 37515,61583 37489,61599 L 36977,61901 36691,61733 37791,61083 Z M 37032,62061 L 37315,62229 37315,62596 37032,62428 37032,62061 Z M 37846,63779 L 37846,63601 C 37846,63570 37821,63546 37791,63546 37761,63546 37736,63570 37736,63601 L 37736,63779 36638,63129 36638,61829 36922,61997 36922,62459 C 36922,62479 36932,62497 36949,62507 L 37342,62739 C 37351,62744 37360,62747 37370,62747 37400,62747 37425,62722 37425,62692 L 37425,62294 37736,62478 37736,63381 C 37736,63411 37761,63436 37791,63436 37821,63436 37846,63411 37846,63381 L 37846,62478 38841,61890 C 38867,61874 38876,61841 38861,61814 38845,61788 38811,61780 38785,61795 L 37791,62383 37478,62198 38578,61548 38944,61764 38944,62908 C 38594,62815 38235,63024 38142,63376 38128,63431 38120,63488 38121,63546 38121,63569 38122,63592 38124,63614 L 37846,63779 Z M 38780,64095 C 38476,64095 38230,63849 38230,63546 38230,63242 38476,62996 38780,62996 39083,62996 39330,63242 39330,63546 39329,63849 39083,64094 38780,64095 Z"/>
   </g>
  </g>
  <g class="com.sun.star.drawing.ClosedBezierShape">
   <g id="id7">
    <rect class="BoundingBox" stroke="none" fill="none" x="38560" y="63381" width="442" height="359"/>
    <path fill="rgb(106,84,156)" stroke="none" d="M 38655,63563 C 38633,63541 38598,63541 38577,63564 38556,63585 38556,63619 38577,63640 L 38659,63723 C 38682,63744 38717,63744 38738,63723 L 38985,63475 C 39006,63453 39006,63418 38984,63397 38962,63376 38929,63376 38907,63397 L 38699,63606 38655,63563 Z"/>
   </g>
  </g>
 </g>
</svg>