<?xml version="1.0" encoding="UTF-8"?>
<!DOCTYPE svg PUBLIC "-//W3C//DTD SVG 1.1//EN" "http://www.w3.org/Graphics/SVG/1.1/DTD/svg11.dtd">
<svg version="1.2" width="28.78mm" height="28.77mm" viewBox="11006 61329 2878 2877" preserveAspectRatio="xMidYMid" fill-rule="evenodd" stroke-width="28.222" stroke-linejoin="round" xmlns="http://www.w3.org/2000/svg" xmlns:ooo="http://xml.openoffice.org/svg/export" xmlns:xlink="http://www.w3.org/1999/xlink" xmlns:presentation="http://sun.com/xmlns/staroffice/presentation" xmlns:smil="http://www.w3.org/2001/SMIL20/" xmlns:anim="urn:oasis:names:tc:opendocument:xmlns:animation:1.0" xmlns:svg="urn:oasis:names:tc:opendocument:xmlns:svg-compatible:1.0" xml:space="preserve">
 <defs class="EmbeddedBulletChars">
  <g id="bullet-char-template-57356" transform="scale(0.00048828125,-0.00048828125)">
   <path d="M 580,1141 L 1163,571 580,0 -4,571 580,1141 Z"/>
  </g>
  <g id="bullet-char-template-57354" transform="scale(0.00048828125,-0.00048828125)">
   <path d="M 8,1128 L 1137,1128 1137,0 8,0 8,1128 Z"/>
  </g>
  <g id="bullet-char-template-10146" transform="scale(0.00048828125,-0.00048828125)">
   <path d="M 174,0 L 602,739 174,1481 1456,739 174,0 Z M 1358,739 L 309,1346 659,739 1358,739 Z"/>
  </g>
  <g id="bullet-char-template-10132" transform="scale(0.00048828125,-0.00048828125)">
   <path d="M 2015,739 L 1276,0 717,0 1260,543 174,543 174,936 1260,936 717,1481 1274,1481 2015,739 Z"/>
  </g>
  <g id="bullet-char-template-10007" transform="scale(0.00048828125,-0.00048828125)">
   <path d="M 0,-2 C -7,14 -16,27 -25,37 L 356,567 C 262,823 215,952 215,954 215,979 228,992 255,992 264,992 276,990 289,987 310,991 331,999 354,1012 L 381,999 492,748 772,1049 836,1024 860,1049 C 881,1039 901,1025 922,1006 886,937 835,863 770,784 769,783 710,716 594,584 L 774,223 C 774,196 753,168 711,139 L 727,119 C 717,90 699,76 672,76 641,76 570,178 457,381 L 164,-76 C 142,-110 111,-127 72,-127 30,-127 9,-110 8,-76 1,-67 -2,-52 -2,-32 -2,-23 -1,-13 0,-2 Z"/>
  </g>
  <g id="bullet-char-template-10004" transform="scale(0.00048828125,-0.00048828125)">
   <path d="M 285,-33 C 182,-33 111,30 74,156 52,228 41,333 41,471 41,549 55,616 82,672 116,743 169,778 240,778 293,778 328,747 346,684 L 369,508 C 377,444 397,411 428,410 L 1163,1116 C 1174,1127 1196,1133 1229,1133 1271,1133 1292,1118 1292,1087 L 1292,965 C 1292,929 1282,901 1262,881 L 442,47 C 390,-6 338,-33 285,-33 Z"/>
  </g>
  <g id="bullet-char-template-9679" transform="scale(0.00048828125,-0.00048828125)">
   <path d="M 813,0 C 632,0 489,54 383,161 276,268 223,411 223,592 223,773 276,916 383,1023 489,1130 632,1184 813,1184 992,1184 1136,1130 1245,1023 1353,916 1407,772 1407,592 1407,412 1353,268 1245,161 1136,54 992,0 813,0 Z"/>
  </g>
  <g id="bullet-char-template-8226" transform="scale(0.00048828125,-0.00048828125)">
   <path d="M 346,457 C 273,457 209,483 155,535 101,586 74,649 74,723 74,796 101,859 155,911 209,963 273,989 346,989 419,989 480,963 531,910 582,859 608,796 608,723 608,648 583,586 532,535 482,483 420,457 346,457 Z"/>
  </g>
  <g id="bullet-char-template-8211" transform="scale(0.00048828125,-0.00048828125)">
   <path d="M -4,459 L 1135,459 1135,606 -4,606 -4,459 Z"/>
  </g>
  <g id="bullet-char-template-61548" transform="scale(0.00048828125,-0.00048828125)">
   <path d="M 173,740 C 173,903 231,1043 346,1159 462,1274 601,1332 765,1332 928,1332 1067,1274 1183,1159 1299,1043 1357,903 1357,740 1357,577 1299,437 1183,322 1067,206 928,148 765,148 601,148 462,206 346,322 231,437 173,577 173,740 Z"/>
  </g>
 </defs>
 <g class="Page">
  <g class="com.sun.star.drawing.ClosedBezierShape">
   <g id="id3">
    <rect class="BoundingBox" stroke="none" fill="none" x="11006" y="61329" width="2878" height="2877"/>
    <path fill="rgb(106,84,156)" stroke="none" d="M 13864,61823 C 13853,61816 13839,61816 13827,61822 L 13538,61964 13427,61737 13746,61580 C 13765,61570 13773,61548 13764,61529 13762,61526 13761,61524 13759,61521 13749,61509 13738,61497 13726,61485 13517,61277 13179,61277 12970,61485 12869,61585 12813,61721 12813,61864 12813,61883 12814,61902 12816,61921 L 12464,62273 11684,61493 C 11678,61487 11671,61484 11663,61482 L 11109,61388 C 11089,61384 11069,61398 11065,61419 11065,61423 11065,61428 11065,61432 L 11160,61987 C 11161,61995 11165,62002 11170,62008 L 11949,62787 11597,63140 C 11304,63108 11041,63320 11009,63613 11007,63635 11006,63657 11006,63679 11007,63700 11024,63717 11045,63717 11051,63717 11056,63715 11061,63713 L 11350,63571 11461,63797 11142,63954 C 11123,63963 11115,63986 11125,64005 11126,64007 11128,64010 11130,64012 11140,64024 11151,64036 11163,64048 11371,64257 11709,64257 11918,64048 12018,63948 12075,63812 12075,63671 12074,63652 12073,63633 12071,63614 L 12423,63262 13065,63904 C 13133,63973 13226,64011 13323,64011 13420,64012 13513,63973 13581,63904 13724,63761 13724,63530 13581,63387 L 12940,62747 13292,62395 C 13310,62397 13329,62398 13348,62398 13643,62398 13882,62159 13882,61865 13882,61861 13882,61858 13882,61855 13882,61842 13875,61830 13864,61823 Z M 11336,61895 L 13110,63671 13025,63756 11251,61981 11336,61895 Z M 13163,63617 L 11390,61842 11518,61713 13294,63486 13163,63617 Z M 13348,63432 L 11572,61659 11657,61574 13433,63347 13348,63432 Z M 11150,61472 L 11578,61545 11223,61902 11150,61472 Z M 11864,63994 C 11687,64171 11401,64173 11222,63999 L 11529,63848 C 11548,63839 11556,63816 11547,63797 L 11402,63503 C 11392,63484 11370,63476 11351,63485 L 11086,63616 C 11097,63514 11144,63419 11216,63347 11395,63168 11685,63168 11864,63347 12043,63526 12043,63816 11864,63994 Z M 12054,63524 C 12003,63346 11864,63208 11687,63157 L 12003,62841 12369,63208 12054,63524 Z M 13612,63645 C 13612,63722 13582,63796 13527,63850 13473,63905 13400,63935 13323,63935 13246,63935 13173,63905 13119,63850 L 13079,63810 13487,63401 13527,63441 C 13581,63495 13612,63569 13612,63645 Z M 12885,62693 L 12518,62326 12833,62011 C 12884,62188 13024,62327 13201,62377 L 12885,62693 Z M 13672,62188 C 13493,62366 13203,62366 13024,62187 12845,62009 12845,61718 13025,61539 13202,61362 13487,61360 13667,61534 L 13359,61685 C 13340,61695 13332,61718 13342,61736 L 13487,62032 C 13496,62051 13519,62058 13538,62049 L 13803,61918 C 13791,62020 13745,62115 13672,62188 Z"/>
   </g>
  </g>
 </g>
</svg>