<?xml version="1.0" encoding="UTF-8"?>
<!DOCTYPE svg PUBLIC "-//W3C//DTD SVG 1.1//EN" "http://www.w3.org/Graphics/SVG/1.1/DTD/svg11.dtd">
<svg version="1.2" width="99.76mm" height="23.04mm" viewBox="2437 9349 9976 2304" preserveAspectRatio="xMidYMid" fill-rule="evenodd" stroke-width="28.222" stroke-linejoin="round" xmlns="http://www.w3.org/2000/svg" xmlns:ooo="http://xml.openoffice.org/svg/export" xmlns:xlink="http://www.w3.org/1999/xlink" xmlns:presentation="http://sun.com/xmlns/staroffice/presentation" xmlns:smil="http://www.w3.org/2001/SMIL20/" xmlns:anim="urn:oasis:names:tc:opendocument:xmlns:animation:1.0" xmlns:svg="urn:oasis:names:tc:opendocument:xmlns:svg-compatible:1.0" xml:space="preserve">
 <defs class="EmbeddedBulletChars">
  <g id="bullet-char-template-57356" transform="scale(0.00048828125,-0.00048828125)">
   <path d="M 580,1141 L 1163,571 580,0 -4,571 580,1141 Z"/>
  </g>
  <g id="bullet-char-template-57354" transform="scale(0.00048828125,-0.00048828125)">
   <path d="M 8,1128 L 1137,1128 1137,0 8,0 8,1128 Z"/>
  </g>
  <g id="bullet-char-template-10146" transform="scale(0.00048828125,-0.00048828125)">
   <path d="M 174,0 L 602,739 174,1481 1456,739 174,0 Z M 1358,739 L 309,1346 659,739 1358,739 Z"/>
  </g>
  <g id="bullet-char-template-10132" transform="scale(0.00048828125,-0.00048828125)">
   <path d="M 2015,739 L 1276,0 717,0 1260,543 174,543 174,936 1260,936 717,1481 1274,1481 2015,739 Z"/>
  </g>
  <g id="bullet-char-template-10007" transform="scale(0.00048828125,-0.00048828125)">
   <path d="M 0,-2 C -7,14 -16,27 -25,37 L 356,567 C 262,823 215,952 215,954 215,979 228,992 255,992 264,992 276,990 289,987 310,991 331,999 354,1012 L 381,999 492,748 772,1049 836,1024 860,1049 C 881,1039 901,1025 922,1006 886,937 835,863 770,784 769,783 710,716 594,584 L 774,223 C 774,196 753,168 711,139 L 727,119 C 717,90 699,76 672,76 641,76 570,178 457,381 L 164,-76 C 142,-110 111,-127 72,-127 30,-127 9,-110 8,-76 1,-67 -2,-52 -2,-32 -2,-23 -1,-13 0,-2 Z"/>
  </g>
  <g id="bullet-char-template-10004" transform="scale(0.00048828125,-0.00048828125)">
   <path d="M 285,-33 C 182,-33 111,30 74,156 52,228 41,333 41,471 41,549 55,616 82,672 116,743 169,778 240,778 293,778 328,747 346,684 L 369,508 C 377,444 397,411 428,410 L 1163,1116 C 1174,1127 1196,1133 1229,1133 1271,1133 1292,1118 1292,1087 L 1292,965 C 1292,929 1282,901 1262,881 L 442,47 C 390,-6 338,-33 285,-33 Z"/>
  </g>
  <g id="bullet-char-template-9679" transform="scale(0.00048828125,-0.00048828125)">
   <path d="M 813,0 C 632,0 489,54 383,161 276,268 223,411 223,592 223,773 276,916 383,1023 489,1130 632,1184 813,1184 992,1184 1136,1130 1245,1023 1353,916 1407,772 1407,592 1407,412 1353,268 1245,161 1136,54 992,0 813,0 Z"/>
  </g>
  <g id="bullet-char-template-8226" transform="scale(0.00048828125,-0.00048828125)">
   <path d="M 346,457 C 273,457 209,483 155,535 101,586 74,649 74,723 74,796 101,859 155,911 209,963 273,989 346,989 419,989 480,963 531,910 582,859 608,796 608,723 608,648 583,586 532,535 482,483 420,457 346,457 Z"/>
  </g>
  <g id="bullet-char-template-8211" transform="scale(0.00048828125,-0.00048828125)">
   <path d="M -4,459 L 1135,459 1135,606 -4,606 -4,459 Z"/>
  </g>
  <g id="bullet-char-template-61548" transform="scale(0.00048828125,-0.00048828125)">
   <path d="M 173,740 C 173,903 231,1043 346,1159 462,1274 601,1332 765,1332 928,1332 1067,1274 1183,1159 1299,1043 1357,903 1357,740 1357,577 1299,437 1183,322 1067,206 928,148 765,148 601,148 462,206 346,322 231,437 173,577 173,740 Z"/>
  </g>
 </defs>
 <g class="Page">
  <g class="com.sun.star.drawing.ClosedBezierShape">
   <g id="id3">
    <rect class="BoundingBox" stroke="none" fill="none" x="2437" y="9974" width="2485" height="1657"/>
    <path fill="rgb(255,255,255)" stroke="none" d="M 2438,9996 C 2486,9985 2532,9979 2575,9977 2617,9975 2653,9974 2683,9974 2724,9974 2765,9975 2805,9977 2845,9979 2882,9984 2918,9992 L 3178,11191 3479,9992 C 3543,9980 3614,9974 3692,9974 3747,9976 3792,9978 3828,9980 3863,9982 3894,9986 3922,9992 L 4216,11169 4473,9992 C 4509,9986 4542,9982 4574,9978 4605,9975 4640,9974 4680,9974 4709,9974 4744,9975 4785,9977 4826,9979 4871,9985 4921,9996 L 4417,11614 C 4379,11620 4339,11624 4296,11626 4253,11628 4217,11630 4188,11630 4157,11630 4122,11628 4083,11626 4044,11624 4007,11619 3972,11611 L 3676,10538 3372,11614 C 3332,11620 3291,11624 3248,11626 3206,11628 3169,11630 3140,11630 3111,11630 3077,11628 3038,11626 3000,11624 2963,11619 2927,11611 L 2438,9996 Z"/>
   </g>
  </g>
  <g class="com.sun.star.drawing.ClosedBezierShape">
   <g id="id4">
    <rect class="BoundingBox" stroke="none" fill="none" x="4779" y="9955" width="1498" height="1698"/>
    <path fill="rgb(255,255,255)" stroke="none" d="M 5855,10629 C 5851,10528 5823,10447 5772,10386 5721,10324 5650,10293 5558,10293 5453,10293 5374,10323 5319,10381 5265,10440 5233,10522 5221,10629 L 5855,10629 Z M 5218,10939 C 5226,11065 5271,11156 5351,11213 5430,11269 5535,11297 5664,11297 5735,11297 5808,11291 5882,11277 5956,11263 6027,11244 6094,11219 6117,11261 6136,11311 6153,11369 6170,11428 6179,11491 6181,11557 6018,11620 5834,11651 5630,11651 5479,11651 5350,11631 5243,11589 5134,11547 5046,11489 4978,11415 4910,11341 4860,11252 4828,11150 4796,11048 4779,10935 4779,10814 4779,10695 4796,10583 4830,10478 4863,10374 4913,10283 4978,10206 5044,10128 5126,10067 5223,10022 5321,9977 5434,9955 5564,9955 5677,9955 5777,9975 5865,10014 5953,10054 6027,10108 6089,10177 6150,10246 6197,10328 6228,10423 6260,10519 6275,10620 6275,10729 6275,10769 6274,10808 6271,10847 6268,10885 6264,10916 6260,10939 L 5218,10939 Z"/>
   </g>
  </g>
  <g class="com.sun.star.drawing.ClosedBezierShape">
   <g id="id5">
    <rect class="BoundingBox" stroke="none" fill="none" x="6362" y="9595" width="792" height="2039"/>
    <path fill="rgb(130,149,211)" stroke="none" d="M 6362,9613 C 6437,9601 6511,9595 6585,9595 6656,9595 6730,9601 6805,9613 L 6805,10967 C 6805,11032 6809,11084 6816,11124 6823,11164 6835,11194 6850,11217 6866,11239 6886,11254 6912,11263 6937,11271 6968,11275 7006,11275 7022,11275 7041,11274 7060,11272 7080,11270 7100,11267 7118,11263 7141,11348 7153,11432 7153,11514 L 7153,11559 C 7153,11573 7151,11588 7147,11604 7113,11615 7073,11622 7026,11626 6979,11631 6936,11633 6896,11633 6735,11633 6605,11588 6508,11499 6411,11411 6362,11266 6362,11064 L 6362,9613 Z"/>
   </g>
  </g>
  <g class="com.sun.star.drawing.ClosedBezierShape">
   <g id="id6">
    <rect class="BoundingBox" stroke="none" fill="none" x="7039" y="9955" width="1343" height="1697"/>
    <path fill="rgb(130,149,211)" stroke="none" d="M 7949,10870 C 7924,10866 7897,10862 7867,10859 7838,10856 7812,10854 7789,10854 7687,10854 7606,10873 7546,10909 7487,10946 7457,11005 7457,11087 7457,11142 7468,11183 7491,11213 7514,11242 7542,11263 7574,11277 7607,11291 7641,11299 7678,11302 7714,11305 7746,11307 7773,11307 7805,11307 7836,11304 7867,11299 7899,11294 7926,11289 7949,11285 L 7949,10870 Z M 7949,10547 C 7949,10497 7941,10456 7924,10425 7907,10394 7884,10369 7855,10351 7826,10334 7790,10322 7747,10315 7704,10309 7656,10306 7604,10306 7491,10306 7370,10328 7243,10372 7213,10317 7191,10266 7177,10218 7162,10170 7155,10113 7155,10046 7247,10014 7339,9991 7432,9977 7524,9962 7609,9955 7689,9955 7906,9955 8076,10007 8198,10112 8320,10216 8381,10383 8381,10613 L 8381,11554 C 8308,11577 8219,11599 8115,11620 8011,11641 7892,11651 7761,11651 7654,11651 7557,11642 7468,11623 7379,11604 7302,11573 7238,11529 7174,11485 7125,11429 7091,11360 7056,11291 7039,11206 7039,11106 7039,11005 7060,10921 7103,10853 7146,10785 7201,10731 7269,10690 7337,10649 7414,10620 7498,10602 7581,10584 7665,10575 7748,10575 7809,10575 7876,10579 7949,10585 L 7949,10547 Z"/>
   </g>
  </g>
  <g class="com.sun.star.drawing.ClosedBezierShape">
   <g id="id7">
    <rect class="BoundingBox" stroke="none" fill="none" x="8518" y="9595" width="1510" height="2057"/>
    <path fill="rgb(130,149,211)" stroke="none" d="M 8960,11262 C 8985,11270 9012,11275 9040,11277 9068,11280 9097,11281 9126,11281 9262,11281 9369,11241 9446,11162 9523,11082 9562,10958 9562,10789 9562,10638 9538,10524 9490,10445 9442,10367 9360,10328 9245,10328 9162,10328 9093,10356 9040,10411 8987,10466 8960,10553 8960,10673 L 8960,11262 Z M 8518,9613 C 8593,9601 8667,9595 8738,9595 8811,9595 8885,9601 8960,9613 L 8960,10149 C 8992,10093 9044,10046 9117,10010 9190,9973 9274,9955 9368,9955 9462,9955 9549,9972 9629,10005 9710,10038 9779,10089 9839,10157 9897,10225 9943,10310 9977,10412 10010,10515 10027,10636 10027,10776 10027,10912 10006,11034 9964,11141 9922,11249 9862,11341 9781,11416 9702,11492 9605,11550 9490,11590 9375,11631 9245,11651 9101,11651 9055,11651 9007,11649 8955,11645 8904,11641 8853,11635 8800,11628 8748,11621 8698,11611 8650,11600 8602,11588 8558,11575 8518,11561 L 8518,9613 Z"/>
   </g>
  </g>
  <g class="com.sun.star.drawing.ClosedBezierShape">
   <g id="id8">
    <rect class="BoundingBox" stroke="none" fill="none" x="11620" y="9595" width="793" height="2039"/>
    <path fill="rgb(130,149,211)" stroke="none" d="M 11621,9613 C 11696,9601 11770,9595 11844,9595 11915,9595 11988,9601 12063,9613 L 12063,10967 C 12063,11032 12067,11084 12074,11124 12081,11164 12093,11194 12108,11217 12124,11239 12144,11254 12169,11263 12195,11271 12226,11275 12264,11275 12281,11275 12299,11274 12319,11272 12339,11270 12359,11267 12377,11263 12400,11348 12412,11432 12412,11514 L 12412,11559 C 12412,11573 12410,11588 12406,11604 12372,11615 12332,11622 12285,11626 12238,11631 12193,11633 12154,11633 11993,11633 11864,11588 11767,11499 11670,11411 11621,11266 11621,11064 L 11621,9613 Z"/>
   </g>
  </g>
  <g class="com.sun.star.drawing.ClosedBezierShape">
   <g id="id9">
    <rect class="BoundingBox" stroke="none" fill="none" x="10077" y="9956" width="1498" height="1696"/>
    <path fill="rgb(130,149,211)" stroke="none" d="M 11526,10424 C 11494,10328 11448,10246 11386,10178 11369,10158 11350,10139 11331,10122 11311,10105 11290,10089 11267,10074 11235,10051 11199,10032 11161,10015 11084,9980 10996,9960 10899,9956 10852,10071 10827,10174 10820,10256 10838,10256 10856,10258 10874,10262 10965,10285 11030,10367 11029,10462 11029,10472 11028,10482 11027,10491 11023,10520 11012,10547 10997,10571 10970,10615 10925,10647 10873,10660 10811,10675 10747,10661 10697,10622 10648,10583 10619,10524 10619,10461 10619,10397 10648,10338 10698,10299 10711,10289 10725,10281 10740,10274 10743,10216 10754,10152 10772,10088 10783,10043 10798,9999 10814,9956 10704,9961 10606,9983 10520,10022 10423,10067 10342,10128 10276,10206 10210,10283 10160,10374 10127,10478 10093,10583 10077,10694 10077,10814 10077,10935 10093,11048 10125,11150 10158,11252 10208,11340 10276,11415 10344,11489 10431,11547 10539,11589 10647,11631 10776,11651 10926,11651 11131,11651 11316,11620 11479,11557 11477,11491 11467,11428 11450,11369 11434,11311 11414,11261 11391,11219 11324,11244 11254,11263 11178,11277 11104,11290 11032,11297 10961,11297 10831,11297 10726,11269 10647,11213 10568,11156 10524,11065 10515,10939 L 11557,10939 C 11561,10916 11565,10885 11568,10846 11571,10808 11573,10769 11573,10729 11573,10620 11557,10518 11526,10424 Z"/>
   </g>
  </g>
  <g class="com.sun.star.drawing.ClosedBezierShape">
   <g id="id10">
    <rect class="BoundingBox" stroke="none" fill="none" x="10738" y="9349" width="760" height="1171"/>
    <path fill="rgb(255,255,255)" stroke="none" d="M 11402,9363 C 11244,9284 11011,9541 10872,9822 10869,9829 10866,9835 10864,9841 10855,9859 10847,9877 10839,9894 10837,9899 10835,9903 10834,9908 10827,9924 10820,9941 10814,9957 10798,10000 10783,10044 10772,10089 10753,10156 10742,10223 10739,10284 10739,10287 10739,10291 10738,10294 10738,10329 10740,10362 10746,10391 10756,10442 10777,10483 10811,10509 10853,10541 10900,10478 10858,10446 10837,10430 10823,10395 10819,10346 10819,10345 10819,10344 10819,10343 10816,10320 10817,10294 10819,10266 10825,10182 10850,10076 10899,9957 10901,9951 10904,9945 10906,9939 10907,9937 10908,9935 10909,9932 10914,9918 10920,9906 10926,9893 10931,9881 10937,9869 10943,9857 11087,9566 11286,9394 11367,9433 11449,9474 11434,9737 11292,10028 11284,10044 11276,10059 11267,10075 11290,10090 11311,10106 11331,10123 11342,10102 11353,10081 11362,10063 11500,9782 11561,9442 11402,9363 Z"/>
   </g>
  </g>
 </g>
</svg>