<?xml version="1.0" encoding="UTF-8"?>
<!DOCTYPE svg PUBLIC "-//W3C//DTD SVG 1.1//EN" "http://www.w3.org/Graphics/SVG/1.1/DTD/svg11.dtd">
<svg version="1.2" width="110.19mm" height="25.46mm" viewBox="16766 3793 11019 2546" preserveAspectRatio="xMidYMid" fill-rule="evenodd" stroke-width="28.222" stroke-linejoin="round" xmlns="http://www.w3.org/2000/svg" xmlns:ooo="http://xml.openoffice.org/svg/export" xmlns:xlink="http://www.w3.org/1999/xlink" xmlns:presentation="http://sun.com/xmlns/staroffice/presentation" xmlns:smil="http://www.w3.org/2001/SMIL20/" xmlns:anim="urn:oasis:names:tc:opendocument:xmlns:animation:1.0" xmlns:svg="urn:oasis:names:tc:opendocument:xmlns:svg-compatible:1.0" xml:space="preserve">
 <defs class="EmbeddedBulletChars">
  <g id="bullet-char-template-57356" transform="scale(0.00048828125,-0.00048828125)">
   <path d="M 580,1141 L 1163,571 580,0 -4,571 580,1141 Z"/>
  </g>
  <g id="bullet-char-template-57354" transform="scale(0.00048828125,-0.00048828125)">
   <path d="M 8,1128 L 1137,1128 1137,0 8,0 8,1128 Z"/>
  </g>
  <g id="bullet-char-template-10146" transform="scale(0.00048828125,-0.00048828125)">
   <path d="M 174,0 L 602,739 174,1481 1456,739 174,0 Z M 1358,739 L 309,1346 659,739 1358,739 Z"/>
  </g>
  <g id="bullet-char-template-10132" transform="scale(0.00048828125,-0.00048828125)">
   <path d="M 2015,739 L 1276,0 717,0 1260,543 174,543 174,936 1260,936 717,1481 1274,1481 2015,739 Z"/>
  </g>
  <g id="bullet-char-template-10007" transform="scale(0.00048828125,-0.00048828125)">
   <path d="M 0,-2 C -7,14 -16,27 -25,37 L 356,567 C 262,823 215,952 215,954 215,979 228,992 255,992 264,992 276,990 289,987 310,991 331,999 354,1012 L 381,999 492,748 772,1049 836,1024 860,1049 C 881,1039 901,1025 922,1006 886,937 835,863 770,784 769,783 710,716 594,584 L 774,223 C 774,196 753,168 711,139 L 727,119 C 717,90 699,76 672,76 641,76 570,178 457,381 L 164,-76 C 142,-110 111,-127 72,-127 30,-127 9,-110 8,-76 1,-67 -2,-52 -2,-32 -2,-23 -1,-13 0,-2 Z"/>
  </g>
  <g id="bullet-char-template-10004" transform="scale(0.00048828125,-0.00048828125)">
   <path d="M 285,-33 C 182,-33 111,30 74,156 52,228 41,333 41,471 41,549 55,616 82,672 116,743 169,778 240,778 293,778 328,747 346,684 L 369,508 C 377,444 397,411 428,410 L 1163,1116 C 1174,1127 1196,1133 1229,1133 1271,1133 1292,1118 1292,1087 L 1292,965 C 1292,929 1282,901 1262,881 L 442,47 C 390,-6 338,-33 285,-33 Z"/>
  </g>
  <g id="bullet-char-template-9679" transform="scale(0.00048828125,-0.00048828125)">
   <path d="M 813,0 C 632,0 489,54 383,161 276,268 223,411 223,592 223,773 276,916 383,1023 489,1130 632,1184 813,1184 992,1184 1136,1130 1245,1023 1353,916 1407,772 1407,592 1407,412 1353,268 1245,161 1136,54 992,0 813,0 Z"/>
  </g>
  <g id="bullet-char-template-8226" transform="scale(0.00048828125,-0.00048828125)">
   <path d="M 346,457 C 273,457 209,483 155,535 101,586 74,649 74,723 74,796 101,859 155,911 209,963 273,989 346,989 419,989 480,963 531,910 582,859 608,796 608,723 608,648 583,586 532,535 482,483 420,457 346,457 Z"/>
  </g>
  <g id="bullet-char-template-8211" transform="scale(0.00048828125,-0.00048828125)">
   <path d="M -4,459 L 1135,459 1135,606 -4,606 -4,459 Z"/>
  </g>
  <g id="bullet-char-template-61548" transform="scale(0.00048828125,-0.00048828125)">
   <path d="M 173,740 C 173,903 231,1043 346,1159 462,1274 601,1332 765,1332 928,1332 1067,1274 1183,1159 1299,1043 1357,903 1357,740 1357,577 1299,437 1183,322 1067,206 928,148 765,148 601,148 462,206 346,322 231,437 173,577 173,740 Z"/>
  </g>
 </defs>
 <g class="Page">
  <g class="com.sun.star.drawing.ClosedBezierShape">
   <g id="id3">
    <rect class="BoundingBox" stroke="none" fill="none" x="16766" y="4484" width="2744" height="1831"/>
    <path fill="rgb(99,71,160)" stroke="none" d="M 16766,4509 C 16819,4497 16869,4490 16917,4488 16964,4486 17004,4484 17036,4484 17082,4484 17127,4486 17171,4488 17215,4490 17257,4496 17296,4505 L 17583,5829 17917,4505 C 17988,4491 18067,4484 18152,4484 18212,4487 18262,4489 18301,4491 18340,4494 18375,4498 18405,4505 L 18730,5805 19014,4505 C 19053,4498 19090,4493 19125,4490 19159,4486 19199,4484 19243,4484 19275,4484 19314,4486 19359,4488 19404,4490 19454,4497 19509,4509 L 18952,6296 C 18910,6303 18866,6308 18818,6310 18771,6312 18731,6314 18699,6314 18664,6314 18626,6312 18583,6310 18540,6308 18499,6302 18460,6293 L 18135,5109 17798,6296 C 17754,6303 17708,6308 17661,6310 17614,6312 17574,6314 17542,6314 17509,6314 17472,6312 17429,6310 17386,6308 17345,6302 17306,6293 L 16766,4509 Z"/>
   </g>
  </g>
  <g class="com.sun.star.drawing.ClosedBezierShape">
   <g id="id4">
    <rect class="BoundingBox" stroke="none" fill="none" x="19352" y="4464" width="1654" height="1875"/>
    <path fill="rgb(99,71,160)" stroke="none" d="M 20540,5209 C 20535,5098 20505,5009 20448,4941 20392,4873 20313,4839 20211,4839 20096,4839 20008,4871 19948,4936 19888,5000 19852,5091 19841,5209 L 20540,5209 Z M 19837,5552 C 19846,5690 19895,5791 19983,5853 20070,5915 20186,5947 20329,5947 20407,5947 20487,5939 20569,5924 20652,5909 20730,5888 20804,5860 20829,5906 20851,5962 20870,6026 20888,6091 20899,6160 20901,6234 20721,6303 20517,6338 20291,6338 20125,6338 19982,6315 19863,6269 19744,6222 19647,6158 19572,6076 19497,5994 19442,5897 19406,5784 19370,5671 19352,5547 19352,5413 19352,5282 19371,5158 19408,5043 19445,4927 19500,4827 19572,4742 19645,4655 19735,4588 19842,4538 19950,4489 20075,4464 20218,4464 20343,4464 20453,4486 20550,4529 20648,4573 20731,4633 20799,4710 20867,4787 20918,4877 20953,4982 20988,5087 21005,5200 21005,5320 21005,5364 21003,5407 21000,5450 20996,5492 20992,5526 20988,5552 L 19837,5552 Z"/>
   </g>
  </g>
  <g class="com.sun.star.drawing.ClosedBezierShape">
   <g id="id5">
    <rect class="BoundingBox" stroke="none" fill="none" x="21100" y="4066" width="875" height="2252"/>
    <path fill="rgb(255,255,255)" stroke="none" d="M 21101,4087 C 21184,4073 21266,4066 21347,4066 21426,4066 21507,4073 21590,4087 L 21590,5582 C 21590,5655 21594,5712 21602,5756 21610,5800 21623,5834 21640,5858 21658,5882 21680,5899 21708,5908 21735,5918 21770,5922 21812,5922 21830,5922 21850,5921 21872,5919 21894,5917 21915,5913 21936,5908 21962,6003 21974,6095 21974,6185 L 21974,6236 C 21974,6251 21972,6267 21967,6286 21930,6297 21886,6305 21834,6310 21782,6315 21734,6317 21690,6317 21513,6317 21370,6268 21262,6170 21154,6072 21101,5912 21101,5690 L 21101,4087 Z"/>
   </g>
  </g>
  <g class="com.sun.star.drawing.ClosedBezierShape">
   <g id="id6">
    <rect class="BoundingBox" stroke="none" fill="none" x="21849" y="4464" width="1484" height="1875"/>
    <path fill="rgb(255,255,255)" stroke="none" d="M 22853,5476 C 22825,5471 22795,5467 22763,5464 22730,5460 22701,5458 22676,5458 22563,5458 22474,5479 22408,5519 22342,5559 22309,5625 22309,5715 22309,5775 22322,5821 22347,5853 22373,5885 22403,5909 22439,5924 22475,5939 22513,5948 22553,5952 22594,5955 22629,5957 22659,5957 22693,5957 22728,5954 22763,5948 22797,5943 22827,5937 22853,5933 L 22853,5476 Z M 22853,5119 C 22853,5064 22843,5019 22825,4984 22806,4949 22781,4922 22749,4903 22716,4883 22677,4870 22629,4863 22582,4856 22530,4852 22472,4852 22347,4852 22214,4877 22074,4925 22041,4865 22017,4809 22001,4755 21985,4702 21977,4638 21977,4564 22078,4529 22180,4504 22281,4488 22383,4472 22478,4464 22565,4464 22805,4464 22994,4521 23129,4637 23264,4753 23331,4938 23331,5192 L 23331,6230 C 23251,6256 23153,6280 23037,6303 22921,6326 22790,6338 22645,6338 22527,6338 22419,6327 22321,6307 22223,6286 22139,6251 22069,6203 21998,6154 21944,6092 21906,6016 21868,5940 21849,5846 21849,5735 21849,5625 21872,5532 21920,5457 21967,5382 22028,5322 22103,5277 22178,5232 22262,5199 22354,5180 22446,5160 22539,5150 22631,5150 22698,5150 22772,5154 22853,5161 L 22853,5119 Z"/>
   </g>
  </g>
  <g class="com.sun.star.drawing.ClosedBezierShape">
   <g id="id7">
    <rect class="BoundingBox" stroke="none" fill="none" x="23483" y="4066" width="1667" height="2273"/>
    <path fill="rgb(255,255,255)" stroke="none" d="M 23971,5908 C 23999,5918 24028,5923 24059,5926 24090,5928 24122,5929 24155,5929 24305,5929 24423,5885 24509,5798 24594,5710 24637,5572 24637,5385 24637,5218 24610,5092 24557,5006 24504,4919 24414,4876 24287,4876 24195,4876 24118,4906 24059,4967 24000,5029 23971,5125 23971,5257 L 23971,5908 Z M 23483,4087 C 23566,4073 23647,4066 23725,4066 23806,4066 23888,4073 23971,4087 L 23971,4678 C 24006,4616 24063,4565 24145,4524 24226,4484 24318,4464 24422,4464 24526,4464 24622,4482 24711,4519 24800,4556 24877,4612 24941,4687 25006,4762 25057,4856 25094,4969 25131,5082 25149,5216 25149,5371 25149,5521 25126,5655 25080,5775 25034,5894 24967,5995 24879,6078 24791,6161 24684,6225 24557,6270 24430,6315 24287,6338 24127,6338 24076,6338 24022,6335 23966,6331 23909,6326 23852,6320 23794,6312 23737,6304 23681,6293 23628,6281 23575,6268 23527,6254 23483,6237 L 23483,4087 Z"/>
   </g>
  </g>
  <g class="com.sun.star.drawing.ClosedBezierShape">
   <g id="id8">
    <rect class="BoundingBox" stroke="none" fill="none" x="25934" y="4464" width="181" height="623"/>
    <path fill="rgb(255,255,255)" stroke="none" d="M 26015,5076 C 25978,5047 25955,5002 25944,4946 25937,4914 25935,4877 25935,4839 25936,4834 25936,4831 25936,4827 25939,4760 25952,4686 25972,4610 25985,4561 26001,4513 26019,4465 26036,4464 26053,4464 26070,4464 26084,4464 26099,4464 26114,4465 26059,4596 26031,4715 26024,4808 26022,4839 26021,4867 26024,4892 26024,4893 26024,4894 26024,4895 26029,4950 26044,4988 26068,5006 26115,5041 26062,5111 26015,5076 Z"/>
   </g>
  </g>
  <g class="com.sun.star.drawing.ClosedBezierShape">
   <g id="id9">
    <rect class="BoundingBox" stroke="none" fill="none" x="26909" y="4066" width="876" height="2252"/>
    <path fill="rgb(255,255,255)" stroke="none" d="M 26910,4087 C 26994,4073 27075,4066 27156,4066 27235,4066 27315,4073 27399,4087 L 27399,5582 C 27399,5655 27403,5712 27411,5756 27419,5800 27432,5834 27449,5858 27466,5882 27490,5899 27517,5908 27545,5918 27580,5922 27621,5922 27640,5922 27660,5921 27682,5919 27704,5917 27725,5913 27746,5908 27771,6003 27784,6095 27784,6185 L 27784,6236 C 27784,6251 27782,6267 27777,6286 27740,6297 27696,6305 27644,6310 27592,6315 27544,6317 27500,6317 27321,6317 27179,6268 27071,6170 26964,6072 26910,5912 26910,5690 L 26910,4087 Z"/>
   </g>
  </g>
  <g class="com.sun.star.drawing.ClosedBezierShape">
   <g id="id10">
    <rect class="BoundingBox" stroke="none" fill="none" x="25204" y="4465" width="1654" height="1874"/>
    <path fill="rgb(255,255,255)" stroke="none" d="M 26805,4982 C 26770,4877 26719,4787 26651,4711 26632,4689 26611,4668 26590,4649 26567,4629 26544,4611 26520,4595 26484,4570 26445,4548 26404,4530 26318,4491 26222,4469 26114,4465 26062,4591 26034,4706 26026,4798 26046,4797 26066,4799 26086,4804 26187,4829 26258,4920 26258,5025 26258,5036 26257,5047 26255,5057 26250,5089 26239,5119 26222,5145 26192,5193 26143,5230 26085,5244 26017,5260 25945,5245 25891,5202 25836,5159 25804,5093 25805,5023 25805,4953 25837,4888 25892,4845 25906,4834 25922,4825 25938,4818 25942,4753 25954,4683 25973,4610 25986,4561 26002,4513 26020,4465 25898,4470 25790,4494 25696,4538 25587,4588 25497,4655 25424,4742 25352,4827 25297,4928 25260,5043 25223,5158 25204,5282 25204,5414 25204,5547 25222,5671 25258,5784 25294,5897 25349,5994 25424,6076 25499,6159 25597,6222 25716,6269 25835,6315 25978,6338 26144,6338 26370,6338 26573,6303 26753,6234 26751,6160 26741,6091 26722,6026 26704,5961 26681,5906 26656,5860 26582,5887 26504,5909 26422,5924 26341,5939 26260,5947 26182,5947 26039,5947 25923,5916 25836,5853 25748,5791 25699,5690 25690,5552 L 26840,5552 C 26844,5527 26848,5493 26852,5450 26855,5407 26857,5364 26857,5320 26857,5200 26840,5087 26805,4982 Z"/>
   </g>
  </g>
  <g class="com.sun.star.drawing.ClosedBezierShape">
   <g id="id11">
    <rect class="BoundingBox" stroke="none" fill="none" x="25934" y="3793" width="840" height="1294"/>
    <path fill="rgb(99,71,160)" stroke="none" d="M 26669,3810 C 26493,3723 26236,4007 26083,4317 26080,4324 26077,4331 26074,4338 26064,4358 26055,4377 26047,4397 26045,4402 26043,4407 26041,4412 26033,4429 26026,4447 26019,4465 26001,4513 25985,4562 25972,4611 25952,4686 25939,4760 25936,4827 25936,4831 25936,4834 25935,4839 25935,4877 25937,4914 25944,4945 25955,5002 25978,5047 26015,5076 26062,5111 26114,5041 26068,5006 26044,4988 26029,4950 26024,4895 26024,4894 26024,4893 26024,4892 26021,4867 26022,4839 26024,4808 26031,4715 26059,4597 26113,4465 26115,4458 26118,4452 26120,4445 26121,4443 26123,4440 26123,4438 26129,4423 26136,4409 26142,4395 26149,4382 26155,4368 26161,4356 26319,4034 26540,3844 26630,3888 26721,3932 26704,4223 26547,4545 26538,4562 26529,4579 26520,4596 26544,4612 26567,4630 26590,4650 26602,4626 26615,4603 26624,4583 26777,4272 26844,3897 26669,3810 Z"/>
   </g>
  </g>
 </g>
</svg>