<?xml version="1.0" encoding="UTF-8"?>
<!DOCTYPE svg PUBLIC "-//W3C//DTD SVG 1.1//EN" "http://www.w3.org/Graphics/SVG/1.1/DTD/svg11.dtd">
<svg version="1.2" width="31.14mm" height="25.33mm" viewBox="36381 49177 3114 2533" preserveAspectRatio="xMidYMid" fill-rule="evenodd" stroke-width="28.222" stroke-linejoin="round" xmlns="http://www.w3.org/2000/svg" xmlns:ooo="http://xml.openoffice.org/svg/export" xmlns:xlink="http://www.w3.org/1999/xlink" xmlns:presentation="http://sun.com/xmlns/staroffice/presentation" xmlns:smil="http://www.w3.org/2001/SMIL20/" xmlns:anim="urn:oasis:names:tc:opendocument:xmlns:animation:1.0" xmlns:svg="urn:oasis:names:tc:opendocument:xmlns:svg-compatible:1.0" xml:space="preserve">
 <defs class="EmbeddedBulletChars">
  <g id="bullet-char-template-57356" transform="scale(0.00048828125,-0.00048828125)">
   <path d="M 580,1141 L 1163,571 580,0 -4,571 580,1141 Z"/>
  </g>
  <g id="bullet-char-template-57354" transform="scale(0.00048828125,-0.00048828125)">
   <path d="M 8,1128 L 1137,1128 1137,0 8,0 8,1128 Z"/>
  </g>
  <g id="bullet-char-template-10146" transform="scale(0.00048828125,-0.00048828125)">
   <path d="M 174,0 L 602,739 174,1481 1456,739 174,0 Z M 1358,739 L 309,1346 659,739 1358,739 Z"/>
  </g>
  <g id="bullet-char-template-10132" transform="scale(0.00048828125,-0.00048828125)">
   <path d="M 2015,739 L 1276,0 717,0 1260,543 174,543 174,936 1260,936 717,1481 1274,1481 2015,739 Z"/>
  </g>
  <g id="bullet-char-template-10007" transform="scale(0.00048828125,-0.00048828125)">
   <path d="M 0,-2 C -7,14 -16,27 -25,37 L 356,567 C 262,823 215,952 215,954 215,979 228,992 255,992 264,992 276,990 289,987 310,991 331,999 354,1012 L 381,999 492,748 772,1049 836,1024 860,1049 C 881,1039 901,1025 922,1006 886,937 835,863 770,784 769,783 710,716 594,584 L 774,223 C 774,196 753,168 711,139 L 727,119 C 717,90 699,76 672,76 641,76 570,178 457,381 L 164,-76 C 142,-110 111,-127 72,-127 30,-127 9,-110 8,-76 1,-67 -2,-52 -2,-32 -2,-23 -1,-13 0,-2 Z"/>
  </g>
  <g id="bullet-char-template-10004" transform="scale(0.00048828125,-0.00048828125)">
   <path d="M 285,-33 C 182,-33 111,30 74,156 52,228 41,333 41,471 41,549 55,616 82,672 116,743 169,778 240,778 293,778 328,747 346,684 L 369,508 C 377,444 397,411 428,410 L 1163,1116 C 1174,1127 1196,1133 1229,1133 1271,1133 1292,1118 1292,1087 L 1292,965 C 1292,929 1282,901 1262,881 L 442,47 C 390,-6 338,-33 285,-33 Z"/>
  </g>
  <g id="bullet-char-template-9679" transform="scale(0.00048828125,-0.00048828125)">
   <path d="M 813,0 C 632,0 489,54 383,161 276,268 223,411 223,592 223,773 276,916 383,1023 489,1130 632,1184 813,1184 992,1184 1136,1130 1245,1023 1353,916 1407,772 1407,592 1407,412 1353,268 1245,161 1136,54 992,0 813,0 Z"/>
  </g>
  <g id="bullet-char-template-8226" transform="scale(0.00048828125,-0.00048828125)">
   <path d="M 346,457 C 273,457 209,483 155,535 101,586 74,649 74,723 74,796 101,859 155,911 209,963 273,989 346,989 419,989 480,963 531,910 582,859 608,796 608,723 608,648 583,586 532,535 482,483 420,457 346,457 Z"/>
  </g>
  <g id="bullet-char-template-8211" transform="scale(0.00048828125,-0.00048828125)">
   <path d="M -4,459 L 1135,459 1135,606 -4,606 -4,459 Z"/>
  </g>
  <g id="bullet-char-template-61548" transform="scale(0.00048828125,-0.00048828125)">
   <path d="M 173,740 C 173,903 231,1043 346,1159 462,1274 601,1332 765,1332 928,1332 1067,1274 1183,1159 1299,1043 1357,903 1357,740 1357,577 1299,437 1183,322 1067,206 928,148 765,148 601,148 462,206 346,322 231,437 173,577 173,740 Z"/>
  </g>
 </defs>
 <g class="Page">
  <g class="com.sun.star.drawing.ClosedBezierShape">
   <g id="id3">
    <rect class="BoundingBox" stroke="none" fill="none" x="36381" y="49177" width="2330" height="2533"/>
    <path fill="rgb(106,84,156)" stroke="none" d="M 38683,51065 C 38655,51046 38617,51054 38599,51081 38567,51128 38533,51172 38495,51213 38395,51133 38284,51068 38164,51020 38169,50999 38173,50977 38178,50956 38184,50923 38163,50891 38130,50885 38097,50878 38066,50899 38059,50932 38056,50948 38053,50964 38049,50979 37921,50941 37786,50921 37647,50921 37508,50921 37373,50941 37244,50980 37212,50834 37193,50672 37190,50504 L 37866,50504 C 37899,50504 37926,50477 37926,50444 37926,50410 37899,50383 37866,50383 L 37190,50383 C 37194,50202 37215,50029 37252,49874 37386,49917 37529,49939 37676,49939 37803,49939 37927,49922 38045,49890 38050,49911 38055,49932 38059,49954 38065,49987 38097,50008 38130,50002 38163,49995 38184,49964 38178,49931 38172,49904 38167,49878 38161,49853 38280,49808 38392,49747 38493,49671 38530,49712 38565,49755 38596,49802 38615,49829 38652,49837 38680,49818 38708,49799 38715,49761 38696,49734 38460,49386 38067,49177 37647,49177 36949,49177 36381,49746 36381,50444 36381,51142 36949,51709 37647,51709 38069,51709 38463,51500 38699,51149 38718,51121 38710,51083 38683,51065 Z M 38409,51299 C 38271,51420 38108,51507 37932,51552 38013,51454 38082,51313 38134,51138 38232,51179 38325,51233 38409,51299 Z M 37647,51042 C 37776,51042 37901,51061 38019,51097 37933,51397 37791,51588 37647,51588 37536,51588 37422,51473 37336,51272 37313,51218 37292,51159 37274,51097 37393,51061 37518,51042 37647,51042 Z M 37225,51320 C 37265,51414 37311,51492 37362,51553 37183,51506 37020,51418 36886,51299 36969,51233 37062,51179 37160,51138 37179,51202 37201,51263 37225,51320 Z M 37676,49818 C 37540,49818 37408,49797 37284,49757 37300,49707 37317,49660 37336,49615 37422,49414 37536,49298 37647,49298 37789,49298 37928,49483 38014,49773 37906,49803 37792,49818 37676,49818 Z M 37171,49714 C 37080,49674 36994,49623 36917,49562 37045,49456 37196,49377 37362,49334 37311,49396 37265,49474 37225,49567 37205,49613 37187,49663 37171,49714 Z M 37932,49334 C 38107,49380 38269,49466 38406,49586 38321,49647 38228,49697 38129,49735 38079,49566 38011,49430 37932,49334 Z M 36827,49645 C 36921,49722 37026,49784 37138,49832 37097,49999 37073,50187 37069,50383 L 36504,50383 C 36519,50097 36639,49838 36827,49645 Z M 36504,50504 L 37069,50504 C 37073,50686 37093,50861 37129,51020 37010,51068 36899,51133 36800,51213 36627,51024 36518,50776 36504,50504 Z"/>
   </g>
  </g>
  <g class="com.sun.star.drawing.ClosedBezierShape">
   <g id="id4">
    <rect class="BoundingBox" stroke="none" fill="none" x="38231" y="50097" width="427" height="428"/>
    <path fill="rgb(106,84,156)" stroke="none" d="M 38597,50097 C 38395,50097 38231,50261 38231,50463 38231,50496 38258,50524 38291,50524 38325,50524 38352,50496 38352,50463 38352,50328 38461,50218 38597,50218 38630,50218 38657,50191 38657,50158 38657,50124 38630,50097 38597,50097 Z"/>
   </g>
  </g>
  <g class="com.sun.star.drawing.ClosedBezierShape">
   <g id="id5">
    <rect class="BoundingBox" stroke="none" fill="none" x="38052" y="49918" width="1443" height="1443"/>
    <path fill="rgb(106,84,156)" stroke="none" d="M 39476,51102 L 39208,50834 C 39184,50810 39146,50810 39122,50834 39098,50858 39098,50896 39122,50919 L 39348,51146 39280,51214 38946,50879 C 38958,50869 38970,50858 38981,50847 39084,50744 39141,50607 39141,50462 39141,50317 39084,50180 38981,50078 38879,49975 38742,49918 38597,49918 38452,49918 38315,49975 38212,50078 38109,50180 38052,50317 38052,50462 38052,50607 38109,50744 38212,50847 38315,50949 38452,51006 38597,51006 38684,51006 38768,50985 38843,50947 L 39237,51342 C 39249,51354 39264,51360 39280,51360 39295,51360 39311,51354 39323,51342 L 39476,51189 C 39500,51165 39500,51127 39476,51102 Z M 38298,50761 C 38218,50681 38174,50575 38174,50462 38174,50349 38218,50243 38298,50163 38378,50083 38484,50039 38597,50039 38710,50039 38816,50083 38896,50163 38976,50243 39020,50349 39020,50462 39020,50575 38976,50681 38896,50761 38816,50841 38710,50885 38597,50885 38484,50885 38378,50841 38298,50761 Z"/>
   </g>
  </g>
 </g>
</svg>